<?xml version="1.0" encoding="UTF-8" standalone="no"?>
<!-- Created with Inkscape (http://www.inkscape.org/) -->

<svg
   width="630"
   height="500"
   viewBox="0 0 166.6875 132.29167"
   version="1.1"
   id="svg133007"
   inkscape:version="1.1.2 (0a00cf5339, 2022-02-04)"
   sodipodi:docname="logo.svg"
   inkscape:export-filename="/home/alexander/source/Godot/godot-wild-jam-71/itch.io/logo.png"
   inkscape:export-xdpi="96"
   inkscape:export-ydpi="96"
   xmlns:inkscape="http://www.inkscape.org/namespaces/inkscape"
   xmlns:sodipodi="http://sodipodi.sourceforge.net/DTD/sodipodi-0.dtd"
   xmlns:xlink="http://www.w3.org/1999/xlink"
   xmlns="http://www.w3.org/2000/svg"
   xmlns:svg="http://www.w3.org/2000/svg">
  <sodipodi:namedview
     id="namedview133009"
     pagecolor="#505050"
     bordercolor="#ffffff"
     borderopacity="1"
     inkscape:pageshadow="0"
     inkscape:pageopacity="0"
     inkscape:pagecheckerboard="1"
     inkscape:document-units="mm"
     showgrid="false"
     units="px"
     inkscape:snap-page="true"
     inkscape:snap-object-midpoints="true"
     inkscape:snap-center="true"
     inkscape:snap-grids="true"
     inkscape:snap-bbox="true"
     inkscape:bbox-nodes="true"
     inkscape:bbox-paths="true"
     inkscape:snap-midpoints="true"
     inkscape:object-paths="true"
     inkscape:snap-intersection-paths="true"
     inkscape:snap-smooth-nodes="true"
     inkscape:zoom="1.0469406"
     inkscape:cx="304.21973"
     inkscape:cy="271.26658"
     inkscape:window-width="1920"
     inkscape:window-height="1011"
     inkscape:window-x="0"
     inkscape:window-y="0"
     inkscape:window-maximized="1"
     inkscape:current-layer="layer1"
     inkscape:snap-to-guides="true"
     width="630px"
     inkscape:snap-bbox-midpoints="true">
    <inkscape:grid
       type="xygrid"
       id="grid136528" />
  </sodipodi:namedview>
  <defs
     id="defs133004">
    <rect
       x="210.28393"
       y="182.38656"
       width="1743.9466"
       height="806.9903"
       id="rect6750" />
    <linearGradient
       inkscape:collect="always"
       id="linearGradient3990">
      <stop
         style="stop-color:#3966de;stop-opacity:1;"
         offset="0"
         id="stop3986" />
      <stop
         style="stop-color:#3966de;stop-opacity:0;"
         offset="1"
         id="stop3988" />
    </linearGradient>
    <radialGradient
       inkscape:collect="always"
       xlink:href="#linearGradient3990"
       id="radialGradient3992"
       cx="960"
       cy="540"
       fx="960"
       fy="540"
       r="1137.896"
       gradientTransform="matrix(1,0,0,0.99656166,0,1.8567062)"
       gradientUnits="userSpaceOnUse" />
  </defs>
  <g
     inkscape:label="Слой 1"
     inkscape:groupmode="layer"
     id="layer1">
    <rect
       style="fill:#193c98;fill-opacity:1;fill-rule:evenodd;stroke:none;stroke-width:1.41035;stroke-linecap:square"
       id="rect133107"
       width="238.96323"
       height="134.25395"
       x="-30.333368"
       y="-1.0716555"
       rx="1.2446001"
       ry="1.2430922"
       inkscape:export-filename="/home/alexander/source/Godot/godot-wild-jam-71/itch.io/rect133107.png"
       inkscape:export-xdpi="44.444443"
       inkscape:export-ydpi="44.444443" />
    <path
       sodipodi:type="star"
       style="fill:url(#radialGradient3992);fill-opacity:1;fill-rule:evenodd;stroke:none;stroke-width:11.3386;stroke-linecap:square"
       id="path3076"
       inkscape:flatsided="false"
       sodipodi:sides="30"
       sodipodi:cx="960"
       sodipodi:cy="540"
       sodipodi:r1="1138.1127"
       sodipodi:r2="283.27542"
       sodipodi:arg1="-0.39936758"
       sodipodi:arg2="-0.29821634"
       inkscape:rounded="0"
       inkscape:randomized="0"
       d="m 2008.5513,97.461087 -777.7791,359.308133 846.8747,-131.63153 -835.487,189.74704 855.7361,47.32008 -856.6802,11.89308 827.1978,224.20358 -840.4324,-166.48066 762.507,391.28829 -787.4537,-337.57838 664.4911,541.27188 -700.0595,-493.92236 537.4336,667.59926 -582.0693,-628.67953 386.8877,764.74933 -438.6399,-735.96037 219.433,828.47617 -276.0398,-811.0762 42.388,855.9947 L 955.48395,823.23942 818.97431,1669.3415 896.69385,816.11102 587.25276,1615.3418 840.67053,796.91524 371.82205,1514.3445 789.86249,766.49104 182.09754,1370.7636 746.49026,726.16809 26.371107,1190.8744 712.44944,677.7087 -88.551268,982.53891 689.22777,623.23078 -157.64692,754.86231 677.84014,565.11527 -177.89604,517.79519 678.78425,505.90211 -148.41364,281.69853 692.01884,448.17919 -70.488249,56.890882 716.96549,394.46928 52.474425,-146.80258 752.53392,347.11976 215.10032,-320.47947 797.1696,308.20003 410.28191,-456.54928 848.92176,279.41107 629.48881,-549.06511 905.52857,262.0111 l -42.38793,-855.99466 101.37541,850.74414 136.50965,-846.10207 -77.7196,853.23047 309.4411,-799.23076 -253.4177,818.42654 468.8484,-717.42923 -418.0404,747.85343 607.765,-604.2726 -564.3928,644.59555 720.1192,-464.70635 -686.0783,513.16574 z"
       transform="matrix(0.12446,0,0,0.12430923,-30.33337,-1.0716531)"
       inkscape:transform-center-x="8.5811943e-06" />
    <path
       id="rect135212"
       style="fill:#05bbe5;fill-opacity:1;fill-rule:evenodd;stroke:#b1c2eb;stroke-width:1.41035;stroke-linecap:square;stroke-miterlimit:4;stroke-dasharray:none;stroke-opacity:1"
       d="m 5.5210655,56.713529 c 0,0 28.4259845,-0.05618 40.2089265,-0.05618 0.744257,0 0.818815,-0.165474 0.818815,0.72125 v 35.247249 c 0,1.30142 -1.048991,2.34914 -2.351999,2.34914 H 13.908133 c -1.303007,0 -2.364056,-1.04777 -2.351999,-2.34914 L 11.792298,67.130841 C 11.80434,65.829467 4.2180582,56.715595 5.5210655,56.713523 Z"
       sodipodi:nodetypes="sssssssss" />
    <path
       id="path137050"
       style="fill:#c84d49;fill-opacity:1;fill-rule:evenodd;stroke:#b1c2eb;stroke-width:1.41035;stroke-linecap:square;stroke-miterlimit:4;stroke-dasharray:none;stroke-opacity:1"
       d="m 174.06812,37.073385 c 6.37211,-2.73819 14.99177,-0.21019 19.44854,7.525537 4.45678,7.735714 1.79105,17.615312 -5.95405,22.066686 -7.74511,4.451376 -17.63669,1.788882 -22.09347,-5.946839 -4.13948,-7.185008 -3.01367,-15.332046 3.23338,-20.487435 l -9.28737,-16.190947 -2.2389,-0.147439 8.63001,-4.959957 -0.99736,2.007423 z"
       sodipodi:nodetypes="cssscccccc" />
    <path
       id="path142469"
       style="fill:#17b695;fill-opacity:1;fill-rule:evenodd;stroke:#b1c2eb;stroke-width:1.41035;stroke-linecap:square;stroke-miterlimit:4;stroke-dasharray:none;stroke-opacity:1"
       d="m 131.60862,67.95048 v 0 -5e-6 c 1.58603,-1.326269 4.29434,-3.590982 5.72579,-4.787977 3.34004,-2.792995 0.84769,1.011281 2.39688,2.859418 l 23.96896,28.594232 c 3.09839,3.69629 3.03906,8.807422 -0.13302,11.459972 h -1e-5 c -3.17208,2.65254 -8.22014,1.81227 -11.31854,-1.88401 L 128.27973,75.597886 c -1.54919,-1.848138 -5.73694,-0.06643 -2.3969,-2.859418 1.43145,-1.197001 4.13974,-3.461719 5.72579,-4.787988 z"
       sodipodi:nodetypes="sccsssssssss" />
    <path
       id="path156020"
       style="fill:#bdc114;fill-opacity:1;fill-rule:evenodd;stroke:#b1c2eb;stroke-width:1.41035;stroke-linecap:square;stroke-miterlimit:4;stroke-dasharray:none;stroke-opacity:1"
       d="m 134.40668,13.14073 c 0,0 -9.24432,10.76555 -13.06736,15.235566 -0.24147,0.28234 -0.32861,0.256941 0.008,0.544646 l 13.40396,11.436165 c 0.4949,0.422254 1.2337,0.364249 1.65647,-0.130069 l 9.82732,-11.490411 c 0.42277,-0.494312 0.36858,-1.236794 -0.13022,-1.654455 l -9.77198,-8.182407 c -0.49862,-0.417871 -1.50324,-6.252664 -1.9268,-5.759028 z"
       sodipodi:nodetypes="sssssssss" />
    <path
       id="path156199"
       style="fill:#f9792b;fill-opacity:1;fill-rule:evenodd;stroke:#b1c2eb;stroke-width:1.41035;stroke-linecap:square;stroke-miterlimit:4;stroke-dasharray:none;stroke-opacity:1"
       d="m 0.7855841,22.135414 v 0 l 2.3e-6,10e-7 c 1.0244383,0.673197 2.773752,1.822739 3.6983373,2.430318 2.1573645,1.417683 -0.4416165,0.670403 -1.2486778,1.895577 L -9.251537,45.417096 c -1.614127,2.450354 -4.563045,3.339103 -6.611925,1.992705 h -3e-6 c -2.048876,-1.346392 -2.398877,-4.402981 -0.784748,-6.853338 L -4.1614299,21.60068 c 0.8070612,-1.225174 -0.9086855,-3.313259 1.2486765,-1.895577 0.9245853,0.607578 2.673899,1.757114 3.6983375,2.430311 z"
       sodipodi:nodetypes="sccsssssssss" />
    <path
       id="path156201"
       style="fill:#d33acc;fill-opacity:1;fill-rule:evenodd;stroke:#b1c2eb;stroke-width:1.41035;stroke-linecap:square;stroke-miterlimit:4;stroke-dasharray:none;stroke-opacity:1"
       d="m 98.148857,46.983389 c 7.821653,3.665309 12.589503,13.775307 9.058683,24.317102 C 103.67673,81.842296 92.258261,87.529288 81.703675,84.002749 71.149088,80.476208 65.455196,69.071566 68.986015,58.529765 72.265469,48.738448 80.794961,43.050942 90.767754,44.601606 l 7.423674,-22.026216 -1.713338,-2.205058 11.76047,3.929452 -2.69684,0.731517 z"
       sodipodi:nodetypes="cssscccccc" />
    <path
       id="path156203"
       style="fill:#28c551;fill-opacity:1;fill-rule:evenodd;stroke:#b1c2eb;stroke-width:1.41035;stroke-linecap:square;stroke-miterlimit:4;stroke-dasharray:none;stroke-opacity:1"
       d="m 56.503197,23.478379 c 0,9.611574 -7.801166,17.403298 -17.424399,17.403298 -9.623231,0 -17.424402,-7.791724 -17.424402,-17.403298 0,-9.611574 7.801171,-17.4032941 17.424402,-17.4032941 2.405805,0 4.697735,0.486984 6.782364,1.367639 1.042313,0.440324 30.555644,12.3063731 30.555644,12.3063731 v 1.243096 c 0,0 -22.164628,-6.37006 -21.282906,-4.287956 0.881723,2.082099 1.369297,4.371248 1.369297,6.774142 z"
       sodipodi:nodetypes="sssssccss" />
    <path
       id="path156205"
       style="fill:#bdc114;fill-opacity:1;fill-rule:evenodd;stroke:#b1c2eb;stroke-width:1.41035;stroke-linecap:square;stroke-miterlimit:4;stroke-dasharray:none;stroke-opacity:1"
       d="m -8.151709,109.02617 c 0,6.84935 5.5592225,12.40184 12.416876,12.40184 6.857653,0 12.416879,-5.55249 12.416879,-12.40184 0,-6.84935 -5.559226,-12.401832 -12.416879,-12.401832 -1.7144108,0 -3.3476742,0.34703 -4.8332107,0.9746 -0.7427672,0.31379 -21.7743893,8.769692 -21.7743893,8.769692 v 0.88585 c 0,0 15.7948329,-4.5394 15.166504,-3.05566 -0.628328,1.48373 -0.97578,3.11501 -0.97578,4.82735 z"
       sodipodi:nodetypes="sssssccss" />
    <path
       id="path156207"
       style="fill:#242bf1;fill-opacity:1;fill-rule:evenodd;stroke:#b1c2eb;stroke-width:1.41035;stroke-linecap:square;stroke-miterlimit:4;stroke-dasharray:none;stroke-opacity:1"
       d="m 80.87031,103.6184 v 0 0 c 0.698613,-1.20547 1.891557,-3.26391 2.522077,-4.351872 1.471215,-2.53859 0.83092,0.48038 2.34944,1.358272 l 23.494363,13.58291 c 3.03704,1.75581 4.35718,5.11028 2.95994,7.52122 v 0 c -1.39722,2.41093 -4.96706,2.93835 -8.0041,1.18253 l -23.494357,-13.5829 c -1.518517,-0.8779 -3.820646,1.18031 -2.349437,-1.35828 0.63052,-1.08798 1.823459,-3.14641 2.522074,-4.35188 z"
       sodipodi:nodetypes="sccsssssssss" />
    <path
       id="path156209"
       style="fill:#d33acc;fill-opacity:1;fill-rule:evenodd;stroke:#b1c2eb;stroke-width:1.41035;stroke-linecap:square;stroke-miterlimit:4;stroke-dasharray:none;stroke-opacity:1"
       d="m 180.07789,94.436578 c 0,0 16.64042,7.150172 23.53218,10.127632 0.43532,0.18807 0.52085,0.11012 0.29623,0.62876 l -8.92833,20.61591 c -0.32966,0.76119 -1.2086,1.10893 -1.97073,0.77967 l -17.71566,-7.65372 c -0.76212,-0.32926 -1.11732,-1.21022 -0.78062,-1.96834 l 6.59617,-14.8522 c 0.33668,-0.75812 -1.79189,-8.005752 -1.02924,-7.677712 z"
       sodipodi:nodetypes="sssssssss" />
    <g
       aria-label="Unpredictable Chemistry"
       transform="matrix(0.08565852,0,0,0.07298657,-4.3191825,28.384914)"
       id="text6748"
       style="font-size:240px;line-height:1.25;white-space:pre;shape-inside:url(#rect6750);stroke:#b1c2eb;stroke-width:11.3386;stroke-linecap:round;stroke-linejoin:round;stroke-miterlimit:4;stroke-dasharray:none;stroke-opacity:1"
       inkscape:export-filename="/home/alexander/source/Godot/godot-wild-jam-71/itch.io/logo.png"
       inkscape:export-xdpi="96"
       inkscape:export-ydpi="96">
      <path
         d="m 283.50684,314.93625 q -0.46875,-3.04688 -1.17188,-3.75 1.64063,-4.21875 2.34375,-8.20313 0.9375,-4.21875 1.40625,-7.96875 0.46875,-3.28125 0.9375,-6.09375 0.70313,-2.8125 1.64063,-5.39062 3.98437,-0.9375 5.85937,-3.28125 2.10938,-2.57813 3.28125,-4.45313 4.21875,-0.23437 5.39063,1.17188 1.40625,1.40625 3.04687,4.6875 1.17188,2.57812 3.28125,5.625 2.10938,2.8125 6.32813,4.45312 0.70312,2.57813 1.64062,4.92188 0.9375,2.34375 2.10938,4.92187 2.10937,4.92188 3.98437,10.3125 1.875,5.15625 2.10938,9.84375 -2.8125,5.39063 -4.45313,12.42188 -1.40625,7.03125 -1.875,14.29687 -0.23437,7.03125 0.46875,13.59375 0.70313,6.5625 2.34375,11.01563 l 1.40625,3.75 5.15625,-0.46875 q 8.4375,-2.10938 15.23438,-4.6875 6.79687,-2.8125 12.65625,-6.5625 5.85937,-3.75 11.25,-8.4375 5.39062,-4.92188 11.25,-11.48438 5.625,-6.5625 10.07812,-14.76562 4.45313,-8.4375 7.26563,-17.34375 3.04687,-8.90625 4.6875,-17.8125 1.64062,-8.90625 2.10937,-16.64063 4.45313,-2.10937 4.92188,-6.79687 l -0.70313,-3.04688 q -0.70312,-1.17187 -0.70312,-2.10937 0.23437,-1.17188 0.70312,-2.10938 1.875,-5.39062 7.96875,-7.96875 4.21875,2.8125 7.73438,6.09375 3.75,3.28125 6.79687,6.5625 0.46875,6.32813 1.875,11.01563 1.40625,4.45312 3.04688,8.67187 1.64062,3.98438 2.8125,7.73438 1.40625,3.75 1.875,9.14062 -2.34375,7.03125 -3.51563,13.35938 -0.9375,6.09375 -1.875,12.89062 l -0.46875,2.57813 q -4.21875,7.26562 -8.4375,15 -3.98437,7.5 -6.5625,13.125 -1.40625,1.40625 -2.57812,3.28125 -0.9375,1.875 -1.875,3.75 -0.46875,0.70312 -1.40625,2.34375 -0.70313,1.64062 -1.40625,2.34375 l -5.625,-2.10938 -1.40625,7.26563 -3.75,0.9375 -2.8125,3.28125 q -5.39063,9.375 -11.48438,15.70312 -5.85937,6.32813 -13.35937,11.25 -7.26563,4.92188 -16.64063,9.375 -9.14062,4.21875 -21.09375,9.14063 -4.6875,-0.70313 -8.20312,-0.70313 -3.28125,-0.23437 -6.5625,-0.46875 -3.28125,0 -6.32813,-0.23437 -3.04687,-0.23438 -7.03125,-0.70313 -0.9375,-2.10937 -2.57812,-3.04687 -1.64063,-0.9375 -3.04688,-0.9375 -4.6875,-2.34375 -7.03125,-6.5625 -2.34375,-4.21875 -4.92187,-9.375 -1.17188,-2.8125 -2.57813,-5.625 -1.17187,-2.8125 -3.04687,-5.39063 l 4.6875,-1.40625 -6.09375,-7.03125 q -0.70313,-0.70312 -1.64063,-1.40625 -0.70312,-0.70312 -1.40625,-1.64062 v -4.45313 q -0.9375,-19.21875 -0.9375,-35.39062 0.23438,-16.40625 4.45313,-28.82813 z"
         style="font-family:'Permanent Marker';-inkscape-font-specification:'Permanent Marker, Normal';text-align:center;text-anchor:middle;stroke:#b1c2eb;stroke-width:11.3386;stroke-linecap:round;stroke-linejoin:round;stroke-miterlimit:4;stroke-dasharray:none;stroke-opacity:1"
         id="path20703" />
      <path
         d="m 481.55371,388.29562 q -2.10937,0.46875 -3.04687,2.57813 -0.9375,1.875 -1.875,3.98437 -0.70313,2.10938 -1.64063,3.98438 -0.70312,1.64062 -2.34375,1.64062 -0.23437,1.875 -1.40625,3.28125 -0.9375,1.40625 -1.875,3.04688 -0.9375,1.40625 -1.40625,3.28125 -0.46875,1.64062 0.46875,3.98437 -1.875,1.40625 -2.34375,3.98438 -0.46875,2.57812 -1.17187,4.92187 -0.46875,2.34375 -1.875,3.98438 -1.40625,1.64062 -5.15625,1.40625 -0.70313,0.9375 -0.23438,1.17187 0.46875,0.23438 0.70313,1.64063 -2.57813,-0.46875 -3.98438,0.23437 -1.17187,0.9375 -3.04687,1.17188 -4.45313,-1.40625 -7.5,-4.92188 -2.8125,-3.51562 -5.15625,-7.73437 -2.10938,-4.45313 -3.98438,-8.90625 -1.64062,-4.45313 -3.28125,-7.73438 0.70313,-2.57812 0.23438,-4.92187 -0.46875,-2.57813 -1.64063,-4.21875 11.48438,-24.375 25.07813,-52.03125 13.59375,-27.65625 25.78125,-54.60938 5.39062,2.10938 10.54687,4.92188 5.39063,2.57812 9.60938,6.09375 4.45312,3.51562 7.5,8.20312 3.04687,4.45313 3.98437,10.07813 -0.46875,1.40625 -1.17187,1.17187 -0.46875,-0.46875 -0.9375,0.23438 0.9375,1.17187 0.9375,1.64062 0.23437,0.46875 0,0.9375 0,0.46875 0,1.40625 0,0.70313 0.70312,2.10938 -0.9375,-0.23438 -1.40625,0.23437 -0.23437,0.46875 -1.40625,0 0.9375,2.57813 0.46875,4.21875 -0.23437,1.64063 -0.9375,3.04688 -0.70312,1.17187 -1.17187,2.8125 -0.46875,1.40625 0.23437,3.75 -0.70312,0 -1.17187,0.46875 -0.23438,0.23437 -0.46875,0.70312 -0.23438,0.23438 -0.70313,0.70313 -0.23437,0.23437 -0.9375,0 0.70313,5.15625 0.46875,10.3125 -0.23437,5.15625 -0.46875,10.54687 0,5.15625 0.23438,11.01563 0.23437,5.625 1.64062,11.71875 8.4375,-4.92188 13.35938,-12.65625 5.15625,-7.73438 8.20312,-17.34375 3.28125,-9.60938 4.92188,-20.625 1.64062,-11.01563 3.51562,-22.5 2.10938,-2.10938 3.28125,-5.15625 1.17188,-3.04688 2.10938,-6.32813 0.9375,-3.51562 1.875,-6.79687 0.9375,-3.51563 2.34375,-6.32813 3.51562,0.46875 5.85937,2.34375 2.57813,1.64063 4.6875,3.75 2.10938,1.875 4.45313,3.75 2.34375,1.64063 5.85937,2.10938 2.8125,3.98437 5.15625,7.73437 2.34375,3.75 3.04688,7.96875 -1.17188,1.875 -1.875,4.21875 -0.46875,2.34375 -1.17188,4.6875 -0.70312,2.34375 -1.875,4.45313 -1.17187,1.875 -3.28125,3.28125 -0.70312,6.09375 -1.875,11.25 -0.9375,4.92187 -2.10937,9.84375 -0.9375,4.92187 -1.64063,10.3125 -0.70312,5.15625 -0.46875,11.48437 -1.875,5.39063 -3.98437,11.48438 -2.10938,6.09375 -3.28125,11.01562 -3.75,3.04688 -5.85938,7.26563 -2.10937,4.21875 -4.45312,8.4375 -0.9375,0.9375 -1.17188,0.46875 -0.23437,-0.46875 -1.64062,-0.70313 0.23437,0.9375 0,1.40625 -0.23438,0.46875 -0.70313,0.9375 -0.23437,0.23438 -0.46875,0.9375 0,0.70313 0.46875,1.875 -3.28125,1.40625 -5.85937,3.98438 -2.57813,2.57812 -5.625,4.6875 -2.8125,2.10937 -7.03125,2.8125 -3.98438,0.70312 -10.54688,-1.64063 -9.60937,-7.03125 -17.10937,-16.17187 -7.26563,-9.14063 -11.95313,-21.79688 z"
         style="font-family:'Permanent Marker';-inkscape-font-specification:'Permanent Marker, Normal';text-align:center;text-anchor:middle;stroke:#b1c2eb;stroke-width:11.3386;stroke-linecap:round;stroke-linejoin:round;stroke-miterlimit:4;stroke-dasharray:none;stroke-opacity:1"
         id="path20705" />
      <path
         d="m 657.33496,285.63937 q 9.84375,1.17188 17.57813,3.98438 7.73437,2.8125 13.125,7.5 3.75,5.85937 7.03125,12.65625 3.51562,6.79687 5.15625,14.29687 1.875,7.26563 1.64062,15 0,7.73438 -3.28125,15.70313 -6.79687,8.4375 -16.64062,13.82812 -9.60938,5.15625 -20.85938,8.4375 -11.25,3.28125 -23.4375,5.625 -11.95312,2.34375 -23.4375,4.6875 0.23438,5.39063 0,11.48438 0,5.85937 -1.17187,11.95312 -0.9375,5.85938 -3.04688,11.48438 -2.10937,5.625 -5.625,10.3125 -3.98437,0 -8.20312,0.9375 -4.21875,1.17187 -7.5,1.875 -1.64063,-0.9375 -3.04688,-1.875 -1.17187,-0.70313 -3.51562,-0.9375 0.46875,-2.34375 -1.17188,-4.6875 -1.64062,-2.57813 -3.28125,-5.15625 -1.64062,-2.57813 -2.34375,-4.92188 -0.46875,-2.34375 2.34375,-4.45312 -1.64062,-1.64063 -1.64062,-4.21875 1.64062,-2.8125 2.8125,-7.73438 1.40625,-4.92187 2.10937,-9.60937 0.9375,-4.92188 0.46875,-8.90625 -0.46875,-3.98438 -4.6875,-5.85938 0.23438,-0.46875 0.9375,-0.46875 0.70313,0 1.40625,-0.23437 -1.875,-1.40625 -2.34375,-3.98438 -0.23437,-2.57812 -1.64062,-4.45312 0.46875,-1.17188 0.70312,-2.10938 0.23438,-0.9375 1.64063,-0.70312 -0.70313,-4.21875 0,-7.96875 0.9375,-3.75 2.57812,-7.03125 1.64063,-3.51563 3.98438,-6.79688 2.34375,-3.28125 4.45312,-6.5625 1.64063,-0.23437 1.875,0.46875 0.46875,0.70313 1.64063,-0.23437 3.04687,-2.34375 4.21875,-4.92188 1.17187,-2.57812 1.17187,-5.85937 1.64063,-4.92188 3.98438,-9.84375 2.34375,-5.15625 5.15625,-9.375 2.8125,-4.21875 6.09375,-7.5 3.51562,-3.28125 7.26562,-4.92188 2.8125,-2.34375 7.03125,-4.21875 4.21875,-2.10937 9.14063,-3.04687 4.92187,-1.17188 9.84375,-1.17188 5.15625,-0.23437 9.375,0.9375 1.17187,0.46875 1.17187,-0.46875 0.23438,-0.9375 0.9375,-0.9375 z m -9.60937,56.01563 q 5.85937,-2.57813 12.42187,-3.98438 6.79688,-1.64062 11.25,-5.85937 -2.8125,-2.57813 -8.20312,-4.45313 -5.39063,-2.10937 -11.71875,-2.57812 -6.32813,-0.46875 -12.89063,1.17187 -6.32812,1.40625 -11.01562,5.625 -1.40625,4.21875 -2.34375,6.79688 -0.9375,2.34375 -2.57813,5.85937 0.46875,1.17188 1.40625,1.875 1.17188,0.46875 1.64063,1.64063 5.39062,-2.8125 10.78125,-3.04688 5.625,-0.46875 11.25,-3.04687 z"
         style="font-family:'Permanent Marker';-inkscape-font-specification:'Permanent Marker, Normal';text-align:center;text-anchor:middle;stroke:#b1c2eb;stroke-width:11.3386;stroke-linecap:round;stroke-linejoin:round;stroke-miterlimit:4;stroke-dasharray:none;stroke-opacity:1"
         id="path20707" />
      <path
         d="m 732.56934,406.57687 q -2.57813,9.375 -4.6875,14.29688 -1.875,4.6875 -5.85938,9.84375 -3.04687,-0.46875 -4.21875,0.70312 -1.17187,1.17188 -2.57812,2.10938 -2.10938,0.46875 -3.04688,0 -0.9375,-0.46875 -1.64062,-1.17188 -0.70313,-0.46875 -1.875,-1.17187 -0.9375,-0.46875 -3.04688,-0.46875 -0.46875,-1.875 -1.17187,-3.51563 -0.46875,-1.64062 -3.04688,-1.17187 0.46875,-1.875 0.23438,-3.04688 -0.23438,-1.40625 -0.70313,-2.34375 -0.23437,-1.17187 -0.46875,-2.10937 -0.23437,-1.17188 0.23438,-2.8125 -1.17188,0 -1.875,-1.64063 -0.70313,-1.64062 -1.64063,-3.28125 0.70313,-4.21875 1.40625,-7.96875 0.70313,-3.75 1.64063,-7.03125 1.17187,-3.28125 1.875,-6.5625 0.70312,-3.28125 -0.70313,-6.79687 0.9375,0.70312 1.40625,-0.23438 0.46875,-1.17187 0.70313,-2.8125 0.23437,-1.875 0.23437,-3.51562 0,-1.875 -0.23437,-3.04688 2.34375,-6.09375 3.75,-12.42187 1.64062,-6.5625 2.8125,-12.89063 1.40625,-6.32812 2.8125,-12.42187 1.40625,-6.09375 3.75,-11.25 2.57812,-0.46875 5.625,0.70312 3.28125,0.9375 3.98437,2.57813 6.09375,-4.6875 10.78125,-11.25 4.6875,-6.79688 9.60938,-13.125 4.92187,-6.32813 10.78125,-11.25 6.09375,-4.92188 15.23437,-5.85938 4.6875,3.51563 10.3125,7.26563 5.85938,3.51562 9.60938,9.375 1.875,0.9375 3.04687,2.10937 1.40625,0.9375 3.28125,2.10938 v 2.8125 q 2.8125,2.57812 4.45313,6.09375 1.875,3.28125 3.28125,7.26562 1.40625,3.75 2.8125,7.73438 1.40625,3.75 3.28125,7.26562 -0.46875,1.17188 -0.46875,2.10938 0,0.70312 0.23437,1.64062 0.46875,0.9375 0.70313,1.875 0.23437,0.9375 0,2.57813 -0.70313,10.3125 -6.79688,16.64062 -5.85937,6.32813 -14.29687,10.54688 -8.4375,3.98437 -18.04688,6.79687 -9.60937,2.8125 -17.34375,6.09375 0,0.9375 0.70313,0.9375 0.9375,0 0.70312,1.17188 5.625,3.51562 8.90625,5.625 3.28125,2.10937 6.09375,3.51562 3.04688,1.40625 6.32813,2.57813 3.51562,0.9375 9.60937,2.34375 6.09375,1.40625 9.375,2.34375 3.51563,0.70312 6.32813,1.40625 2.8125,0.46875 5.625,0.9375 3.04687,0.23437 8.4375,0.70312 2.10937,2.10938 3.51562,5.15625 1.64063,2.8125 2.10938,5.85938 0.46875,2.8125 0.23437,5.625 -0.23437,2.57812 -1.64062,4.21875 0.23437,0.70312 0.9375,0.70312 0.9375,-0.23437 1.875,0 -1.40625,0.9375 -2.34375,2.34375 -0.9375,1.40625 -1.875,2.8125 -0.9375,1.40625 -2.10938,2.34375 -1.17187,1.17188 -3.28125,1.40625 -7.26562,2.8125 -18.28125,0.23438 -11.01562,-2.34375 -27.89062,-8.90625 -8.4375,-3.28125 -13.82813,-5.625 -5.15625,-2.57813 -9.14062,-4.92188 -3.75,-2.57812 -7.03125,-5.39062 -3.04688,-2.8125 -7.5,-6.79688 z m 33.51562,-80.39062 q -2.57812,3.75 -5.85937,6.79687 -3.04688,3.04688 -6.09375,6.32813 -2.8125,3.04687 -5.15625,7.03125 -2.34375,3.75 -3.28125,8.90625 8.20312,-0.9375 17.10937,-4.45313 8.90625,-3.75 16.875,-7.03125 -0.9375,-7.26562 -5.15625,-11.71875 -3.98437,-4.45312 -8.4375,-5.85937 z"
         style="font-family:'Permanent Marker';-inkscape-font-specification:'Permanent Marker, Normal';text-align:center;text-anchor:middle;stroke:#b1c2eb;stroke-width:11.3386;stroke-linecap:round;stroke-linejoin:round;stroke-miterlimit:4;stroke-dasharray:none;stroke-opacity:1"
         id="path20709" />
      <path
         d="m 955.45996,298.99875 q 0.23438,1.64062 0,2.57812 0,0.70313 -0.23437,1.40625 0,0.70313 0,1.64063 0,0.70312 0.46875,2.34375 -4.92188,7.96875 -11.48438,11.01562 -6.32812,2.8125 -13.82812,4.21875 -7.5,1.17188 -15.46875,2.57813 -7.73438,1.40625 -15.46875,6.09375 -3.04688,-1.17188 -5.625,0 -2.34375,1.17187 -7.03125,0.70312 -1.40625,1.40625 -3.51563,2.10938 -2.10937,0.46875 -4.21875,1.17187 0.9375,2.10938 0.70313,4.45313 0,2.10937 0.70312,3.51562 8.20313,0.70313 18.04688,-0.23437 10.07812,-0.9375 19.6875,-1.17188 0.23437,1.17188 -0.23438,1.64063 -0.46875,0.23437 -0.23437,1.17187 1.64062,1.17188 3.28125,3.04688 1.64062,1.64062 3.28125,3.28125 1.64062,1.64062 3.28125,2.8125 1.875,0.9375 4.21875,0.70312 0.9375,1.875 1.17187,4.21875 0.46875,2.10938 -0.46875,4.45313 -3.75,2.57812 -7.5,5.39062 -3.75,2.57813 -7.96875,4.6875 -3.98437,2.10938 -8.67187,3.51563 -4.45313,1.17187 -10.07813,0.9375 -1.17187,0 -1.875,0 -0.46875,0 -1.40625,-0.70313 -1.875,1.17188 -5.39062,0.70313 -3.28125,-0.46875 -5.15625,0.70312 -2.57813,-1.17187 -6.32813,-0.9375 -3.51562,0 -6.32812,-0.9375 -3.75,4.92188 -6.79688,10.54688 -3.04687,5.625 -5.39062,11.95312 7.96875,1.17188 13.125,0.9375 5.39062,-0.23437 10.07812,-0.70312 4.6875,-0.70313 9.60938,-1.17188 4.92187,-0.70312 12.42187,-0.46875 4.6875,-2.57812 11.01563,-3.28125 6.5625,-0.9375 11.95312,-2.8125 1.875,0.70313 3.28125,2.57813 1.40625,1.64062 2.57813,3.28125 1.40625,1.40625 2.8125,2.57812 1.40625,1.17188 3.51562,0.9375 0.9375,0.9375 1.17188,2.34375 0.46875,1.17188 0.70312,2.34375 0.23438,1.17188 0.70313,2.10938 0.70312,0.70312 2.10937,0.46875 -3.51562,7.73437 -8.20312,11.95312 -4.45313,3.98438 -10.3125,6.09375 -5.85938,2.10938 -13.125,3.28125 -7.03125,1.17188 -15.70313,2.8125 -2.10937,0.46875 -3.51562,-0.23437 -1.40625,-0.46875 -3.28125,-0.46875 -5.39063,1.17187 -12.89063,2.10937 -7.5,0.9375 -15.23437,0.70313 -7.73438,-0.23438 -14.76563,-2.10938 -7.03125,-1.64062 -11.48437,-6.09375 -1.875,-1.64062 -2.57813,-3.75 -0.46875,-2.34375 -3.04687,-3.51562 -0.23438,-3.04688 -0.9375,-6.79688 -0.70313,-3.75 -1.40625,-7.73437 -0.70313,-4.21875 -1.17188,-8.20313 -0.23437,-3.98437 0.46875,-7.26562 0.70313,-3.51563 2.8125,-6.32813 2.34375,-2.8125 1.64063,-6.09375 1.17187,-0.23437 1.40625,-1.17187 0.23437,-1.17188 1.875,-0.9375 1.40625,-4.21875 3.04687,-7.96875 1.64063,-3.75 3.28125,-7.26563 1.875,-3.51562 3.51563,-7.03125 1.875,-3.75 3.51562,-8.20312 -3.28125,-3.04688 -4.92187,-6.5625 -1.40625,-3.75 -2.10938,-7.26563 -0.70312,-3.75 -1.17187,-7.5 -0.46875,-3.98437 -1.64063,-7.96875 2.34375,-3.51562 5.625,-5.625 3.51563,-2.34375 7.5,-3.75 3.98438,-1.40625 8.67188,-2.34375 4.6875,-0.9375 9.84375,-2.10937 9.375,-3.04688 16.64062,-4.6875 7.5,-1.64063 14.53125,-2.57813 7.26563,-1.17187 15,-2.10937 7.73438,-0.9375 17.57813,-2.8125 2.10937,2.10937 3.98437,2.10937 0.9375,-2.10937 2.10938,-1.17187 1.40625,0.70312 1.17187,-1.40625 2.34375,3.98437 5.85938,6.79687 3.75,2.57813 8.20312,4.45313 z"
         style="font-family:'Permanent Marker';-inkscape-font-specification:'Permanent Marker, Normal';text-align:center;text-anchor:middle;stroke:#b1c2eb;stroke-width:11.3386;stroke-linecap:round;stroke-linejoin:round;stroke-miterlimit:4;stroke-dasharray:none;stroke-opacity:1"
         id="path20711" />
      <path
         d="m 1065.3818,367.67062 q -0.2343,1.17188 -0.4687,2.10938 -0.2344,0.70312 -0.4688,1.40625 -0.2343,0.70312 -0.2343,1.875 0,0.9375 0,2.57812 -7.0313,12.42188 -17.8125,20.85938 -10.5469,8.4375 -23.4375,15 -12.6563,6.32812 -26.48441,11.71875 -13.82813,5.15625 -26.95313,11.25 -5.625,-1.40625 -8.67187,-4.6875 -2.8125,-3.28125 -4.45313,-7.5 -1.40625,-4.45313 -2.10937,-9.60938 -0.46875,-5.39062 -0.9375,-11.01562 0.70312,-2.57813 1.875,-4.21875 1.40625,-1.875 1.40625,-5.15625 1.875,-6.09375 3.75,-11.95313 1.875,-5.85937 2.34375,-11.95312 0.70312,-1.875 2.57812,-2.57813 1.17188,-11.25 0,-22.73437 -0.9375,-11.71875 -3.75,-21.79688 0.23438,-2.34375 0.46875,-3.28125 0.46875,-1.17187 0,-1.64062 -0.23437,-1.875 1.17188,-1.875 1.64062,0 3.28125,0 0,-3.51563 -1.40625,-7.03125 -1.17188,-3.51563 -2.34375,-7.96875 1.64062,-3.51563 2.10937,-6.79688 0.46875,-3.51562 2.10938,-6.09375 12.65625,3.98438 24.14062,9.60938 11.71874,5.625 22.96874,8.20312 8.4375,6.09375 17.3438,12.1875 8.9062,5.85938 16.1718,13.125 7.2657,7.03125 12.1875,16.17188 4.9219,9.14062 5.625,21.79687 z m -55.5468,12.89063 q 4.9218,-1.875 9.6093,-3.98438 4.9219,-2.10937 8.9063,-4.6875 4.2187,-2.8125 7.5,-6.32812 3.2812,-3.51563 5.3906,-8.4375 -1.4062,-2.8125 -3.75,-4.92188 -2.3437,-2.34375 -4.6875,-4.21875 -2.3437,-2.10937 -4.6875,-4.21875 -2.1094,-2.10937 -3.5156,-5.15625 -3.0469,-0.46875 -5.3906,-1.64062 -2.3438,-1.40625 -4.6875,-2.57813 -2.1094,-1.40625 -4.6875,-2.57812 -2.3438,-1.17188 -5.625,-1.40625 -5.15629,-2.57813 -9.37504,-3.75 -3.98437,-1.17188 -6.09375,-3.04688 -1.64062,0 -2.57812,0.70313 2.34375,8.90625 3.51562,16.875 1.17188,7.73437 1.17188,15.70312 0.23437,7.73438 -0.70313,15.9375 -0.9375,8.20313 -2.57812,17.8125 2.34375,-0.23437 4.21875,-0.9375 2.10937,-0.9375 3.98437,-1.875 2.10938,-0.9375 4.21875,-1.64062 2.34379,-0.9375 5.39059,-1.17188 0.7032,-1.40625 1.875,-2.34375 1.4063,-0.9375 2.5782,-2.10937 z"
         style="font-family:'Permanent Marker';-inkscape-font-specification:'Permanent Marker, Normal';text-align:center;text-anchor:middle;stroke:#b1c2eb;stroke-width:11.3386;stroke-linecap:round;stroke-linejoin:round;stroke-miterlimit:4;stroke-dasharray:none;stroke-opacity:1"
         id="path20713" />
      <path
         d="m 1118.8193,414.54562 q 1.1719,7.03125 -0.9375,11.01563 -1.875,3.98437 -5.625,5.85937 -3.5156,2.10938 -8.2031,2.34375 -4.6875,0.23438 -8.9062,-0.46875 -2.3438,-3.28125 -4.2188,-8.20312 -1.875,-4.92188 -3.5156,-10.07813 -1.6406,-5.39062 -3.0469,-10.54687 -1.1719,-5.15625 -2.1094,-9.14063 1.1719,-2.8125 1.4063,-6.32812 0.4687,-3.75 0.4687,-7.5 0.2344,-3.75 0.2344,-7.5 0.2344,-3.98438 0.7031,-7.5 1.6407,-9.84375 4.6875,-18.75 3.2813,-8.90625 5.1563,-18.51563 0.4687,-2.10937 -0.4688,-3.98437 -0.7031,-1.875 -0.2343,-3.51563 0.2343,-0.9375 1.4062,-1.17187 1.1719,-0.46875 1.4063,-1.64063 0.7031,-2.57812 0.2343,-4.21875 -0.2343,-1.64062 0.9375,-3.98437 1.1719,-1.875 2.8125,-5.39063 1.875,-3.75 1.4063,-7.73437 2.1094,-1.40625 3.9844,-3.28125 1.875,-1.875 3.75,-3.28125 2.1093,-1.64063 4.4531,-2.8125 2.5781,-1.17188 6.0937,-1.17188 1.875,2.34375 2.3438,5.15625 0.7031,2.8125 1.1719,5.625 0.7031,2.8125 1.875,5.39063 1.1718,2.34375 3.9843,3.75 0,1.875 0,4.6875 0,2.8125 0.2344,5.625 0.2344,2.57812 0.9375,4.92187 0.9375,2.10938 2.8125,2.8125 -4.2187,11.25 -7.9687,22.26563 -3.5157,11.01562 -5.8594,22.26562 -2.3438,11.01563 -3.0469,22.26563 -0.4687,11.25 1.6406,22.73437 z"
         style="font-family:'Permanent Marker';-inkscape-font-specification:'Permanent Marker, Normal';text-align:center;text-anchor:middle;stroke:#b1c2eb;stroke-width:11.3386;stroke-linecap:round;stroke-linejoin:round;stroke-miterlimit:4;stroke-dasharray:none;stroke-opacity:1"
         id="path20715" />
      <path
         d="m 1243.5068,431.42062 q -3.75,0.23438 -9.375,-0.23437 -5.3906,-0.46875 -10.0781,1.64062 -12.4219,-0.46875 -25.3125,-3.04687 -12.8906,-2.57813 -23.6719,-6.32813 -2.3437,-2.57812 -4.6875,-4.6875 -2.3437,-2.34375 -6.3281,-3.28125 -5.625,-4.45312 -9.1406,-10.78125 -3.5156,-6.5625 -5.625,-13.82812 -2.1094,-7.26563 -2.8125,-14.76563 -0.7031,-7.73437 -0.4688,-14.76562 3.5157,-10.54688 9.8438,-18.04688 6.5625,-7.73437 13.3594,-15.23437 3.0468,-1.40625 4.4531,-2.8125 1.6406,-1.64063 3.2812,-2.8125 1.875,-1.40625 3.5157,-2.57813 1.875,-1.40625 3.2812,-3.28125 4.9219,-1.17187 8.4375,-3.28125 3.75,-2.34375 7.2656,-4.6875 3.5157,-2.57812 7.2657,-4.6875 3.75,-2.10937 8.6718,-3.28125 1.875,-2.10937 4.4532,-3.28125 2.5781,-1.40625 5.1562,-2.57812 2.8125,-1.40625 5.1563,-2.8125 2.5781,-1.40625 3.9843,-3.75 1.1719,1.875 3.2813,1.40625 2.1094,-0.70313 3.9844,-1.40625 1.1718,-0.23438 1.875,0.46875 0.9375,0.70312 1.6406,1.40625 0.7031,0.70312 1.1719,0.9375 0.7031,0 1.1718,-1.17188 1.1719,0 0.7032,1.17188 -0.4688,1.17187 -0.7032,1.64062 1.875,-0.23437 3.0469,0.9375 1.4063,0.9375 4.2188,1.17188 0.9375,1.17187 0.4687,1.875 -0.4687,0.46875 -0.4687,1.875 7.0312,2.10937 8.9062,6.79687 1.875,4.45313 0.2344,9.375 -1.6406,4.92188 -5.8594,9.14063 -4.2187,4.21875 -9.1406,5.625 -11.25,3.04687 -21.3281,6.79687 -9.8438,3.51563 -16.1719,10.54688 -5.625,1.64062 -10.0781,4.45312 -4.2188,2.57813 -8.2032,6.09375 -3.75,3.28125 -7.2656,7.03125 -3.2812,3.51563 -7.0312,7.03125 0.2343,3.28125 -1.1719,5.15625 -1.1719,1.64063 -2.3438,3.51563 0.4688,3.51562 1.6407,6.32812 1.1718,2.57813 2.5781,5.15625 15.4687,4.6875 32.8125,5.85938 17.5781,1.17187 35.1562,1.40625 1.6407,2.34375 3.75,4.45312 2.3438,1.875 4.2188,4.21875 1.875,2.10938 3.0469,4.92188 1.1718,2.57812 0.4687,6.5625 -3.2812,3.51562 -7.2656,6.5625 -3.9844,2.8125 -7.9688,5.85937 z"
         style="font-family:'Permanent Marker';-inkscape-font-specification:'Permanent Marker, Normal';text-align:center;text-anchor:middle;stroke:#b1c2eb;stroke-width:11.3386;stroke-linecap:round;stroke-linejoin:round;stroke-miterlimit:4;stroke-dasharray:none;stroke-opacity:1"
         id="path20717" />
      <path
         d="m 1402.6475,318.2175 q -5.8594,0 -12.6563,0.9375 -6.7969,0.70312 -13.3594,1.64062 -4.6875,0.70313 -9.1406,1.17188 -4.2187,0.46875 -7.7344,0.70312 -1.6406,5.15625 -3.2812,9.14063 -1.6406,3.98437 -3.5156,7.73437 -1.875,3.98438 -3.5157,8.20313 -1.4062,3.98437 -2.8125,8.67187 -2.3437,3.75 -3.9843,7.03125 -1.4063,3.04688 -2.3438,7.03125 -2.8125,3.51563 -4.2187,7.5 -1.4063,3.75 -2.1094,6.5625 l -0.9375,2.8125 q -1.4063,1.40625 -1.6406,2.34375 -0.2344,0.70313 -1.1719,1.40625 -0.2344,2.57813 -1.6406,5.15625 -0.4688,1.17188 -0.7032,2.34375 -0.2343,0.9375 -0.2343,1.40625 0,2.34375 -1.1719,3.04688 0.2344,1.17187 0,2.57812 -0.2344,1.17188 -0.4688,2.34375 -0.7031,2.8125 -0.4687,4.45313 0.7031,0.9375 1.1719,1.64062 0.7031,0.70313 0.9375,1.875 1.4062,0.9375 2.1093,1.17188 0.9375,0.70312 2.8125,1.64062 l 2.1094,2.34375 q 1.1719,6.79688 -2.1094,10.78125 -3.5156,4.45313 -11.9531,4.45313 h -2.8125 q -1.1719,-1.17188 -1.4062,-1.875 -1.875,-0.70313 -3.0469,-1.17188 -1.1719,-0.46875 -2.1094,-1.875 -3.0469,-1.40625 -4.9219,-2.34375 L 1304.21,427.905 q 0,-2.57813 0,-2.8125 -1.6407,-2.10938 -2.5782,-4.6875 -0.7031,-2.57813 -1.1718,-5.15625 -0.4688,-2.10938 -1.1719,-3.98438 -0.4688,-1.875 -1.4063,-3.28125 -0.4687,-13.59375 2.5782,-22.96875 3.0468,-9.375 6.3281,-18.04687 1.875,-4.6875 3.75,-9.375 1.875,-4.92188 3.2812,-10.07813 l 2.1094,-2.34375 q 1.6406,-3.75 2.5781,-6.09375 1.1719,-2.57812 2.3438,-5.15625 0.7031,-1.64062 1.1719,-3.04687 0.7031,-1.64063 1.1718,-2.8125 -1.4062,0 -2.5781,0.23437 -1.1719,0 -2.3437,0.23438 -1.4063,0.23437 -2.5782,0.46875 -1.1718,0 -2.3437,0 -1.6406,0 -2.3438,-0.23438 -2.5781,1.17188 -5.625,1.17188 h -2.3437 q -0.7031,0 -1.4063,0 -0.4687,-0.23438 -0.9375,-0.23438 -2.3437,0 -3.75,0.70313 -2.8125,0 -5.3906,0 h -2.3437 q -0.4688,0 -1.1719,0.23437 -0.7031,0 -1.1719,0 -1.6406,0 -3.5156,-0.23437 -1.875,-0.46875 -3.9844,-1.64063 -2.8125,-3.75 -3.75,-3.98437 l -2.1094,-2.8125 q -0.2343,-1.40625 -0.7031,-2.57813 -0.4687,-1.40625 -0.9375,-3.04687 -0.9375,-2.34375 -1.875,-4.92188 -0.7031,-2.8125 -0.7031,-6.5625 0.2344,-1.875 0.9375,-2.8125 0.7031,-0.9375 1.1719,-1.64062 l 0.7031,-3.51563 3.0469,0.23438 h 6.5625 q 7.5,0 15.2343,-0.46875 7.7344,-0.70313 15.9375,-1.40625 4.6875,-0.46875 9.375,-0.9375 4.9219,-0.46875 10.0782,-0.9375 0.9375,-2.10938 1.875,-3.98438 l 2.3437,-1.17187 q 4.2188,-0.23438 5.8594,1.17187 1.875,1.17188 3.0469,2.34375 5.1562,-0.46875 10.3125,-0.9375 5.3906,-0.70312 10.7812,-1.64062 7.9688,-1.17188 15.9375,-2.10938 8.2031,-0.9375 15.7031,-0.9375 3.2813,0 6.3282,0.23438 3.0468,0.23437 5.625,0.70312 l 2.3437,1.64063 q 0.7031,1.40625 1.875,2.57812 1.4063,1.17188 2.8125,2.34375 2.8125,2.57813 5.625,6.09375 2.8125,3.51563 2.1094,10.3125 -1.875,2.8125 -2.8125,3.28125 l -2.1094,2.8125 -2.3437,-0.23437 q -1.4063,0 -2.5782,0.46875 -1.1718,0.23437 -2.3437,0.70312 -0.9375,0.46875 -1.875,0.9375 -0.9375,0.23438 -2.1094,0.46875 -2.1094,0 -3.5156,0 -1.1719,-0.23437 -2.5781,-0.23437 z"
         style="font-family:'Permanent Marker';-inkscape-font-specification:'Permanent Marker, Normal';text-align:center;text-anchor:middle;stroke:#b1c2eb;stroke-width:11.3386;stroke-linecap:round;stroke-linejoin:round;stroke-miterlimit:4;stroke-dasharray:none;stroke-opacity:1"
         id="path20719" />
      <path
         d="m 1496.3975,411.26437 q -1.4063,3.98438 -4.2188,8.20313 -2.5781,3.98437 -6.3281,7.26562 -3.5156,3.04688 -7.9688,5.15625 -4.4531,2.10938 -9.375,2.34375 -3.0468,-0.70312 -4.2187,-1.64062 -0.9375,-0.70313 -2.1094,-1.40625 -0.7031,-0.46875 -1.4062,-0.70313 -0.4688,-0.46875 -0.9375,-0.70312 l -2.8125,-1.17188 0.9375,-3.04687 q 0.4687,-1.875 -0.2344,-2.8125 -0.7031,-1.17188 -2.8125,-3.04688 -0.7031,-0.70312 -1.4063,-1.40625 -0.7031,-0.70312 -1.1718,-1.40625 l -3.9844,-4.45312 6.3281,-1.64063 q 5.8594,-1.64062 7.7344,-4.21875 2.1094,-2.57812 1.6406,-8.67187 -4.6875,-0.9375 -7.9687,-0.23438 -3.0469,0.70313 -6.3282,1.64063 -4.2187,1.17187 -8.6718,2.10937 -4.2188,0.70313 -9.375,0.70313 -1.875,0 -3.5157,0 -1.6406,-0.23438 -3.5156,-0.46875 l -2.3437,-0.46875 q -0.4688,-2.57813 -0.9375,-2.8125 -0.4688,-0.46875 -0.9375,-0.9375 -1.1719,-1.17188 -2.5782,-3.04688 -1.1718,-2.10937 -0.4687,-5.15625 -1.1719,-2.10937 -1.4063,-4.21875 -1.4062,2.8125 -2.1093,5.85938 l -0.9375,2.34375 -2.3438,0.46875 q -0.4687,0.23437 -0.7031,1.17187 -0.2344,0.70313 -0.2344,1.17188 l -1.1719,3.98437 q -0.4687,0.46875 -0.9375,0.9375 -0.4687,0.23438 -0.9375,0.70313 -0.4687,2.10937 -1.1718,4.21875 -0.7032,2.10937 -1.4063,3.98437 -1.1719,3.04688 -2.1094,6.09375 -0.7031,2.8125 -0.4687,5.625 l -0.9375,2.57813 q -1.1719,1.40625 -2.5781,2.34375 -1.4063,0.70312 -2.8125,1.40625 -0.4688,0.46875 -1.4063,0.9375 -0.7031,0.23437 -1.1719,0.46875 l -0.7031,2.57812 -2.8125,0.46875 q -2.5781,0.46875 -3.75,0.70313 -0.9375,0.23437 -2.3437,0.23437 l -2.3438,-0.23437 q -2.5781,-2.10938 -3.9844,-3.28125 -1.4062,-1.40625 -3.2812,-2.57813 -2.1094,-2.8125 -2.3438,-4.21875 -0.2343,-1.40625 -0.4687,-2.57812 -0.4688,-1.40625 -0.4688,-2.34375 -0.2343,-0.9375 -0.7031,-1.40625 l -3.0469,-2.8125 2.5782,-2.10938 0.2343,-3.98437 q 4.6875,-11.95313 9.8438,-22.96875 5.3906,-11.01563 11.0156,-22.5 1.875,-3.75 3.5156,-7.5 1.875,-3.75 3.75,-7.5 -0.2343,-0.70313 -0.2343,-1.64063 0,-0.9375 0.4687,-2.10937 2.5781,-3.98438 4.2188,-7.03125 1.6406,-3.28125 3.2812,-6.5625 1.875,-3.98438 3.75,-7.73438 2.1094,-3.75 5.1563,-7.73437 l 3.75,-1.64063 q 0.7031,-0.23437 1.6406,-0.46875 0.9375,-0.46875 2.1094,-0.46875 l 3.5156,0.46875 q 6.5625,-3.04687 11.4844,-8.4375 4.9218,-5.625 10.0781,-13.35937 l 2.3437,-3.28125 3.0469,1.875 q 1.1719,0.70312 3.2813,1.40625 2.1093,0.46875 4.4531,1.17187 4.2187,0.9375 7.9687,2.10938 3.75,1.17187 6.0938,3.51562 1.4062,3.75 1.6406,5.625 0.2344,1.875 0.7031,3.75 0.7032,3.98438 1.1719,7.96875 0.7031,3.98438 0.9375,8.90625 1.1719,3.98438 1.875,7.96875 0.9375,3.75 1.6406,7.73438 1.1719,5.625 2.3438,11.01562 1.1719,5.15625 3.0469,9.84375 1.875,0 2.3437,0.23438 1.1719,-0.46875 2.3438,-0.70313 1.4062,-0.23437 3.0468,-0.46875 l 2.5782,-0.23437 0.9375,2.34375 q 0.2343,1.17187 2.3437,2.34375 3.0469,0.23437 4.4531,1.40625 1.4063,0.9375 2.5782,2.10937 0.9375,0.9375 1.875,1.40625 l 3.5156,1.40625 -1.875,3.51563 q -2.3438,4.21875 -6.7969,8.20312 -4.2187,3.75 -9.6094,6.32813 0.2344,1.40625 0.2344,2.8125 0.2344,1.17187 0.7031,2.57812 0.7032,3.98438 1.1719,8.20313 0.4688,4.21875 0,8.67187 z m -67.7344,-40.54687 q 7.0312,-0.46875 12.6562,-0.9375 5.8594,-0.70313 12.8907,-2.10938 -1.6407,-7.03125 -3.5157,-14.53125 -1.875,-7.73437 -3.9843,-15.23437 l -1.4063,2.34375 q -4.6875,4.92187 -9.1406,11.01562 -4.2188,6.09375 -7.2656,11.48438 -1.4063,2.10937 -2.8125,4.21875 -1.4063,2.10937 -2.5782,4.21875 1.4063,-0.23438 2.5782,-0.23438 1.4062,0 2.5781,-0.23437 z"
         style="font-family:'Permanent Marker';-inkscape-font-specification:'Permanent Marker, Normal';text-align:center;text-anchor:middle;stroke:#b1c2eb;stroke-width:11.3386;stroke-linecap:round;stroke-linejoin:round;stroke-miterlimit:4;stroke-dasharray:none;stroke-opacity:1"
         id="path20721" />
      <path
         d="m 1635.8506,392.74875 q 1.4062,0.70312 1.6406,2.34375 0.2344,1.64062 0,2.57812 -4.2187,5.39063 -5.8594,7.5 -1.6406,2.10938 -2.3437,3.28125 -0.7031,0.9375 -1.6406,1.64063 -0.7032,0.70312 -3.5157,3.04687 -10.5468,6.32813 -21.7968,11.25 -11.0157,4.92188 -23.2032,6.79688 -1.875,2.57812 -7.2656,3.51562 -5.1562,1.17188 -9.6094,2.10938 -0.9375,-0.46875 -1.1718,-1.40625 0,-0.70313 -0.9375,-1.17188 -0.2344,2.34375 -2.1094,2.34375 -1.875,0.23438 -4.6875,-0.9375 -2.5781,-0.9375 -5.625,-2.8125 -2.8125,-1.64062 -4.9219,-3.04687 -1.1719,1.875 -2.5781,3.75 -1.1719,1.875 -3.0469,2.57812 -2.5781,-0.46875 -3.9844,-0.70312 -1.1718,-0.23438 -2.3437,0.9375 -1.4063,-0.70313 -2.3438,-1.64063 -0.7031,-0.9375 -1.6406,-1.875 -0.7031,-0.70312 -1.875,-1.40625 -0.9375,-0.70312 -2.8125,-1.17187 0.4688,-0.9375 -0.4687,-2.8125 -0.9375,-2.10938 -2.8125,-2.57813 0.9375,-1.64062 -0.9375,-3.98437 -1.6407,-2.57813 -2.5782,-5.625 0.4688,-2.57813 0.7032,-5.625 0.2343,-3.04688 2.8125,-3.51563 -0.2344,-1.64062 -0.7032,-2.8125 -0.4687,-1.17187 -0.9375,-2.34375 1.6407,-1.40625 2.3438,-3.28125 0.7031,-2.10937 1.1719,-4.21875 0.4687,-2.10937 1.1718,-4.21875 0.7032,-2.10937 2.5782,-3.51562 2.1093,-7.03125 3.2812,-10.3125 1.1719,-3.51563 1.6406,-6.79688 0.7032,-3.28125 1.4063,-7.03125 0.9375,-3.75 3.0469,-9.375 -0.2344,-3.51562 0.7031,-6.09375 0.9375,-2.8125 1.875,-5.39062 1.1719,-2.8125 1.875,-5.625 0.7031,-3.04688 -0.2344,-7.03125 -3.2812,0.23437 -4.6875,2.34375 -1.4062,1.875 -1.875,5.15625 -1.875,1.875 -4.6875,1.875 -2.5781,-0.23438 -4.6875,0.46875 -8.2031,-3.28125 -13.5937,-9.375 -5.3907,-6.09375 -8.6719,-14.29688 2.1094,-5.39062 6.3281,-8.90625 4.2188,-3.75 9.6094,-6.09375 5.3906,-2.57812 11.4844,-3.98437 6.0937,-1.64063 11.7187,-3.04688 9.1406,-1.64062 18.2813,-3.75 9.1406,-2.10937 19.6875,-1.40625 1.4062,-0.70312 3.2812,-0.70312 2.1094,-0.23438 4.2188,-0.23438 2.1093,0 3.9843,0 2.1094,-0.23437 3.5157,-0.9375 1.1718,1.40625 3.2812,1.875 2.3438,0.23438 4.9219,2.10938 2.8125,-2.10938 4.6875,-0.9375 2.1094,1.17187 3.75,2.57812 1.6406,1.40625 3.0469,2.57813 1.6406,1.17187 3.2812,1.17187 1.6406,2.10938 3.9844,3.98438 2.5781,1.875 4.6875,3.98437 2.3437,1.875 3.75,4.21875 1.6406,2.34375 1.6406,5.39063 -0.2344,1.17187 0.7031,1.40625 0.9375,0.23437 1.4063,0.9375 0.2344,7.26562 -2.3438,12.65625 -2.3437,5.15625 -6.0937,9.60937 -3.5156,4.45313 -7.9688,8.4375 -4.2187,3.98438 -7.7343,8.4375 2.3437,3.04688 5.3906,5.39063 3.0469,2.34375 6.0937,4.6875 3.2813,2.34375 6.0938,4.92187 2.8125,2.57813 4.6875,6.09375 0.4687,0.46875 1.1719,0.9375 0.7031,0.23438 1.4062,0.70313 0.7031,2.34375 1.875,4.92187 1.1719,2.34375 1.875,4.6875 0.9375,2.10938 1.1719,3.98438 0.2344,1.64062 -0.9375,2.8125 z m -41.25,-78.28125 q -11.9531,-0.46875 -23.9063,2.10937 -11.7187,2.57813 -19.6875,7.26563 3.9844,3.28125 7.9688,5.85937 4.2187,2.57813 6.5625,7.03125 9.1406,-3.75 16.1719,-9.375 7.0312,-5.85937 12.8906,-12.89062 z m 3.0469,74.76562 q 0.7031,-2.34375 2.5781,-3.75 1.875,-1.40625 3.75,-2.57812 1.875,-1.40625 3.2812,-2.8125 1.4063,-1.64063 1.1719,-4.45313 -7.5,-3.98437 -13.8281,-4.6875 -6.0938,-0.9375 -11.7188,0 -5.3906,0.70313 -10.5468,2.34375 -4.9219,1.64063 -10.0782,2.34375 -2.5781,6.79688 -5.3906,14.76563 -2.8125,7.96875 -5.3906,15.46875 7.0312,-0.9375 12.8906,-2.8125 5.8594,-2.10938 11.25,-4.45313 5.625,-2.34375 10.7813,-4.6875 5.3906,-2.57812 11.25,-4.6875 z"
         style="font-family:'Permanent Marker';-inkscape-font-specification:'Permanent Marker, Normal';text-align:center;text-anchor:middle;stroke:#b1c2eb;stroke-width:11.3386;stroke-linecap:round;stroke-linejoin:round;stroke-miterlimit:4;stroke-dasharray:none;stroke-opacity:1"
         id="path20723" />
      <path
         d="m 1706.6318,428.37375 q -6.5625,2.10937 -14.2968,4.21875 -7.7344,2.10937 -15.4688,2.10937 -11.7187,0 -18.5156,-5.85937 -1.1719,-2.57813 -2.1094,-3.51563 -0.7031,-0.9375 -1.4062,-1.875 -0.4688,-1.17187 -0.7032,-3.04687 -2.8125,-3.28125 -4.4531,-7.5 -1.6406,-4.45313 -2.3437,-8.90625 -0.4688,-4.6875 -0.2344,-9.375 0.4687,-4.6875 1.6406,-8.90625 0.4688,-0.9375 0.4688,-1.875 0.2343,-0.9375 0.4687,-2.10938 0.9375,-3.75 1.875,-7.26562 1.1719,-3.51563 3.0469,-6.09375 -0.9375,-2.10938 0,-4.6875 0.9375,-2.57813 2.1094,-4.6875 3.2812,-8.90625 5.3906,-15 2.3437,-6.32813 4.6875,-12.42188 3.9844,-10.54687 7.5,-20.85937 3.5156,-10.3125 6.3281,-22.26563 1.875,-1.17187 2.8125,-1.64062 1.4063,-0.46875 2.3438,-0.70313 4.2187,2.10938 9.8437,4.21875 5.625,1.875 9.375,1.875 1.875,1.17188 2.3438,1.875 0.4687,0.46875 0.9375,0.9375 2.5781,3.04688 4.4531,6.32813 1.875,3.04687 1.1719,8.20312 -1.4063,2.10938 -2.1094,2.10938 -1.1719,4.6875 -2.5781,7.96875 -1.1719,3.28125 -2.5782,6.5625 -1.6406,3.51562 -3.0468,7.03125 -1.4063,3.51562 -2.3438,8.67187 -0.9375,1.17188 -1.4062,2.10938 -0.2344,0.9375 -0.7032,2.10937 -0.4687,1.17188 -1.1718,2.57813 -0.4688,1.17187 -1.6407,2.10937 -0.7031,6.09375 -2.3437,9.84375 -1.4063,3.75 -3.0469,7.5 -2.8125,6.79688 -5.1562,13.59375 -2.1094,6.79688 -2.5782,15.46875 1.1719,-0.46875 2.1094,-0.46875 1.1719,0 2.1094,0 2.1094,0 4.9219,0.70313 7.0312,-3.75 15.2343,-4.45313 8.4375,-0.70312 16.6407,-0.9375 3.2812,0 6.5625,0 3.2812,0 6.0937,-0.46875 2.1094,1.17188 2.5781,1.40625 0.7032,0 1.875,0 1.6407,0 2.8125,0.23438 2.8125,2.57812 5.3907,3.75 2.5781,1.17187 5.3906,2.10937 2.5781,0.9375 4.9219,2.10938 2.5781,0.9375 4.9218,2.8125 l 1.6407,10.07812 q 1.6406,2.10938 1.4062,2.8125 0,1.875 -0.9375,2.8125 l 0.4688,2.57813 q -3.5157,0.70312 -4.9219,1.64062 -1.1719,0.9375 -2.3438,2.10938 -1.875,0.23437 -2.8125,0.23437 -0.7031,0 -1.4062,0 -3.2813,0 -7.9688,1.17188 -6.3281,-2.10938 -13.125,-2.10938 -2.5781,0 -5.3906,0.23438 -2.8125,0.23437 -5.625,0.46875 -2.8125,0.46875 -5.8594,0.70312 -2.8125,0.23438 -5.8593,0.23438 z"
         style="font-family:'Permanent Marker';-inkscape-font-specification:'Permanent Marker, Normal';text-align:center;text-anchor:middle;stroke:#b1c2eb;stroke-width:11.3386;stroke-linecap:round;stroke-linejoin:round;stroke-miterlimit:4;stroke-dasharray:none;stroke-opacity:1"
         id="path20725" />
      <path
         d="m 1903.5068,298.99875 q 0.2344,1.64062 0,2.57812 0,0.70313 -0.2343,1.40625 0,0.70313 0,1.64063 0,0.70312 0.4687,2.34375 -4.9219,7.96875 -11.4844,11.01562 -6.3281,2.8125 -13.8281,4.21875 -7.5,1.17188 -15.4687,2.57813 -7.7344,1.40625 -15.4688,6.09375 -3.0469,-1.17188 -5.625,0 -2.3437,1.17187 -7.0312,0.70312 -1.4063,1.40625 -3.5157,2.10938 -2.1093,0.46875 -4.2187,1.17187 0.9375,2.10938 0.7031,4.45313 0,2.10937 0.7031,3.51562 8.2032,0.70313 18.0469,-0.23437 10.0781,-0.9375 19.6875,-1.17188 0.2344,1.17188 -0.2344,1.64063 -0.4687,0.23437 -0.2343,1.17187 1.6406,1.17188 3.2812,3.04688 1.6406,1.64062 3.2813,3.28125 1.6406,1.64062 3.2812,2.8125 1.875,0.9375 4.2188,0.70312 0.9375,1.875 1.1718,4.21875 0.4688,2.10938 -0.4687,4.45313 -3.75,2.57812 -7.5,5.39062 -3.75,2.57813 -7.9688,4.6875 -3.9843,2.10938 -8.6718,3.51563 -4.4532,1.17187 -10.0782,0.9375 -1.1718,0 -1.875,0 -0.4687,0 -1.4062,-0.70313 -1.875,1.17188 -5.3906,0.70313 -3.2813,-0.46875 -5.1563,0.70312 -2.5781,-1.17187 -6.3281,-0.9375 -3.5156,0 -6.3281,-0.9375 -3.75,4.92188 -6.7969,10.54688 -3.0469,5.625 -5.3906,11.95312 7.9687,1.17188 13.125,0.9375 5.3906,-0.23437 10.0781,-0.70312 4.6875,-0.70313 9.6094,-1.17188 4.9218,-0.70312 12.4218,-0.46875 4.6875,-2.57812 11.0157,-3.28125 6.5625,-0.9375 11.9531,-2.8125 1.875,0.70313 3.2812,2.57813 1.4063,1.64062 2.5782,3.28125 1.4062,1.40625 2.8125,2.57812 1.4062,1.17188 3.5156,0.9375 0.9375,0.9375 1.1719,2.34375 0.4687,1.17188 0.7031,2.34375 0.2344,1.17188 0.7031,2.10938 0.7031,0.70312 2.1094,0.46875 -3.5156,7.73437 -8.2031,11.95312 -4.4532,3.98438 -10.3125,6.09375 -5.8594,2.10938 -13.125,3.28125 -7.0313,1.17188 -15.7032,2.8125 -2.1093,0.46875 -3.5156,-0.23437 -1.4062,-0.46875 -3.2812,-0.46875 -5.3907,1.17187 -12.8907,2.10937 -7.5,0.9375 -15.2343,0.70313 -7.7344,-0.23438 -14.7657,-2.10938 -7.0312,-1.64062 -11.4843,-6.09375 -1.875,-1.64062 -2.5782,-3.75 -0.4687,-2.34375 -3.0468,-3.51562 -0.2344,-3.04688 -0.9375,-6.79688 -0.7032,-3.75 -1.4063,-7.73437 -0.7031,-4.21875 -1.1719,-8.20313 -0.2343,-3.98437 0.4688,-7.26562 0.7031,-3.51563 2.8125,-6.32813 2.3437,-2.8125 1.6406,-6.09375 1.1719,-0.23437 1.4063,-1.17187 0.2343,-1.17188 1.875,-0.9375 1.4062,-4.21875 3.0468,-7.96875 1.6407,-3.75 3.2813,-7.26563 1.875,-3.51562 3.5156,-7.03125 1.875,-3.75 3.5156,-8.20312 -3.2812,-3.04688 -4.9218,-6.5625 -1.4063,-3.75 -2.1094,-7.26563 -0.7031,-3.75 -1.1719,-7.5 -0.4687,-3.98437 -1.6406,-7.96875 2.3437,-3.51562 5.625,-5.625 3.5156,-2.34375 7.5,-3.75 3.9844,-1.40625 8.6719,-2.34375 4.6875,-0.9375 9.8437,-2.10937 9.375,-3.04688 16.6406,-4.6875 7.5,-1.64063 14.5313,-2.57813 7.2656,-1.17187 15,-2.10937 7.7344,-0.9375 17.5781,-2.8125 2.1094,2.10937 3.9844,2.10937 0.9375,-2.10937 2.1094,-1.17187 1.4062,0.70312 1.1718,-1.40625 2.3438,3.98437 5.8594,6.79687 3.75,2.57813 8.2031,4.45313 z"
         style="font-family:'Permanent Marker';-inkscape-font-specification:'Permanent Marker, Normal';text-align:center;text-anchor:middle;stroke:#b1c2eb;stroke-width:11.3386;stroke-linecap:round;stroke-linejoin:round;stroke-miterlimit:4;stroke-dasharray:none;stroke-opacity:1"
         id="path20727" />
      <path
         d="m 538.27246,746.78268 q -6.79687,-5.15625 -11.25,-12.89062 -4.21875,-7.73438 -6.79687,-16.40625 -2.34375,-8.67188 -3.28125,-17.8125 -0.70313,-9.375 -0.46875,-17.8125 2.10937,-6.32813 5.15625,-11.48438 3.04687,-5.39062 6.79687,-10.07812 3.75,-4.92188 7.73438,-9.14063 4.21875,-4.45312 8.20312,-8.90625 1.40625,0 2.57813,0.70313 0.9375,-2.57813 2.8125,-4.45313 1.875,-1.875 3.98437,-3.28125 2.10938,-1.64062 4.21875,-3.04687 2.10938,-1.64063 3.51563,-3.75 5.85937,-1.40625 10.3125,-3.98438 4.6875,-2.57812 8.90625,-5.625 4.21875,-3.04687 8.67187,-5.625 4.45313,-2.57812 10.3125,-3.98437 2.10938,-2.34375 5.15625,-3.98438 3.28125,-1.64062 6.32813,-3.04687 3.28125,-1.40625 6.09375,-3.04688 3.04687,-1.64062 4.92187,-4.45312 1.40625,1.875 3.98438,1.40625 2.57812,-0.70313 4.6875,-1.40625 1.40625,-0.23438 2.34375,0.46875 0.9375,0.70312 1.64062,1.64062 0.9375,0.70313 1.40625,0.9375 0.70313,0.23438 1.40625,-1.40625 1.875,0.23438 0.9375,1.64063 -0.70312,1.40625 -0.9375,1.875 2.34375,-0.46875 3.75,0.9375 1.64063,1.17187 4.92188,1.64062 1.17187,1.17188 0.70312,1.875 -0.46875,0.70313 -0.70312,2.34375 8.4375,2.57813 10.78125,8.20313 2.34375,5.39062 0.46875,11.48437 -1.875,5.85938 -7.03125,11.01563 -4.92188,4.92187 -11.01563,6.5625 -7.26562,1.875 -13.59375,3.75 -6.09375,1.875 -11.95312,4.21875 -5.625,2.34375 -10.78125,5.625 -4.92188,3.04687 -8.67188,7.26562 -6.5625,1.875 -11.95312,5.15625 -5.15625,3.28125 -9.84375,7.26563 -4.45313,3.98437 -8.67188,8.4375 -4.21875,4.21875 -8.4375,8.4375 0,3.98437 -1.40625,6.09375 -1.40625,2.10937 -3.04687,4.21875 0.46875,4.45312 1.875,7.73437 1.64062,3.04688 3.28125,6.32813 18.75,5.625 39.60937,7.03125 21.09375,1.17187 41.71875,1.40625 2.10938,2.8125 4.6875,5.39062 2.8125,2.34375 4.92188,4.92188 2.34375,2.57812 3.51562,6.09375 1.40625,3.28125 0.70313,7.96875 -3.98438,3.98437 -8.67188,7.73437 -4.6875,3.51563 -9.375,7.03125 -2.10937,0.23438 -5.15625,0 -2.8125,-0.23437 -6.09375,-0.23437 -3.04687,0 -6.32812,0.46875 -3.04688,0.23437 -5.85938,1.40625 -14.76562,-0.46875 -30.23437,-3.51563 -15.46875,-3.28125 -28.59375,-7.73437 -2.57813,-3.04688 -5.39063,-5.625 -2.8125,-2.8125 -7.5,-3.98438 z"
         style="font-family:'Permanent Marker';-inkscape-font-specification:'Permanent Marker, Normal';text-align:center;text-anchor:middle;stroke:#b1c2eb;stroke-width:11.3386;stroke-linecap:round;stroke-linejoin:round;stroke-miterlimit:4;stroke-dasharray:none;stroke-opacity:1"
         id="path20729" />
      <path
         d="m 783.19434,744.43893 q 0.46875,6.09375 -1.40625,10.07813 -1.875,3.98437 -5.15625,6.79687 -3.28125,2.8125 -7.5,4.45313 -4.21875,1.64062 -8.20313,3.04687 -1.875,-1.17187 -3.75,-2.34375 -1.64062,-1.40625 -3.98437,-2.10937 -3.04688,-5.625 -5.85938,-9.84375 -2.8125,-4.45313 -2.57812,-10.07813 0,-0.23437 0.23437,-2.57812 0.46875,-2.34375 0.9375,-5.15625 0.70313,-2.8125 0.9375,-5.15625 0.46875,-2.57813 0.46875,-2.8125 -5.39062,0.46875 -11.25,2.34375 -5.85937,1.875 -11.48437,4.45312 -5.39063,2.57813 -10.3125,5.15625 -4.6875,2.57813 -7.73438,4.45313 0,0.70312 -0.9375,3.51562 -0.9375,2.57813 -2.34375,5.625 -1.40625,2.8125 -3.04687,5.15625 -1.64063,2.34375 -3.28125,2.34375 0.23437,0.70313 0.70312,1.40625 0.46875,0.70313 0,1.875 -3.28125,0.9375 -5.85937,2.34375 -2.57813,1.64063 -5.39063,2.57813 -2.8125,1.17187 -6.09375,1.17187 -3.28125,0 -7.73437,-2.34375 0,-1.40625 -1.17188,-2.34375 -1.17187,-1.17187 -2.57812,-1.875 -1.17188,-0.9375 -2.10938,-1.40625 -0.9375,-0.70312 -0.9375,-1.17187 -1.17187,0.23437 -0.9375,-1.64063 0.23438,-1.875 1.875,-0.9375 -2.57812,-3.28125 -3.28125,-5.625 -0.46875,-2.57812 -2.57812,-6.32812 0.46875,-0.46875 0.9375,-1.64063 0.23437,-1.17187 0.46875,-2.10937 0.23437,-0.9375 0.70312,-1.40625 0.46875,-0.46875 1.17188,0.23437 -0.46875,-2.10937 0,-3.51562 0.46875,-1.40625 0.9375,-2.57813 0.46875,-1.17187 0.70312,-2.34375 0.23438,-1.17187 -0.70312,-2.57812 3.75,-5.15625 4.92187,-11.01563 1.17188,-6.09375 1.40625,-11.01562 1.64063,-1.64063 2.8125,-4.6875 1.40625,-3.04688 2.10938,-6.09375 0.70312,-3.28125 0.46875,-6.09375 0,-3.04688 -0.70313,-4.92188 0.23438,-1.17187 2.57813,-0.70312 1.40625,-7.73438 1.875,-17.34375 0.70312,-9.84375 2.10937,-18.51563 1.40625,-8.90625 4.6875,-15.46875 3.28125,-6.79687 10.54688,-8.90625 1.40625,4.92188 3.51562,8.67188 2.34375,3.75 4.92188,7.26562 2.8125,3.28125 5.39062,6.79688 2.8125,3.51562 5.15625,7.96875 -0.23437,4.45312 -0.9375,10.3125 -0.70312,5.85937 -1.875,11.95312 -0.9375,6.09375 -2.10937,11.71875 -0.9375,5.625 -1.875,9.60938 0.23437,1.17187 1.17187,1.40625 1.17188,0.23437 0.46875,2.10937 5.625,-1.40625 11.71875,-2.57812 6.09375,-1.17188 12.1875,-2.57813 6.09375,-1.40625 11.71875,-3.04687 5.85938,-1.875 10.78125,-4.45313 1.17188,-9.14062 3.04688,-18.28125 1.875,-9.14062 0.46875,-18.75 1.17187,-0.9375 1.875,-2.34375 0.70312,-1.40625 2.34375,-1.875 -1.17188,-4.45312 -0.9375,-9.375 0.23437,-4.92187 1.64062,-9.375 1.64063,-4.45312 4.45313,-7.5 3.04687,-3.28125 7.26562,-4.21875 2.57813,3.75 4.45313,8.20313 1.875,4.21875 3.75,8.67187 2.10937,4.21875 4.21875,8.20313 2.34375,3.75 5.85937,6.5625 0.70313,6.79687 0.9375,14.0625 0.46875,7.26562 0.70313,14.76562 -1.875,8.90625 -4.21875,17.34375 -2.10938,8.20313 -3.04688,17.57813 -1.64062,1.875 -2.57812,4.21875 -0.9375,2.34375 -1.875,4.92187 -0.9375,2.34375 -2.10938,4.6875 -1.17187,2.10938 -2.8125,3.75 0.9375,2.8125 0.23438,5.39063 -0.46875,2.34375 1.40625,5.85937 z"
         style="font-family:'Permanent Marker';-inkscape-font-specification:'Permanent Marker, Normal';text-align:center;text-anchor:middle;stroke:#b1c2eb;stroke-width:11.3386;stroke-linecap:round;stroke-linejoin:round;stroke-miterlimit:4;stroke-dasharray:none;stroke-opacity:1"
         id="path20731" />
      <path
         d="m 933.66309,635.22018 q 0.23437,1.64063 0,2.57813 0,0.70312 -0.23438,1.40625 0,0.70312 0,1.64062 0,0.70313 0.46875,2.34375 -4.92187,7.96875 -11.48437,11.01563 -6.32813,2.8125 -13.82813,4.21875 -7.5,1.17187 -15.46875,2.57812 -7.73437,1.40625 -15.46875,6.09375 -3.04687,-1.17187 -5.625,0 -2.34375,1.17188 -7.03125,0.70313 -1.40625,1.40625 -3.51562,2.10937 -2.10938,0.46875 -4.21875,1.17188 0.9375,2.10937 0.70312,4.45312 0,2.10938 0.70313,3.51563 8.20312,0.70312 18.04687,-0.23438 10.07813,-0.9375 19.6875,-1.17187 0.23438,1.17187 -0.23437,1.64062 -0.46875,0.23438 -0.23438,1.17188 1.64063,1.17187 3.28125,3.04687 1.64063,1.64063 3.28125,3.28125 1.64063,1.64063 3.28125,2.8125 1.875,0.9375 4.21875,0.70313 0.9375,1.875 1.17188,4.21875 0.46875,2.10937 -0.46875,4.45312 -3.75,2.57813 -7.5,5.39063 -3.75,2.57812 -7.96875,4.6875 -3.98438,2.10937 -8.67188,3.51562 -4.45312,1.17188 -10.07812,0.9375 -1.17188,0 -1.875,0 -0.46875,0 -1.40625,-0.70312 -1.875,1.17187 -5.39063,0.70312 -3.28125,-0.46875 -5.15625,0.70313 -2.57812,-1.17188 -6.32812,-0.9375 -3.51563,0 -6.32813,-0.9375 -3.75,4.92187 -6.79687,10.54687 -3.04688,5.625 -5.39063,11.95313 7.96875,1.17187 13.125,0.9375 5.39063,-0.23438 10.07813,-0.70313 4.6875,-0.70312 9.60937,-1.17187 4.92188,-0.70313 12.42188,-0.46875 4.6875,-2.57813 11.01562,-3.28125 6.5625,-0.9375 11.95313,-2.8125 1.875,0.70312 3.28125,2.57812 1.40625,1.64063 2.57812,3.28125 1.40625,1.40625 2.8125,2.57813 1.40625,1.17187 3.51563,0.9375 0.9375,0.9375 1.17187,2.34375 0.46875,1.17187 0.70313,2.34375 0.23437,1.17187 0.70312,2.10937 0.70313,0.70313 2.10938,0.46875 -3.51563,7.73438 -8.20313,11.95313 -4.45312,3.98437 -10.3125,6.09375 -5.85937,2.10937 -13.125,3.28125 -7.03125,1.17187 -15.70312,2.8125 -2.10938,0.46875 -3.51563,-0.23438 -1.40625,-0.46875 -3.28125,-0.46875 -5.39062,1.17188 -12.89062,2.10938 -7.5,0.9375 -15.23438,0.70312 -7.73437,-0.23437 -14.76562,-2.10937 -7.03125,-1.64063 -11.48438,-6.09375 -1.875,-1.64063 -2.57812,-3.75 -0.46875,-2.34375 -3.04688,-3.51563 -0.23437,-3.04687 -0.9375,-6.79687 -0.70312,-3.75 -1.40625,-7.73438 -0.70312,-4.21875 -1.17187,-8.20312 -0.23438,-3.98438 0.46875,-7.26563 0.70312,-3.51562 2.8125,-6.32812 2.34375,-2.8125 1.64062,-6.09375 1.17188,-0.23438 1.40625,-1.17188 0.23438,-1.17187 1.875,-0.9375 1.40625,-4.21875 3.04688,-7.96875 1.64062,-3.75 3.28125,-7.26562 1.875,-3.51563 3.51562,-7.03125 1.875,-3.75 3.51563,-8.20313 -3.28125,-3.04687 -4.92188,-6.5625 -1.40625,-3.75 -2.10937,-7.26562 -0.70313,-3.75 -1.17188,-7.5 -0.46875,-3.98438 -1.64062,-7.96875 2.34375,-3.51563 5.625,-5.625 3.51562,-2.34375 7.5,-3.75 3.98437,-1.40625 8.67187,-2.34375 4.6875,-0.9375 9.84375,-2.10938 9.375,-3.04687 16.64063,-4.6875 7.5,-1.64062 14.53125,-2.57812 7.26562,-1.17188 15,-2.10938 7.73437,-0.9375 17.57812,-2.8125 2.10938,2.10938 3.98438,2.10938 0.9375,-2.10938 2.10937,-1.17188 1.40625,0.70313 1.17188,-1.40625 2.34375,3.98438 5.85937,6.79688 3.75,2.57812 8.20313,4.45312 z"
         style="font-family:'Permanent Marker';-inkscape-font-specification:'Permanent Marker, Normal';text-align:center;text-anchor:middle;stroke:#b1c2eb;stroke-width:11.3386;stroke-linecap:round;stroke-linejoin:round;stroke-miterlimit:4;stroke-dasharray:none;stroke-opacity:1"
         id="path20733" />
      <path
         d="m 1090.2256,762.95456 q -2.3438,1.17187 -4.4531,2.10937 -1.875,0.9375 -4.4532,0.9375 -9.1406,-6.79687 -9.6093,-23.67187 -0.2344,-16.875 7.2656,-42.89063 1.1719,-0.70312 1.1719,-2.8125 l -2.1094,-2.34375 q -0.9375,0 -1.875,0.23438 -0.7031,0.23437 -1.1719,1.64062 -6.0937,4.45313 -13.3594,9.375 -7.2656,4.6875 -15.2343,8.90625 -7.7344,3.98438 -15.9375,6.5625 -7.9688,2.57813 -15.7032,2.57813 -19.68746,0 -29.53121,-19.92188 l -1.875,-3.51562 -1.875,3.04687 q -0.70313,0.9375 -2.10938,3.98438 -1.40625,2.8125 -2.8125,6.5625 -1.40625,3.75 -2.57812,7.73437 -0.9375,3.75 -0.70313,6.5625 -2.10937,2.10938 -4.45312,4.92188 -2.34375,2.8125 -3.51563,6.32812 -0.46875,1.875 0.46875,3.51563 -0.46875,2.10937 -2.10937,3.28125 -0.9375,1.17187 -2.10938,2.34375 -0.9375,0.9375 -1.64062,2.10937 -0.46875,1.17188 -0.70313,2.34375 0,1.17188 -0.23437,2.34375 0,1.64063 -0.46875,3.04688 -3.98438,8.20312 -6.32813,10.54687 -2.34375,2.57813 -6.32812,2.57813 -1.875,0 -6.09375,-0.70313 -3.04688,-3.28125 -5.625,-8.90625 -2.34375,-5.85937 -3.75,-12.42187 -1.17188,-6.5625 -1.17188,-13.125 0.23438,-6.79688 2.34375,-11.71875 0,-0.23438 1.875,-4.6875 1.875,-4.45313 4.6875,-11.48438 3.04688,-7.03125 6.79688,-15.46875 3.75,-8.67187 7.5,-16.64062 3.75,-8.20313 7.03125,-15 3.51562,-6.79688 5.85937,-10.3125 1.875,-2.8125 3.28125,-5.15625 1.64063,-2.57813 3.04688,-4.92188 4.21875,-7.26562 7.96875,-11.95312 3.98437,-4.92188 11.48437,-7.73438 5.15625,2.10938 7.5,4.92188 l 0.46875,2.57812 q 0.9375,2.34375 2.81249,2.34375 2.5781,0.70313 4.2188,1.40625 1.875,0.46875 3.9843,0.9375 1.6407,1.875 3.0469,4.45313 1.875,2.8125 3.5156,5.625 1.875,2.57812 2.8125,5.39062 1.1719,2.57813 1.1719,5.39063 0.2344,2.8125 -0.9375,5.85937 l 0.2344,2.34375 q 1.1719,2.10938 0.4687,5.85938 -0.2343,1.64062 -0.2343,3.51562 0,1.64063 0.4687,3.75 4.2188,3.28125 7.5,3.28125 3.75,0 6.7969,-1.64062 3.2812,-1.875 6.0937,-3.75 1.875,-1.40625 3.75,-2.34375 1.875,-1.17188 3.75,-1.40625 4.2188,-3.98438 7.5,-7.03125 3.5157,-3.04688 7.2657,-6.09375 7.0312,-5.625 13.5937,-12.1875 6.5625,-6.5625 10.5469,-16.40625 2.3437,-1.40625 4.9219,-1.40625 2.5781,0 5.3906,1.17187 2.8125,1.17188 5.3906,2.34375 0.7031,0.46875 1.1719,0.70313 0.7031,0.23437 1.1719,0.46875 0,2.34375 1.875,3.98437 0.9375,0.70313 1.1718,0.9375 0.2344,0.23438 0.7032,0.46875 3.5156,1.875 4.4531,3.75 1.6406,5.39063 5.8594,8.20313 -0.4688,2.34375 0,4.45312 0.7031,1.875 1.6406,3.98438 0.2344,0.70312 0.4687,1.40625 0.2344,0.70312 0.7032,1.64062 l -4.4532,-0.46875 0.7032,4.45313 q 0.4687,3.28125 -0.7032,7.26562 -0.9375,3.98438 -2.3437,6.32813 0.2344,6.09375 0.2344,9.60937 0.2343,3.28125 -0.2344,6.32813 -0.4688,2.8125 -1.4063,5.39062 -0.7031,2.57813 -2.1093,5.625 0.9375,15 -3.5157,27.42188 -4.2187,12.1875 -8.9062,22.96875 -0.4688,1.17187 -1.1719,2.34375 -0.4687,1.17187 -0.9375,2.34375 -2.1094,0.70312 -3.75,1.64062 -1.6406,0.70313 -3.5156,1.64063 z"
         style="font-family:'Permanent Marker';-inkscape-font-specification:'Permanent Marker, Normal';text-align:center;text-anchor:middle;stroke:#b1c2eb;stroke-width:11.3386;stroke-linecap:round;stroke-linejoin:round;stroke-miterlimit:4;stroke-dasharray:none;stroke-opacity:1"
         id="path20735" />
      <path
         d="m 1173.1943,750.76706 q 1.1719,7.03125 -0.9375,11.01562 -1.875,3.98438 -5.625,5.85938 -3.5156,2.10937 -8.2031,2.34375 -4.6875,0.23437 -8.9062,-0.46875 -2.3438,-3.28125 -4.2188,-8.20313 -1.875,-4.92187 -3.5156,-10.07812 -1.6406,-5.39063 -3.0469,-10.54688 -1.1719,-5.15625 -2.1094,-9.14062 1.1719,-2.8125 1.4063,-6.32813 0.4687,-3.75 0.4687,-7.5 0.2344,-3.75 0.2344,-7.5 0.2344,-3.98437 0.7031,-7.5 1.6407,-9.84375 4.6875,-18.75 3.2813,-8.90625 5.1563,-18.51562 0.4687,-2.10938 -0.4688,-3.98438 -0.7031,-1.875 -0.2343,-3.51562 0.2343,-0.9375 1.4062,-1.17188 1.1719,-0.46875 1.4063,-1.64062 0.7031,-2.57813 0.2343,-4.21875 -0.2343,-1.64063 0.9375,-3.98438 1.1719,-1.875 2.8125,-5.39062 1.875,-3.75 1.4063,-7.73438 2.1094,-1.40625 3.9844,-3.28125 1.875,-1.875 3.75,-3.28125 2.1093,-1.64062 4.4531,-2.8125 2.5781,-1.17187 6.0937,-1.17187 1.875,2.34375 2.3438,5.15625 0.7031,2.8125 1.1719,5.625 0.7031,2.8125 1.875,5.39062 1.1718,2.34375 3.9843,3.75 0,1.875 0,4.6875 0,2.8125 0.2344,5.625 0.2344,2.57813 0.9375,4.92188 0.9375,2.10937 2.8125,2.8125 -4.2187,11.25 -7.9687,22.26562 -3.5157,11.01563 -5.8594,22.26563 -2.3438,11.01562 -3.0469,22.26562 -0.4687,11.25 1.6406,22.73438 z"
         style="font-family:'Permanent Marker';-inkscape-font-specification:'Permanent Marker, Normal';text-align:center;text-anchor:middle;stroke:#b1c2eb;stroke-width:11.3386;stroke-linecap:round;stroke-linejoin:round;stroke-miterlimit:4;stroke-dasharray:none;stroke-opacity:1"
         id="path20737" />
      <path
         d="m 1204.1318,661.70456 q 1.6407,-4.92188 5.1563,-8.4375 3.75,-3.51563 7.9687,-5.85938 4.4532,-2.57812 9.1407,-4.21875 4.6875,-1.64062 8.9062,-2.8125 9.375,-3.98437 19.9219,-7.5 10.7812,-3.75 21.7969,-6.5625 11.25,-2.8125 22.9687,-3.51562 11.7188,-0.9375 24.6094,2.8125 0.7031,2.34375 2.1094,4.45312 1.4062,2.10938 2.8125,4.21875 1.6406,2.10938 2.8125,4.21875 1.1718,1.875 1.4062,3.98438 2.3438,2.10937 3.75,4.6875 1.4063,2.34375 0.4688,6.32812 -2.3438,1.875 -4.6875,3.51563 -2.1094,1.40625 -4.6875,2.57812 -8.6719,-2.10937 -17.5782,-1.40625 -8.9062,0.70313 -15.9375,1.17188 -2.1093,-2.10938 -5.1562,-2.10938 -2.8125,0 -6.0938,0.9375 -3.0468,0.9375 -6.3281,1.875 -3.0469,0.9375 -5.8594,0.46875 -2.3437,1.875 -5.8593,2.57813 -3.2813,0.46875 -7.2657,0.9375 -0.2343,1.17187 0.4688,1.64062 0.7031,0.23438 0.2344,1.40625 1.4062,1.64063 3.5156,2.34375 2.3437,0.70313 4.6875,1.40625 2.5781,0.70313 4.4531,1.875 1.875,0.9375 2.5781,3.28125 3.5157,0 6.0938,1.64063 2.5781,1.64062 4.2187,3.98437 1.6407,2.34375 2.3438,5.15625 0.9375,2.57813 0.9375,4.6875 0.7031,1.875 1.6406,1.64063 0.9375,-0.23438 2.1094,0.9375 0.7031,3.04687 3.5156,6.32812 2.8125,3.04688 4.4531,6.79688 0.4688,5.85937 0.7032,10.54687 0.2343,4.45313 -1.6407,9.14063 -3.5156,8.67187 -9.8437,15.46875 -6.0938,6.79687 -14.0625,12.1875 -7.7344,5.15625 -16.6406,8.90625 -8.9063,3.75 -17.3438,6.32812 -0.9375,-0.23437 -1.875,0 -0.9375,0.23438 -0.4687,-1.17187 -1.875,1.64062 -4.2188,2.10937 -2.1094,0.46875 -4.6875,0.23438 -2.5781,0 -5.3906,-0.23438 -2.5781,-0.23437 -4.9219,0.23438 -1.6406,-1.64063 -3.0469,-3.28125 -1.1718,-1.40625 -1.875,-3.75 -1.1718,0 -1.1718,-1.17188 0.2343,-1.17187 -0.7032,-1.17187 1.4063,-2.34375 1.1719,-2.57813 0,-0.46875 -0.7031,-0.70312 -0.4688,-0.23438 -0.9375,-0.46875 -0.4688,-0.46875 -0.2344,-1.17188 0.9375,-1.875 0.7031,-4.21875 -0.2343,-2.57812 -0.4687,-5.15625 -0.2344,-2.57812 0.2344,-4.92187 0.7031,-2.34375 3.5156,-3.75 7.9687,0.9375 15,-0.46875 7.2656,-1.64063 13.5937,-4.45313 6.3282,-2.8125 11.9532,-6.09375 5.8593,-3.28125 11.4843,-5.85937 0.7032,-2.10938 1.875,-3.51563 1.4063,-1.40625 2.8125,-2.57812 1.4063,-1.17188 2.5782,-2.57813 1.1718,-1.40625 1.6406,-3.51562 0.2344,-1.64063 -0.9375,-1.875 -0.9375,-0.46875 -0.9375,-1.875 l -2.5781,-0.70313 q -4.4532,-2.57812 -10.0782,-4.21875 -5.625,-1.875 -9.6093,-3.98437 -2.5782,1.40625 -4.9219,0.70312 -2.1094,-0.70312 -5.625,-1.40625 -7.9688,-0.46875 -15.4688,-1.64062 -7.2656,-1.17188 -14.0625,-4.21875 -0.4687,-1.17188 -1.1718,-2.10938 -0.7032,-0.9375 -2.5782,-0.46875 -1.4062,-1.875 -2.8125,-3.51562 -1.4062,-1.875 -2.5781,-3.98438 0.4688,-2.8125 0.7031,-4.6875 0.2344,-2.10937 -1.4062,-3.98437 0.9375,-3.04688 1.4062,-4.92188 0.4688,-1.875 0,-4.92187 z"
         style="font-family:'Permanent Marker';-inkscape-font-specification:'Permanent Marker, Normal';text-align:center;text-anchor:middle;stroke:#b1c2eb;stroke-width:11.3386;stroke-linecap:round;stroke-linejoin:round;stroke-miterlimit:4;stroke-dasharray:none;stroke-opacity:1"
         id="path20739" />
      <path
         d="m 1445.0693,654.43893 q -5.8593,0 -12.6562,0.9375 -6.7969,0.70313 -13.3594,1.64063 -4.6875,0.70312 -9.1406,1.17187 -4.2188,0.46875 -7.7344,0.70313 -1.6406,5.15625 -3.2812,9.14062 -1.6407,3.98438 -3.5157,7.73438 -1.875,3.98437 -3.5156,8.20312 -1.4062,3.98438 -2.8125,8.67188 -2.3437,3.75 -3.9844,7.03125 -1.4062,3.04687 -2.3437,7.03125 -2.8125,3.51562 -4.2188,7.5 -1.4062,3.75 -2.1093,6.5625 l -0.9375,2.8125 q -1.4063,1.40625 -1.6407,2.34375 -0.2343,0.70312 -1.1718,1.40625 -0.2344,2.57812 -1.6407,5.15625 -0.4687,1.17187 -0.7031,2.34375 -0.2344,0.9375 -0.2344,1.40625 0,2.34375 -1.1718,3.04687 0.2343,1.17188 0,2.57813 -0.2344,1.17187 -0.4688,2.34375 -0.7031,2.8125 -0.4687,4.45312 0.7031,0.9375 1.1718,1.64063 0.7032,0.70312 0.9375,1.875 1.4063,0.9375 2.1094,1.17187 0.9375,0.70313 2.8125,1.64063 l 2.1094,2.34375 q 1.1719,6.79687 -2.1094,10.78125 -3.5156,4.45312 -11.9531,4.45312 h -2.8125 q -1.1719,-1.17187 -1.4063,-1.875 -1.875,-0.70312 -3.0468,-1.17187 -1.1719,-0.46875 -2.1094,-1.875 -3.0469,-1.40625 -4.9219,-2.34375 l -2.1094,-1.17188 q 0,-2.57812 0,-2.8125 -1.6406,-2.10937 -2.5781,-4.6875 -0.7031,-2.57812 -1.1719,-5.15625 -0.4687,-2.10937 -1.1718,-3.98437 -0.4688,-1.875 -1.4063,-3.28125 -0.4687,-13.59375 2.5781,-22.96875 3.0469,-9.375 6.3282,-18.04688 1.875,-4.6875 3.75,-9.375 1.875,-4.92187 3.2812,-10.07812 l 2.1094,-2.34375 q 1.6406,-3.75 2.5781,-6.09375 1.1719,-2.57813 2.3438,-5.15625 0.7031,-1.64063 1.1718,-3.04688 0.7032,-1.64062 1.1719,-2.8125 -1.4062,0 -2.5781,0.23438 -1.1719,0 -2.3438,0.23437 -1.4062,0.23438 -2.5781,0.46875 -1.1719,0 -2.3437,0 -1.6407,0 -2.3438,-0.23437 -2.5781,1.17187 -5.625,1.17187 h -2.3437 q -0.7032,0 -1.4063,0 -0.4687,-0.23437 -0.9375,-0.23437 -2.3437,0 -3.75,0.70312 -2.8125,0 -5.3906,0 h -2.3438 q -0.4687,0 -1.1718,0.23438 -0.7032,0 -1.1719,0 -1.6406,0 -3.5156,-0.23438 -1.875,-0.46875 -3.9844,-1.64062 -2.8125,-3.75 -3.75,-3.98438 l -2.1094,-2.8125 q -0.2344,-1.40625 -0.7031,-2.57812 -0.4688,-1.40625 -0.9375,-3.04688 -0.9375,-2.34375 -1.875,-4.92187 -0.7031,-2.8125 -0.7031,-6.5625 0.2343,-1.875 0.9375,-2.8125 0.7031,-0.9375 1.1718,-1.64063 l 0.7032,-3.51562 3.0468,0.23437 h 6.5625 q 7.5,0 15.2344,-0.46875 7.7344,-0.70312 15.9375,-1.40625 4.6875,-0.46875 9.375,-0.9375 4.9219,-0.46875 10.0781,-0.9375 0.9375,-2.10937 1.875,-3.98437 l 2.3438,-1.17188 q 4.2187,-0.23437 5.8594,1.17188 1.875,1.17187 3.0468,2.34375 5.1563,-0.46875 10.3125,-0.9375 5.3907,-0.70313 10.7813,-1.64063 7.9687,-1.17187 15.9375,-2.10937 8.2031,-0.9375 15.7031,-0.9375 3.2813,0 6.3281,0.23437 3.0469,0.23438 5.625,0.70313 l 2.3438,1.64062 q 0.7031,1.40625 1.875,2.57813 1.4062,1.17187 2.8125,2.34375 2.8125,2.57812 5.625,6.09375 2.8125,3.51562 2.1094,10.3125 -1.875,2.8125 -2.8125,3.28125 l -2.1094,2.8125 -2.3438,-0.23438 q -1.4062,0 -2.5781,0.46875 -1.1719,0.23438 -2.3437,0.70313 -0.9375,0.46875 -1.875,0.9375 -0.9375,0.23437 -2.1094,0.46875 -2.1094,0 -3.5156,0 -1.1719,-0.23438 -2.5782,-0.23438 z"
         style="font-family:'Permanent Marker';-inkscape-font-specification:'Permanent Marker, Normal';text-align:center;text-anchor:middle;stroke:#b1c2eb;stroke-width:11.3386;stroke-linecap:round;stroke-linejoin:round;stroke-miterlimit:4;stroke-dasharray:none;stroke-opacity:1"
         id="path20741" />
      <path
         d="m 1464.5225,742.79831 q -2.5782,9.375 -4.6875,14.29687 -1.875,4.6875 -5.8594,9.84375 -3.0469,-0.46875 -4.2188,0.70313 -1.1718,1.17187 -2.5781,2.10937 -2.1094,0.46875 -3.0469,0 -0.9375,-0.46875 -1.6406,-1.17187 -0.7031,-0.46875 -1.875,-1.17188 -0.9375,-0.46875 -3.0469,-0.46875 -0.4687,-1.875 -1.1718,-3.51562 -0.4688,-1.64063 -3.0469,-1.17188 0.4687,-1.875 0.2344,-3.04687 -0.2344,-1.40625 -0.7032,-2.34375 -0.2343,-1.17188 -0.4687,-2.10938 -0.2344,-1.17187 0.2344,-2.8125 -1.1719,0 -1.875,-1.64062 -0.7032,-1.64063 -1.6407,-3.28125 0.7032,-4.21875 1.4063,-7.96875 0.7031,-3.75 1.6406,-7.03125 1.1719,-3.28125 1.875,-6.5625 0.7031,-3.28125 -0.7031,-6.79688 0.9375,0.70313 1.4062,-0.23437 0.4688,-1.17188 0.7032,-2.8125 0.2343,-1.875 0.2343,-3.51563 0,-1.875 -0.2343,-3.04687 2.3437,-6.09375 3.75,-12.42188 1.6406,-6.5625 2.8125,-12.89062 1.4062,-6.32813 2.8125,-12.42188 1.4062,-6.09375 3.75,-11.25 2.5781,-0.46875 5.625,0.70313 3.2812,0.9375 3.9843,2.57812 6.0938,-4.6875 10.7813,-11.25 4.6875,-6.79687 9.6094,-13.125 4.9218,-6.32812 10.7812,-11.25 6.0938,-4.92187 15.2344,-5.85937 4.6875,3.51562 10.3125,7.26562 5.8594,3.51563 9.6094,9.375 1.875,0.9375 3.0468,2.10938 1.4063,0.9375 3.2813,2.10937 v 2.8125 q 2.8125,2.57813 4.4531,6.09375 1.875,3.28125 3.2813,7.26563 1.4062,3.75 2.8125,7.73437 1.4062,3.75 3.2812,7.26563 -0.4687,1.17187 -0.4687,2.10937 0,0.70313 0.2343,1.64063 0.4688,0.9375 0.7032,1.875 0.2343,0.9375 0,2.57812 -0.7032,10.3125 -6.7969,16.64063 -5.8594,6.32812 -14.2969,10.54687 -8.4375,3.98438 -18.0469,6.79688 -9.6093,2.8125 -17.3437,6.09375 0,0.9375 0.7031,0.9375 0.9375,0 0.7031,1.17187 5.625,3.51563 8.9063,5.625 3.2812,2.10938 6.0937,3.51563 3.0469,1.40625 6.3282,2.57812 3.5156,0.9375 9.6093,2.34375 6.0938,1.40625 9.375,2.34375 3.5157,0.70313 6.3282,1.40625 2.8125,0.46875 5.625,0.9375 3.0468,0.23438 8.4375,0.70313 2.1093,2.10937 3.5156,5.15625 1.6406,2.8125 2.1094,5.85937 0.4687,2.8125 0.2343,5.625 -0.2343,2.57813 -1.6406,4.21875 0.2344,0.70313 0.9375,0.70313 0.9375,-0.23438 1.875,0 -1.4062,0.9375 -2.3437,2.34375 -0.9375,1.40625 -1.875,2.8125 -0.9375,1.40625 -2.1094,2.34375 -1.1719,1.17187 -3.2813,1.40625 -7.2656,2.8125 -18.2812,0.23437 -11.0156,-2.34375 -27.8906,-8.90625 -8.4375,-3.28125 -13.8282,-5.625 -5.1562,-2.57812 -9.1406,-4.92187 -3.75,-2.57813 -7.0312,-5.39063 -3.0469,-2.8125 -7.5,-6.79687 z m 33.5156,-80.39063 q -2.5781,3.75 -5.8594,6.79688 -3.0469,3.04687 -6.0937,6.32812 -2.8125,3.04688 -5.1563,7.03125 -2.3437,3.75 -3.2812,8.90625 8.2031,-0.9375 17.1093,-4.45312 8.9063,-3.75 16.875,-7.03125 -0.9375,-7.26563 -5.1562,-11.71875 -3.9844,-4.45313 -8.4375,-5.85938 z"
         style="font-family:'Permanent Marker';-inkscape-font-specification:'Permanent Marker, Normal';text-align:center;text-anchor:middle;stroke:#b1c2eb;stroke-width:11.3386;stroke-linecap:round;stroke-linejoin:round;stroke-miterlimit:4;stroke-dasharray:none;stroke-opacity:1"
         id="path20743" />
      <path
         d="m 1626.9443,705.76706 q -1.6406,1.40625 -2.8125,3.51562 -1.1718,1.875 -2.3437,3.98438 -1.1719,2.57812 -2.5781,4.92187 -1.4063,2.34375 -3.5157,4.21875 -1.1718,3.51563 -2.3437,5.625 -1.1719,1.875 -3.75,4.45313 -2.3438,9.375 -11.0156,20.39062 -0.2344,2.10938 -1.4063,4.21875 -0.9375,1.875 -2.1094,3.75 -0.4687,0.70313 -0.9375,1.64063 -0.4687,0.70312 -0.7031,1.17187 l -0.4687,2.34375 q -1.1719,1.875 -2.5782,3.28125 -1.4062,1.40625 -2.5781,2.57813 -0.4687,0.70312 -1.6406,1.875 l -3.5156,1.40625 q -17.1094,-2.34375 -20.8594,-18.28125 l 0.2344,-2.34375 q 0.4687,-1.17188 0.7031,-2.34375 0.4687,-1.40625 0.9375,-2.8125 0.9375,-3.28125 2.1094,-6.5625 1.4062,-3.28125 3.9843,-5.85938 0.4688,-1.64062 2.1094,-5.15625 1.6406,-3.75 5.625,-11.01562 3.2813,-5.625 5.1563,-8.90625 1.875,-3.28125 3.0468,-5.15625 -2.3437,-3.75 -5.625,-6.79688 -3.0468,-5.85937 -5.3906,-11.25 -2.1094,-5.39062 -3.2812,-9.60937 -0.2344,-3.04688 -0.7032,-5.15625 -0.4687,-2.10938 -0.9375,-4.45313 -0.7031,-2.57812 -1.1718,-5.15625 -0.4688,-2.57812 -0.4688,-5.39062 -1.1719,-1.64063 -1.4062,-3.28125 l 0.4687,-2.34375 q 0.7031,-1.64063 0.2344,-4.21875 -0.4688,-2.8125 -1.1719,-5.625 -0.4687,-2.34375 -1.1719,-5.15625 -0.4687,-2.8125 -0.2343,-5.625 0.2343,-2.8125 1.4062,-5.15625 1.4063,-2.57813 4.4531,-4.45313 l 3.9844,-0.23437 q 2.1094,1.17187 3.9844,2.34375 2.1094,0.9375 3.9844,2.10937 2.5781,1.17188 4.9218,2.34375 2.3438,1.17188 4.9219,3.04688 l 1.6406,3.28125 3.0469,2.57812 v 2.57813 q 0.2344,0.9375 0.2344,2.57812 0,3.04688 0.9375,3.75 l 0.9375,2.8125 q 0,3.28125 0.7031,6.32813 0.7031,2.8125 1.4063,5.39062 0.7031,2.57813 1.4062,5.39063 0.7031,2.8125 0.2344,6.09375 1.4062,-0.70313 2.3437,-1.64063 0.4688,-0.46875 0.9375,-0.70312 0.4688,-0.23438 0.9375,-0.70313 l 13.8282,-18.75 -0.4688,-2.34375 4.9219,-4.6875 q 1.875,-1.875 3.5156,-3.51562 1.875,-1.64063 3.0469,-3.51563 l 2.5781,-1.875 q 7.5,-11.71875 21.3281,-14.53125 l 3.2813,-0.46875 0.9375,3.04688 q 0.9375,2.57812 3.75,4.6875 3.0469,2.10937 6.3281,3.98437 l 2.1094,1.40625 q 1.1719,2.34375 1.1719,3.51563 0,1.17187 -0.2344,2.10937 l 0.9375,2.34375 q -1.875,5.625 -4.6875,8.20313 -2.5781,2.57812 -5.1563,4.6875 -2.1093,1.875 -3.9843,3.51562 -1.6407,1.40625 -2.5782,3.75 l -1.6406,1.875 q -4.9219,2.8125 -6.3281,7.5 l -0.7031,2.8125 h -2.8125 q -0.2344,0 -1.1719,0.9375 -0.7031,0.70313 -2.3438,3.98438 -1.6406,2.34375 -2.3437,3.04687 -0.7031,0.70313 -1.1719,1.17188 -0.2344,0.9375 -0.7031,1.875 -0.2344,0.70312 -0.7031,1.875 -3.0469,3.04687 -3.75,4.6875 -0.7032,1.40625 -1.6407,3.28125 -0.9375,1.875 -1.875,3.75 -0.7031,1.64062 -2.5781,3.51562 z"
         style="font-family:'Permanent Marker';-inkscape-font-specification:'Permanent Marker, Normal';text-align:center;text-anchor:middle;stroke:#b1c2eb;stroke-width:11.3386;stroke-linecap:round;stroke-linejoin:round;stroke-miterlimit:4;stroke-dasharray:none;stroke-opacity:1"
         id="path20745" />
    </g>
  </g>
</svg>
