<?xml version="1.0" encoding="UTF-8" standalone="no"?>
<!-- Created with Inkscape (http://www.inkscape.org/) -->

<svg
   width="210mm"
   height="297mm"
   viewBox="0 0 210 297"
   version="1.1"
   id="svg100639"
   inkscape:version="1.1.2 (0a00cf5339, 2022-02-04)"
   sodipodi:docname="paper3.svg"
   xmlns:inkscape="http://www.inkscape.org/namespaces/inkscape"
   xmlns:sodipodi="http://sodipodi.sourceforge.net/DTD/sodipodi-0.dtd"
   xmlns="http://www.w3.org/2000/svg"
   xmlns:svg="http://www.w3.org/2000/svg">
  <sodipodi:namedview
     id="namedview100641"
     pagecolor="#505050"
     bordercolor="#ffffff"
     borderopacity="1"
     inkscape:pageshadow="0"
     inkscape:pageopacity="0"
     inkscape:pagecheckerboard="1"
     inkscape:document-units="mm"
     showgrid="false"
     inkscape:zoom="0.37014941"
     inkscape:cx="653.79005"
     inkscape:cy="745.64485"
     inkscape:window-width="1920"
     inkscape:window-height="1011"
     inkscape:window-x="0"
     inkscape:window-y="0"
     inkscape:window-maximized="1"
     inkscape:current-layer="layer1"
     inkscape:snap-intersection-paths="true"
     inkscape:object-paths="true"
     inkscape:snap-object-midpoints="true" />
  <defs
     id="defs100636">
    <rect
       x="122.42376"
       y="176.84246"
       width="615.94762"
       height="92.614846"
       id="rect11990" />
  </defs>
  <g
     inkscape:label="Слой 1"
     inkscape:groupmode="layer"
     id="layer1">
    <rect
       style="fill:#fcfcfc;fill-rule:evenodd;stroke-width:3;stroke-linecap:square;fill-opacity:1;stroke:#000000;stroke-opacity:1;stroke-miterlimit:4;stroke-dasharray:none"
       id="rect100665"
       width="208.87262"
       height="297.04294"
       x="0.88503796"
       y="-0.1470046" />
    <ellipse
       style="fill:none;fill-opacity:1;fill-rule:evenodd;stroke:#5f9363;stroke-width:3.00000008;stroke-linecap:round;stroke-miterlimit:4;stroke-dasharray:72.000002, 72.000002;stroke-opacity:1;stroke-dashoffset:0;stroke-linejoin:round"
       id="path85252"
       cx="108.24387"
       cy="136.87071"
       rx="63.276073"
       ry="60.330566" />
    <path
       sodipodi:type="star"
       style="fill:none;fill-opacity:1;fill-rule:evenodd;stroke:#5f9363;stroke-width:11.3386;stroke-linecap:round;stroke-miterlimit:4;stroke-dasharray:none;stroke-dashoffset:0;stroke-opacity:1;stroke-linejoin:round"
       id="path85376"
       inkscape:flatsided="false"
       sodipodi:sides="3"
       sodipodi:cx="667.96735"
       sodipodi:cy="460.01791"
       sodipodi:r1="58.411926"
       sodipodi:r2="37.070019"
       sodipodi:arg1="0.51746004"
       sodipodi:arg2="2.1857591"
       inkscape:rounded="0"
       inkscape:randomized="0"
       d="m 718.73189,488.91279 -72.15128,1.38373 -29.01924,-0.76266 34.8773,-63.1767 15.1701,-24.75007 37.27398,61.79298 z"
       transform="scale(0.26458333)" />
    <ellipse
       style="fill:none;fill-opacity:1;fill-rule:evenodd;stroke:#5f9363;stroke-width:3;stroke-linecap:square;stroke-miterlimit:4;stroke-dasharray:none;stroke-dashoffset:0;stroke-opacity:1"
       id="path85419"
       cx="69.438828"
       cy="89.217003"
       rx="16.61722"
       ry="17.02054" />
    <rect
       style="fill:none;fill-opacity:1;fill-rule:evenodd;stroke:#5f9363;stroke-width:3;stroke-linecap:square;stroke-miterlimit:4;stroke-dasharray:none;stroke-dashoffset:0;stroke-opacity:1"
       id="rect85542"
       width="27.050314"
       height="27.050314"
       x="80.60849"
       y="182.15698"
       rx="2.6458333"
       ry="2.6458333" />
    <path
       style="fill:none;stroke:#5f9363;stroke-width:3;stroke-linecap:round;stroke-linejoin:round;stroke-opacity:1;stroke-miterlimit:4;stroke-dasharray:none"
       d="M 95.477159,28.313192 81.263976,59.046601 78.824076,43.118965"
       id="path85861" />
    <path
       style="fill:none;stroke:#5f9363;stroke-width:3;stroke-linecap:round;stroke-linejoin:round;stroke-opacity:1;stroke-miterlimit:4;stroke-dasharray:none"
       d="M 81.263976,59.046601 98.845943,53.095006"
       id="path85863" />
    <path
       style="fill:none;stroke:#5f9363;stroke-width:3;stroke-linecap:round;stroke-linejoin:round;stroke-opacity:1;stroke-miterlimit:4;stroke-dasharray:none"
       d="M 69.032609,211.64969 C 38.752287,249.11556 45.230454,258.68985 45.230454,258.68985 L 36.011649,241.58917"
       id="path85865" />
    <path
       style="fill:none;stroke:#5f9363;stroke-width:3;stroke-linecap:round;stroke-linejoin:round;stroke-opacity:1;stroke-miterlimit:4;stroke-dasharray:none"
       d="M 45.140731,258.52341 59.875747,246.00027"
       id="path85867" />
    <path
       style="fill:none;stroke:#5f9363;stroke-width:3;stroke-linecap:round;stroke-linejoin:round;stroke-opacity:1;stroke-miterlimit:4;stroke-dasharray:none"
       d="m 106.15247,255.53038 c 3.53996,-4.49847 8.08207,-7.02909 13.58126,-8.26669 3.58031,-0.80575 4.69304,5.28624 9.62081,6.10287 4.7628,0.78928 9.54806,-1.29498 14.25911,-0.51414 1.03767,-0.18668 1.64926,0.83192 2.54405,1.01088 1.23553,0.2471 3.81062,0.2073 5.05441,0 2.75766,-0.45961 5.73682,-1.86403 8.60178,-1.52561 2.80592,0.33144 8.0808,0.40715 10.466,2.19057 1.06572,0.79684 1.86307,2.45376 3.05242,3.06279 1.82296,0.93347 9.97053,-2.54612 12.41918,-2.54612"
       id="path88504" />
    <path
       style="fill:none;stroke:#5f9363;stroke-width:3;stroke-linecap:round;stroke-linejoin:round;stroke-opacity:1;stroke-miterlimit:4;stroke-dasharray:none"
       d="m 125.02651,46.743368 c 3.7615,-1.476772 7.27738,-4.997151 11.29604,-6.101508 1.22611,-0.336945 2.73161,1.889593 3.73981,2.399781 1.71514,0.867926 3.29061,0.547611 5.06049,0.998818 1.10926,0.282792 2.48524,0.999635 3.55752,1.535774 2.102,1.050999 8.06276,-1.090576 11.69832,1.920145 0.84656,0.701066 2.30338,-0.871512 2.92816,-1.029206 3.71202,-0.936932 -2.68397,1.575181 2.5367,-0.505441 0.97844,-0.389943 2.03877,-1.311736 3.0688,-1.516322 1.42916,-0.283861 2.13516,-0.163685 3.54781,-0.51516 1.17858,-0.293235 2.48406,-1.485386 3.54117,-2.024864 0.97739,-0.498795 3.28548,3.310247 4.49106,3.310247"
       id="path92901" />
  </g>
</svg>
