<?xml version="1.0" encoding="UTF-8" standalone="no"?>
<!-- Created with Inkscape (http://www.inkscape.org/) -->

<svg
   width="210mm"
   height="297mm"
   viewBox="0 0 210 297"
   version="1.1"
   id="svg100639"
   inkscape:version="1.1.2 (0a00cf5339, 2022-02-04)"
   sodipodi:docname="paper.svg"
   xmlns:inkscape="http://www.inkscape.org/namespaces/inkscape"
   xmlns:sodipodi="http://sodipodi.sourceforge.net/DTD/sodipodi-0.dtd"
   xmlns="http://www.w3.org/2000/svg"
   xmlns:svg="http://www.w3.org/2000/svg">
  <sodipodi:namedview
     id="namedview100641"
     pagecolor="#505050"
     bordercolor="#ffffff"
     borderopacity="1"
     inkscape:pageshadow="0"
     inkscape:pageopacity="0"
     inkscape:pagecheckerboard="1"
     inkscape:document-units="mm"
     showgrid="false"
     inkscape:zoom="0.37014941"
     inkscape:cx="-243.14506"
     inkscape:cy="742.94323"
     inkscape:window-width="1920"
     inkscape:window-height="1011"
     inkscape:window-x="0"
     inkscape:window-y="0"
     inkscape:window-maximized="1"
     inkscape:current-layer="layer1" />
  <defs
     id="defs100636" />
  <g
     inkscape:label="Слой 1"
     inkscape:groupmode="layer"
     id="layer1">
    <rect
       style="fill:#fcfcfc;fill-rule:evenodd;stroke-width:3;stroke-linecap:square;fill-opacity:1;stroke:#000000;stroke-opacity:1;stroke-miterlimit:4;stroke-dasharray:none"
       id="rect100665"
       width="208.87262"
       height="297.04294"
       x="0.88503796"
       y="-0.1470046" />
    <path
       style="fill:none;stroke:#5f9363;stroke-width:3;stroke-linecap:butt;stroke-linejoin:miter;stroke-opacity:1;stroke-miterlimit:4;stroke-dasharray:none"
       d="m 29.383992,42.236175 c 7.341722,-3.242193 10.837037,-5.160161 18.44453,-7.174825 1.287087,-0.340852 2.834915,-0.654561 3.994364,0 0.558636,0.315375 1.150282,1.810951 1.406742,2.105271 0.315482,0.362053 1.921045,-0.243216 2.35517,0 0.516438,0.28933 1.387703,1.374862 1.429605,1.395812 0.633584,0.316794 2.283584,0.139102 2.781766,0.646306 0.466833,0.475289 0.217453,1.599168 0.685657,2.067359 0.429098,0.429085 13.045384,-2.997886 14.83021,-3.585441 2.996129,-0.986305 5.19915,4.921623 8.38055,5.690492 1.9303,0.466508 16.843084,0.634169 18.712234,0 1.08379,-0.367713 2.29408,-1.16101 3.56366,-0.727565 6.65121,2.270779 14.55192,-0.02984 21.45788,-0.02984 6.80865,0 13.64755,1.892107 20.71139,0.714801 3.62966,-0.604944 7.38212,-1.497605 10.98589,-2.251295 2.20824,-0.461827 5.58475,-2.077675 7.21058,-2.077675"
       id="path100801" />
    <path
       style="fill:none;stroke:#5f9363;stroke-width:3;stroke-linecap:butt;stroke-linejoin:miter;stroke-opacity:1;stroke-miterlimit:4;stroke-dasharray:none"
       d="m 32.633102,86.879918 c 8.835128,-4.888118 5.510543,-3.486078 17.019071,-7.415432 1.535737,-0.524346 3.900414,2.981495 4.717148,3.601339 1.806284,1.370841 15.447121,-1.046707 15.69675,-0.714801 0.369057,0.490691 0.791192,2.07305 1.411674,2.693572 0.293314,0.293336 1.022527,0.364279 1.286806,0.671087 0.289645,0.336248 -0.331986,1.036876 0,1.331394 1.086234,0.963639 1.270336,2.161995 1.962259,3.179392 0.416001,0.611687 4.076234,-0.890691 6.030396,-1.442887 7.481713,-2.11414 13.656654,-6.083189 20.782944,-7.88847 4.9748,-1.26025 5.19695,1.947476 8.13362,3.387934 1.52023,0.745686 4.08125,0.171207 5.71204,0.714801 1.093,0.364334 1.75397,1.592771 2.80201,2.116659 1.61775,0.808675 3.666,1.693794 5.61541,2.083673 6.61237,1.322475 13.5805,-1.71192 19.68225,-3.745836 2.39908,-0.799692 6.33677,1.256213 8.45947,0 1.38952,-0.822314 2.38555,-0.728739 4.14833,-0.728739"
       id="path100803" />
    <path
       style="fill:none;stroke:#5f9363;stroke-width:3;stroke-linecap:butt;stroke-linejoin:miter;stroke-opacity:1;stroke-miterlimit:4;stroke-dasharray:none"
       d="m 32.188882,128.63221 c 8.593754,-0.95994 20.652851,5.49967 28.061193,-0.0327 0.832318,-0.62155 10.491414,-8.32027 11.127411,-6.47221 1.010838,2.93725 3.015406,7.45517 4.980313,9.33478 0.537165,0.51385 11.341418,-1.94031 12.947052,-2.16969 7.391159,-1.05588 13.074139,0.54064 20.625489,-0.0337 2.57862,-0.19612 10.27878,-1.20238 10.56383,-0.74218 0.82373,1.32986 3.7499,2.36641 5.70048,2.75653 1.09206,0.21841 19.32994,0.75276 20.81497,0 1.9332,-0.97994 3.609,-1.24536 5.76204,-1.24536"
       id="path100805" />
    <path
       style="fill:none;stroke:#5f9363;stroke-width:3;stroke-linecap:butt;stroke-linejoin:miter;stroke-opacity:1;stroke-miterlimit:4;stroke-dasharray:none"
       d="m 36.181456,169.4065 c 5.841624,-3.40296 12.138726,-1.96776 18.387946,-2.59268 6.026343,-0.60264 13.725487,-1.91414 19.767023,-0.7148 3.190393,0.63334 6.018657,0.7148 9.319165,0.7148 2.77551,0 5.609018,1.45695 8.577616,0.7148 4.457108,-1.11428 16.683484,-11.563 20.062734,-9.78179 1.35738,0.71547 2.82185,3.07068 4.26132,3.54652 0.45815,0.15144 0.98888,-0.14973 1.44758,0 1.13949,0.37194 1.79204,2.31655 2.85921,2.86446 1.21207,0.62231 2.96548,1.6667 4.25521,2.09661 1.3219,0.44063 5.82613,0.44063 7.14802,0 0.95009,-0.3167 1.95759,-1.69204 2.8716,-2.1568 1.91906,-0.97581 7.57735,2.70516 9.89675,2.70516"
       id="path100807" />
    <path
       style="fill:none;stroke:#5f9363;stroke-width:3;stroke-linecap:butt;stroke-linejoin:miter;stroke-opacity:1;stroke-miterlimit:4;stroke-dasharray:none"
       d="m 37.953582,208.51557 c 8.3683,-5.20589 9.369001,-6.64403 16.681828,-9.399 2.40978,-0.90784 4.93726,2.44038 5.916525,3.41311 1.204103,1.19606 4.192863,1.34055 5.672299,2.08027 1.844151,0.92207 19.123503,0.0871 19.559092,0 0.29762,-0.0595 3.181498,-2.35712 3.697955,-1.44269 0.435864,0.77172 0.75099,0.69909 1.286634,1.26695 0.272523,0.28892 -0.309248,1.64796 0,1.88299 2.150536,1.63438 3.233539,4.46473 5.16595,6.32187 0.716481,0.68858 3.476876,-0.49821 3.934071,-0.72784 1.149824,-0.57753 7.713754,-4.65131 8.537344,-3.57401 0.98297,1.28576 1.59588,1.01347 2.40011,1.85502 0.42236,0.44196 0.89408,2.29733 1.44413,2.85646 0.85946,0.87362 2.9641,1.38609 4.71676,1.9777 3.77751,1.27511 6.29149,-3.60112 9.14133,-5.01295 0.41397,-0.20508 1.0623,0.32967 1.38593,0 0.15965,-0.16262 -0.16416,-0.52559 0,-0.68365 0.23069,-0.22211 3.08617,-1.21107 3.597,-1.38135 1.28607,-0.42869 3.00451,0.43342 4.28881,0 1.20705,-0.40734 2.98554,-1.49871 3.57916,-1.92535 0.29947,-0.21523 1.6416,0.28593 1.85305,0 0.13423,-0.1815 -0.20401,-0.58059 0,-0.67724 0.74739,-0.35405 2.08389,0.3742 2.82758,0 3.62752,-1.82523 16.00359,-0.10318 21.3536,-0.10318"
       id="path100809" />
    <path
       style="fill:none;stroke:#5f9363;stroke-width:3;stroke-linecap:butt;stroke-linejoin:miter;stroke-opacity:1;stroke-miterlimit:4;stroke-dasharray:none"
       d="m 145.03563,166.80278 c 2.57427,0.69243 4.2677,3.71762 6.49608,4.86426 0.98324,0.50595 3.83609,-2.17488 4.31389,-2.51393 0.66675,-0.47312 2.15887,0.10739 2.72008,-0.45382 0.37058,-0.37058 0.29216,-1.09047 0.7148,-1.40037 1.10168,-0.8078 3.07291,-1.31683 4.31429,-2.14443 1.43421,-0.95615 2.69637,-3.31688 4.07346,-3.31688"
       id="path100811" />
    <path
       style="fill:none;stroke:#5f9363;stroke-width:3;stroke-linecap:butt;stroke-linejoin:miter;stroke-opacity:1;stroke-miterlimit:4;stroke-dasharray:none"
       d="m 152.77166,130.02768 c 1.31899,-0.77824 2.55436,-1.71984 3.95697,-2.33471 0.21778,-0.0955 9.36455,-1.52546 9.72129,-1.07827 0.63137,0.79146 2.21821,1.42216 3.13951,1.85471"
       id="path100813" />
    <path
       style="fill:none;stroke:#5f9363;stroke-width:3;stroke-linecap:butt;stroke-linejoin:miter;stroke-opacity:1;stroke-miterlimit:4;stroke-dasharray:none"
       d="m 156.09328,84.723604 c 1.66256,-0.282972 3.32512,-0.565944 4.98769,-0.848916 0.71184,0 1.43342,0.117264 2.13554,0 1.58443,-0.264617 3.93111,-1.252654 5.22184,-1.934858 0.59839,-0.316272 1.87583,0.500917 1.47515,0.581626 -4.57301,0.921131 -9.21348,1.468099 -13.82022,2.202148"
       id="path100815" />
    <path
       style="fill:none;stroke:#5f9363;stroke-width:3;stroke-linecap:butt;stroke-linejoin:miter;stroke-opacity:1;stroke-miterlimit:4;stroke-dasharray:none"
       d="m 36.03046,250.96568 c 0.968788,-0.47354 1.938838,-0.94451 2.906366,-1.42062 5.631231,-2.77104 12.226266,-1.05058 17.308327,1.35967 0.560594,0.26587 1.523889,-0.28036 2.076345,0 1.142423,0.57974 2.795963,1.29361 4.288808,0.69093 1.846323,-0.74538 12.411231,-6.77773 12.954249,-6.45066 0.670549,0.40388 3.124708,3.8057 3.600664,4.28165 2.038133,2.03814 7.118048,1.39564 9.955868,2.1051 2.540765,0.63519 15.649153,-1.21122 17.515513,-2.14441 1.27903,-0.63951 3.57171,0.67087 4.83176,0 1.44973,-0.77185 3.24026,-1.70799 5.00318,-2.15762 4.659,-1.18827 3.2706,2.36851 5.07175,5.07023 0.23187,0.34781 0.35046,-0.82546 0.7148,-1.03036 0.8905,-0.50078 4.22421,-2.01595 5.37546,-1.4022 1.64096,0.87481 2.52078,5.34238 3.54905,6.37064 1.27497,1.27498 7.34839,-5.80215 8.5017,-6.39246 1.29849,-0.66461 1.76104,0.7319 2.14676,1.03848 1.22576,0.97423 4.66801,-2.00058 5.6552,-0.7148 0.3305,0.43046 0.32832,0.95244 0.70581,1.27755 0.27731,0.23884 2.07161,0 2.48392,0 1.70481,0 9.09918,0.71269 10.46702,0 2.5853,-1.34701 4.56408,-1.35726 7.68991,-1.35726"
       id="path100817" />
  </g>
</svg>
