<?xml version="1.0" encoding="UTF-8" standalone="no"?>
<!-- Created with Inkscape (http://www.inkscape.org/) -->

<svg
   width="210mm"
   height="297mm"
   viewBox="0 0 210 297"
   version="1.1"
   id="svg100639"
   inkscape:version="1.1.2 (0a00cf5339, 2022-02-04)"
   sodipodi:docname="paper2.svg"
   xmlns:inkscape="http://www.inkscape.org/namespaces/inkscape"
   xmlns:sodipodi="http://sodipodi.sourceforge.net/DTD/sodipodi-0.dtd"
   xmlns="http://www.w3.org/2000/svg"
   xmlns:svg="http://www.w3.org/2000/svg">
  <sodipodi:namedview
     id="namedview100641"
     pagecolor="#505050"
     bordercolor="#ffffff"
     borderopacity="1"
     inkscape:pageshadow="0"
     inkscape:pageopacity="0"
     inkscape:pagecheckerboard="1"
     inkscape:document-units="mm"
     showgrid="false"
     inkscape:zoom="0.74029883"
     inkscape:cx="405.91716"
     inkscape:cy="568.68927"
     inkscape:window-width="1920"
     inkscape:window-height="1011"
     inkscape:window-x="0"
     inkscape:window-y="0"
     inkscape:window-maximized="1"
     inkscape:current-layer="layer1" />
  <defs
     id="defs100636">
    <rect
       x="113.59293"
       y="267.73192"
       width="554.97691"
       height="124.27921"
       id="rect26668" />
    <rect
       x="122.42376"
       y="176.84246"
       width="615.94762"
       height="92.614846"
       id="rect11990" />
  </defs>
  <g
     inkscape:label="Слой 1"
     inkscape:groupmode="layer"
     id="layer1">
    <rect
       style="fill:#fcfcfc;fill-opacity:1;fill-rule:evenodd;stroke:#000000;stroke-width:3;stroke-linecap:square;stroke-miterlimit:4;stroke-dasharray:none;stroke-opacity:1"
       id="rect100665"
       width="208.87262"
       height="297.04294"
       x="0.88503796"
       y="-0.1470046" />
    <path
       style="fill:none;stroke:#5f9363;stroke-width:3;stroke-linecap:butt;stroke-linejoin:miter;stroke-miterlimit:4;stroke-dasharray:none;stroke-opacity:1"
       d="m 30.524541,151.16895 c 4.226002,-3.07149 8.438298,-7.14017 13.766789,-8.22318 1.225254,-0.24903 2.789616,0 4.043527,0 1.387501,0 3.222357,-0.33165 4.548968,0 0.914818,-0.30464 0.940033,0.81879 1.516324,1.01088 2.715734,0.90525 5.336241,2.61909 8.115128,3.55643 0.311346,0.10502 0.692436,-0.14811 0.98574,0 0.88923,0.44905 1.583843,1.68694 2.515018,1.99733 3.245027,1.08168 9.450329,-1.22805 12.663849,-2.03143 1.4756,-0.3689 5.531628,-0.51408 7.076173,0 1.121897,0.3734 1.968754,1.66002 3.017777,2.0097 0.752485,0.25083 3.443039,0.43742 4.052998,0.51491 2.391053,0.30377 4.855282,-0.0641 7.076176,-0.51479 1.678352,-0.34062 3.942882,0.54211 5.569202,0 3.29893,-1.09964 7.10942,-1.65914 10.64208,-2.55505 2.16868,-0.54999 5.00039,0.15948 7.07617,0.50545 2.33945,0.3899 17.18502,0.40435 19.20676,0 1.736,-0.3472 4.57628,-0.85176 6.13008,-1.52534 2.35286,-1.01997 4.56429,-2.9825 6.83255,-4.12197 1.79425,-0.90135 2.28865,4.11654 3.80703,4.87121 0.28853,0.14339 0.70046,0.18161 0.96659,0 1.39169,-0.94974 2.71597,-2.03788 4.07601,-3.04561 1.07722,-0.79818 2.90361,-1.29961 3.53651,-1.89947 0.96511,-0.91474 4.96733,4.35356 5.96028,4.35356"
       id="path78377" />
    <path
       style="fill:none;stroke:#5f9363;stroke-width:3;stroke-linecap:butt;stroke-linejoin:miter;stroke-miterlimit:4;stroke-dasharray:none;stroke-opacity:1"
       d="m 40.700121,189.63697 c 0.817628,4.98553 1.213755,10.03289 2.042832,15.01574 1.605224,9.64757 3.180077,16.20369 3.180077,25.61892 0,1.38986 0.270015,3.18983 0,4.54897 -0.237662,1.19628 -1.182597,2.53475 -1.525886,3.56462 -0.404493,1.21348 0.40223,2.8292 0,4.04352 -1.876711,5.66576 -1.019334,12.60788 -1.019334,18.7028"
       id="path78379" />
    <path
       style="fill:none;stroke:#5f9363;stroke-width:3;stroke-linecap:butt;stroke-linejoin:miter;stroke-miterlimit:4;stroke-dasharray:none;stroke-opacity:1"
       d="m 40.700121,189.63697 c 3.467081,0.10343 6.935266,0.17483 10.401241,0.31029 5.908186,0.23091 11.824079,0.24858 17.730322,0.52472 7.300095,0.34132 14.852544,2.06615 22.239401,1.01088 3.413596,-0.48765 6.750272,-0.84214 10.118235,-1.52573 0.66045,-0.13405 1.38242,0.21311 2.02176,0 1.07333,-0.35777 1.763,-0.94668 2.72362,-0.94668 -0.0382,9.74507 -0.0224,19.49031 -0.0224,29.23546 0,1.96909 -0.39208,4.62005 0,6.58045 1.14809,5.74047 1.02013,11.83679 1.02013,17.75466 0,2.60579 -0.68023,15.14429 0,17.18499 0.62062,1.86184 0.50544,-0.5813 0.50544,0.99407 -12.432938,1.06094 -24.927709,1.00934 -37.407182,1.00934 -3.236768,0 -7.17617,0.54596 -10.391648,0 -3.941845,-0.66928 1.730833,-0.51491 -2.031235,-0.51491 -0.897247,0 -11.998554,-0.94553 -12.062374,-1.01841 -0.109333,-0.12484 0.115663,-0.37885 0,-0.49785 -0.55477,-0.57079 -2.984306,0.39232 -2.956416,0.47743 0.12547,0.38287 0.525863,0.61057 0.788795,0.91586"
       id="path78381" />
    <path
       style="fill:none;stroke:#5f9363;stroke-width:3;stroke-linecap:butt;stroke-linejoin:miter;stroke-miterlimit:4;stroke-dasharray:none;stroke-opacity:1"
       d="m 132.11601,208.52521 c 3.2894,-2.41761 4.45099,-3.76125 8.9564,-4.5114 1.24395,-0.20711 11.06491,2.50851 13.69426,3.04274 2.73157,0.55499 5.51223,-0.50544 8.08706,-0.50544 2.32639,0 7.55525,0.69566 9.60337,0 1.13309,-0.38487 2.42788,-1.5229 3.51597,-1.5229"
       id="path78383" />
    <path
       style="fill:none;stroke:#5f9363;stroke-width:3;stroke-linecap:butt;stroke-linejoin:miter;stroke-miterlimit:4;stroke-dasharray:none;stroke-opacity:1"
       d="m 132.56389,231.96472 c 1.51106,0.47412 2.95261,1.3228 4.53317,1.42236 3.03502,0.19117 6.06589,-0.47721 9.10571,-0.56326 3.59642,-0.10179 7.19863,-0.14444 10.79359,0 2.59402,0.10423 3.38698,2.31582 5.59773,3.05135 3.23523,1.07637 6.77169,-0.0469 10.08563,0.50544 0.52553,0.0876 0.98883,0.43051 1.51632,0.50544 0.92978,0.13206 3.63071,-0.48003 4.56933,0 0.52135,0.26663 2.19268,1.00764 2.36722,1.00764"
       id="path78385" />
    <text
       xml:space="preserve"
       transform="scale(0.26458333)"
       id="text26666"
       style="font-style:normal;font-weight:normal;font-size:40px;line-height:1.25;font-family:sans-serif;white-space:pre;shape-inside:url(#rect26668);fill:#000000;fill-opacity:1;stroke:none" />
    <g
       aria-label="2H2 + O2 = 2H20"
       id="text36376"
       style="font-size:19.7556px;line-height:1.25;stroke-width:0.264583;fill:#5f9363;fill-opacity:1">
      <path
         d="m 35.374908,95.843149 q 0.463022,0.231511 0.463022,0.578778 0.01929,0.347266 -0.212219,0.655947 -0.212218,0.289389 -0.578777,0.44373 -0.347266,0.15434 -0.636655,-0.01929 -0.03859,0.154341 -0.173633,0.212218 -0.115756,0.03859 -0.154341,0.173634 -1.87138,0.289388 -3.81993,0.713825 -1.948551,0.424437 -3.897101,0.636655 -1.504821,-0.05788 -2.508035,-0.443729 -0.405145,-0.347267 -0.617363,-0.868166 -0.192926,-0.5209 -0.231511,-1.099677 -0.03859,-0.578777 0.03858,-1.11897 0.07717,-0.559484 0.231511,-0.964629 1.003214,-1.27331 2.083599,-2.430864 1.099677,-1.176848 2.488742,-2.083599 0.405144,-0.501607 0.945337,-0.848873 0.540192,-0.366559 0.983921,-0.810289 -0.578777,-0.212218 -1.215432,-0.212218 -0.636655,0 -1.254018,0.115756 -0.617362,0.09646 -1.157555,0.250803 -0.540192,0.154341 -0.945336,0.231511 -0.308681,-0.154341 -0.733118,-0.173633 -0.405144,-0.01929 -0.810288,-0.154341 -0.231511,-0.192926 -0.327974,-0.501607 -0.07717,-0.308681 -0.09646,-0.636655 -0.01929,-0.327974 -0.01929,-0.617362 0,-0.308682 -0.07717,-0.501607 0.154341,-0.250804 0.270096,-0.501607 0.135048,-0.250804 0.308682,-0.463022 0.906751,-0.250804 2.006428,-0.405144 1.099677,-0.173634 2.218646,-0.154341 1.11897,0.01929 2.160769,0.289389 1.041799,0.250803 1.852087,0.848873 0.09646,0.540192 0.405145,0.868166 0.308681,0.308681 0.75241,0.482314 0.212218,0.385852 0.366559,0.790996 0.154341,0.385852 0.212218,0.829581 -0.385851,1.022507 -1.099676,1.736332 -0.694533,0.694533 -1.408359,1.27331 -0.385851,0.327974 -0.829581,0.559485 -0.443729,0.231511 -0.771703,0.540192 -0.07717,0.07717 -0.09646,0.212219 -0.01929,0.115755 -0.09646,0.173633 -0.347267,0.308681 -0.771704,0.559484 -0.424436,0.231511 -0.771703,0.540193 -0.250803,0.212218 -0.424436,0.463022 -0.154341,0.250803 -0.424437,0.443729 0.347266,0.115755 0.67524,0.09646 0.347266,-0.01929 0.694533,-0.07717 0.366559,-0.05788 0.733118,-0.115755 0.385851,-0.05788 0.790996,-0.03858 0.559484,-0.192926 1.234725,-0.327974 0.67524,-0.154341 1.35048,-0.115756 0.578777,-0.23151 1.099677,-0.327973 0.540192,-0.115756 1.022507,-0.05788 0.250803,0.09646 0.366559,0.347266 0.135048,0.250804 0.405144,0.347267 -0.05788,0.212218 -0.03858,0.308681 0.03858,0.09646 0.03858,0.347266 z"
         style="font-family:'Permanent Marker';-inkscape-font-specification:'Permanent Marker, Normal';fill:#5f9363;fill-opacity:1"
         id="path48660" />
      <path
         d="m 34.950471,98.54411 q -0.05788,0.01929 -0.07717,-0.03858 -0.01929,-0.05788 -0.01929,-0.115755 0.01929,-0.05788 0.05788,-0.09646 0.05788,-0.03858 0.135048,0 -0.250804,-0.308681 -0.327974,-0.559485 -0.05788,-0.250803 -0.250804,-0.617362 0.05788,-0.05788 0.07717,-0.154341 0.01929,-0.115756 0.05788,-0.212218 0.01929,-0.09646 0.05788,-0.135048 0.05788,-0.05788 0.135048,0.01929 -0.03858,-0.212218 0,-0.347266 0.03859,-0.135048 0.07717,-0.250804 0.05788,-0.115755 0.07717,-0.231511 0.01929,-0.115755 -0.05788,-0.270096 0.366559,-0.501607 0.482315,-1.080384 0.115755,-0.59807 0.135048,-1.080385 0.173633,-0.173633 0.289388,-0.463021 0.135048,-0.289389 0.192926,-0.59807 0.05788,-0.308682 0.05788,-0.59807 0,-0.308682 -0.07717,-0.482315 0.01929,-0.07717 0.07717,-0.07717 0.07717,-0.01929 0.173633,0 0.135048,-0.771703 0.173633,-1.71704 0.05788,-0.945336 0.192926,-1.813502 0.154341,-0.887458 0.482315,-1.543406 0.327973,-0.67524 1.041799,-0.868166 0.135048,0.482314 0.347266,0.848873 0.231511,0.366559 0.482315,0.713826 0.270096,0.347266 0.540192,0.694532 0.270096,0.347267 0.501607,0.771704 -0.01929,0.443729 -0.09646,1.022506 -0.05788,0.578778 -0.173633,1.176848 -0.09646,0.598069 -0.212219,1.157554 -0.09646,0.559485 -0.192925,0.945337 0.01929,0.09646 0.135048,0.135048 0.115755,0.01929 0.03858,0.212218 0.559485,-0.135048 1.157554,-0.250804 0.617363,-0.135048 1.19614,-0.250803 0.59807,-0.135048 1.157555,-0.308681 0.578777,-0.173634 1.080384,-0.424437 0.115756,-0.926044 0.289389,-1.832795 0.173633,-0.906751 0.03859,-1.832795 0.115756,-0.09646 0.192926,-0.231511 0.07717,-0.135048 0.231511,-0.173633 -0.115756,-0.443729 -0.09646,-0.926044 0.01929,-0.501607 0.154341,-0.926044 0.15434,-0.424436 0.443729,-0.733117 0.289389,-0.327974 0.713825,-0.424437 0.250804,0.366559 0.44373,0.790995 0.192925,0.424437 0.385851,0.868166 0.192926,0.424437 0.405144,0.810289 0.231511,0.385851 0.578778,0.655947 0.05788,0.675241 0.09646,1.389066 0.03859,0.694533 0.05788,1.446943 -0.173633,0.868166 -0.405144,1.697747 -0.212218,0.810289 -0.308681,1.736332 -0.154341,0.173634 -0.250804,0.424437 -0.09646,0.231511 -0.192925,0.482314 -0.07717,0.231511 -0.192926,0.463022 -0.115756,0.231511 -0.289389,0.385852 0.07717,0.270096 0.01929,0.5209 -0.03859,0.23151 0.135048,0.559484 0.03858,0.59807 -0.154341,1.003214 -0.173633,0.385852 -0.501607,0.675241 -0.308681,0.270096 -0.733118,0.443729 -0.405144,0.154341 -0.810288,0.289389 -0.192926,-0.115756 -0.366559,-0.231511 -0.154341,-0.135048 -0.385852,-0.192926 l 0.09646,-0.173633 q -0.385851,-0.385852 -0.67524,-0.810289 -0.270096,-0.443729 -0.250804,-1.003214 0,-0.01929 0.03859,-0.250803 0.03859,-0.250804 0.07717,-0.5209 0.05788,-0.270096 0.09646,-0.501607 0.05788,-0.250803 0.05788,-0.270096 -0.540193,0.05788 -1.11897,0.250804 -0.578777,0.192925 -1.138262,0.443729 -0.540192,0.231511 -1.022507,0.501607 -0.463022,0.250803 -0.75241,0.424437 0,0.05788 -0.09646,0.327973 -0.09646,0.270097 -0.231511,0.578778 -0.135048,0.289388 -0.308681,0.520899 -0.154341,0.231511 -0.327974,0.212219 0.03858,0.09646 0.07717,0.15434 0.03859,0.03859 0,0.173634 -0.327974,0.09646 -0.59807,0.250803 -0.250803,0.154341 -0.520899,0.250804 -0.270096,0.115755 -0.59807,0.09646 -0.308682,0 -0.752411,-0.23151 0,-0.135048 -0.115755,-0.231511 -0.115756,-0.115756 -0.250804,-0.192926 -0.115755,-0.07717 -0.212218,-0.135048 -0.09646,-0.05788 -0.09646,-0.115756 z"
         style="font-family:'Permanent Marker';-inkscape-font-specification:'Permanent Marker, Normal';fill:#5f9363;fill-opacity:1"
         id="path48662" />
      <path
         d="m 61.96008,99.794269 q 0.463022,0.231511 0.463022,0.578781 0.01929,0.34726 -0.212218,0.65594 -0.212218,0.28939 -0.578777,0.44373 -0.347267,0.15434 -0.636656,-0.0193 -0.03859,0.15434 -0.173633,0.21222 -0.115755,0.0386 -0.15434,0.17363 -1.87138,0.28939 -3.819931,0.71383 -1.94855,0.42443 -3.897101,0.63665 -1.504821,-0.0579 -2.508035,-0.44373 -0.405144,-0.34726 -0.617362,-0.86816 -0.192926,-0.5209 -0.231511,-1.09968 -0.03859,-0.57878 0.03858,-1.118969 0.07717,-0.559485 0.231511,-0.964629 1.003214,-1.27331 2.083598,-2.430864 1.099677,-1.176848 2.488743,-2.083599 0.405144,-0.501607 0.945336,-0.848873 0.540192,-0.366559 0.983922,-0.810289 -0.578778,-0.212218 -1.215433,-0.212218 -0.636655,0 -1.254017,0.115755 -0.617363,0.09646 -1.157555,0.250804 -0.540192,0.154341 -0.945336,0.231511 -0.308682,-0.154341 -0.733118,-0.173633 -0.405144,-0.01929 -0.810289,-0.154341 -0.23151,-0.192926 -0.327973,-0.501607 -0.07717,-0.308681 -0.09646,-0.636655 -0.01929,-0.327974 -0.01929,-0.617363 0,-0.308681 -0.07717,-0.501607 0.154341,-0.250803 0.270096,-0.501607 0.135048,-0.250803 0.308681,-0.463021 0.906751,-0.250804 2.006428,-0.405145 1.099677,-0.173633 2.218647,-0.15434 1.118969,0.01929 2.160769,0.289388 1.041799,0.250804 1.852087,0.848874 0.09646,0.540192 0.405144,0.868166 0.308681,0.308681 0.752411,0.482314 0.212218,0.385852 0.366559,0.790996 0.15434,0.385852 0.212218,0.829581 -0.385851,1.022507 -1.099677,1.736332 -0.694533,0.694533 -1.408358,1.27331 -0.385852,0.327974 -0.829581,0.559485 -0.443729,0.231511 -0.771703,0.540192 -0.07717,0.07717 -0.09646,0.212218 -0.01929,0.115756 -0.09646,0.173634 -0.347266,0.308681 -0.771703,0.559484 -0.424437,0.231511 -0.771703,0.540193 -0.250804,0.212218 -0.424437,0.463021 -0.15434,0.250804 -0.424436,0.44373 0.347266,0.115755 0.67524,0.09646 0.347266,-0.01929 0.694533,-0.07717 0.366559,-0.05788 0.733118,-0.115755 0.385851,-0.05788 0.790995,-0.03858 0.559485,-0.192926 1.234725,-0.327974 0.67524,-0.154341 1.350481,-0.115756 0.578777,-0.231511 1.099677,-0.327973 0.540192,-0.115756 1.022506,-0.05788 0.250804,0.09646 0.366559,0.347266 0.135048,0.250804 0.405144,0.347267 -0.05788,0.212218 -0.03858,0.308681 0.03858,0.09646 0.03858,0.347266 z"
         style="font-family:'Permanent Marker';-inkscape-font-specification:'Permanent Marker, Normal';baseline-shift:sub;fill:#5f9363;fill-opacity:1"
         id="path48664" />
      <path
         d="m 78.397358,93.45087 q 0.289389,0.03859 0.405145,0.135048 0.135048,0.09646 0.173633,0.250803 0.03858,0.135048 0.01929,0.308682 0,0.173633 0,0.347266 -0.289388,0.192926 -0.733118,0.327974 -0.424436,0.115755 -0.945336,0.192926 -0.5209,0.05788 -1.099677,0.09646 -0.559485,0.01929 -1.118969,0.03859 -0.09646,0.540192 -0.231511,1.157554 -0.135048,0.59807 -0.44373,1.466236 -0.270096,0.59807 -0.617362,0.848874 -0.347267,0.231511 -0.733118,0.231511 -0.366559,0 -0.752411,-0.173634 -0.385851,-0.192925 -0.733118,-0.424436 -0.03859,-0.250804 -0.01929,-0.59807 0.01929,-0.347267 0.05788,-0.733118 0.03858,-0.405144 0.09646,-0.790996 0.07717,-0.405144 0.135048,-0.790996 -0.617362,0.09646 -1.003214,0.173634 -0.366559,0.07717 -0.520899,0.135048 -0.366559,-0.01929 -0.578778,-0.135048 -0.212218,-0.115756 -0.347266,-0.270097 -0.135048,-0.173633 -0.231511,-0.385851 -0.09646,-0.212218 -0.231511,-0.443729 0.07717,-0.154341 0.01929,-0.44373 -0.03859,-0.289388 -0.212219,-0.443729 0.154341,-0.01929 0.231511,-0.212218 0.07717,-0.212219 0,-0.308682 0.308682,-0.07717 0.655948,-0.09646 0.366559,-0.03859 0.713825,-0.05788 0.347267,-0.01929 0.655948,-0.05788 0.308681,-0.05788 0.540192,-0.173633 0.270096,0 0.501607,0 0.250804,-0.01929 0.5209,-0.01929 0.05788,-0.250803 -0.01929,-0.424436 -0.07717,-0.173634 -0.03858,-0.308682 0.03858,-0.09646 0.135048,-0.115755 0.115756,-0.03858 0.135048,-0.135048 0.07717,-0.250804 0.03858,-0.385852 -0.03858,-0.15434 0.07717,-0.385851 0.09646,-0.154341 0.250803,-0.482315 0.173633,-0.327974 0.135048,-0.694533 0.192926,-0.135048 0.347267,-0.308681 0.173633,-0.173633 0.347266,-0.308681 0.192926,-0.154341 0.405144,-0.250804 0.231511,-0.115755 0.559485,-0.115755 0.173633,0.212218 0.250803,0.405144 0.07717,0.192926 0.154341,0.366559 0.07717,0.173633 0.192926,0.327974 0.135048,0.15434 0.385851,0.289389 0,0.173633 -0.05788,0.424436 -0.05788,0.250804 -0.09646,0.501607 -0.03858,0.250804 -0.01929,0.44373 0.01929,0.192925 0.192926,0.270096 -0.07717,0.212218 -0.154341,0.424436 -0.05788,0.192926 -0.115755,0.385852 0.327974,0.05788 0.75241,0.07717 0.424437,0 0.810289,0.07717 0.385851,0.05788 0.694533,0.231511 0.327973,0.15434 0.463021,0.540192 z"
         style="font-family:'Permanent Marker';-inkscape-font-specification:'Permanent Marker, Normal';fill:#5f9363;fill-opacity:1"
         id="path48666" />
      <path
         d="m 91.960043,99.277228 q -0.848873,0.115756 -1.543406,-0.07717 -0.694533,-0.192926 -1.254018,-0.59807 -0.540192,-0.405144 -0.945336,-0.964629 -0.385852,-0.559485 -0.636655,-1.19614 -0.173633,-1.311895 0.09646,-2.372987 0.270096,-1.080384 0.790995,-1.987135 0.5209,-0.906752 1.176848,-1.697747 0.67524,-0.790996 1.292602,-1.524114 0.135048,0.05788 0.212219,0 0.09646,-0.05788 0.15434,-0.154341 0.07717,-0.09646 0.154341,-0.192925 0.09646,-0.09646 0.212218,-0.135048 0.07717,-0.173634 0.192926,-0.289389 0.135048,-0.115755 0.270096,-0.212218 0.154341,-0.115756 0.270096,-0.231511 0.135048,-0.115756 0.231511,-0.289389 0.192926,-0.03858 0.327974,-0.135048 0.154341,-0.09646 0.270096,-0.212218 0.135048,-0.115756 0.270096,-0.212219 0.135048,-0.09646 0.327974,-0.15434 v -0.250804 q 0.424437,-0.192926 0.617363,-0.424437 0.192925,-0.231511 0.463021,-0.59807 0.212219,-0.01929 0.327974,-0.01929 0.135048,0 0.405144,-0.03858 0.173634,-0.327974 0.327974,-0.482315 0.154341,-0.15434 0.443729,-0.347266 0.289389,0.154341 0.617363,0.192926 0.327974,0.01929 0.59807,0.289388 0.01929,0.231511 0.135048,0.366559 0.115755,0.115756 0.250803,0.231511 0.135049,0.09646 0.270097,0.212219 0.135048,0.115755 0.173633,0.327973 0.09646,0 0.115755,-0.03858 0.03858,-0.03858 0.135048,-0.01929 0.03858,0.15434 0.07717,0.250803 0.03859,0.09646 0.07717,0.173633 0.05788,0.07717 0.09646,0.173634 0.05788,0.09646 0.09646,0.231511 -0.09646,0.231511 -0.173634,0.501607 -0.07717,0.250803 -0.308681,0.347266 0,0.154341 0.115756,0.173633 0.115755,0 0.135048,0.135048 0.01929,0.173633 -0.05788,0.289389 0.540192,0.906751 0.983921,1.909965 0.443728,0.983922 1.003218,1.890673 -0.0386,0.270096 0.0193,0.540192 0.0772,0.250804 0.17363,0.501607 0.11576,0.250804 0.21222,0.501607 0.0965,0.250804 0.13505,0.501607 0.0386,0.327974 0,0.713825 -0.0386,0.366559 -0.15434,0.713826 -0.11576,0.347266 -0.30868,0.655948 -0.19293,0.289388 -0.44373,0.443729 -0.30868,0.385851 -0.771706,0.636655 -0.463021,0.231511 -0.848873,0.559485 -0.270096,0.15434 -0.578777,0.231511 -0.308682,0.05788 -0.636655,0.135048 -0.250804,0.15434 -0.59807,0.308681 -0.347267,0.135048 -0.713826,0.250803 -0.366559,0.115756 -0.733118,0.192926 -0.366559,0.05788 -0.655947,0.01929 -0.694533,0.250803 -1.350481,0.347266 -0.655947,0.09646 -1.543406,-0.09646 z m 0.250803,-7.022498 q -0.192925,0.443729 -0.463021,0.810288 -0.250804,0.347267 -0.501607,0.713826 -0.250804,0.366559 -0.44373,0.790995 -0.173633,0.405144 -0.192926,0.964629 0.385852,0.327974 0.906752,0.405144 0.540192,0.05788 1.099677,0.01929 0.559484,-0.05788 1.118969,-0.154341 0.559485,-0.09646 1.003214,-0.09646 0,-0.173633 0.154341,-0.173633 0.810288,-0.07717 1.504821,-0.443729 0.694533,-0.385852 1.446943,-0.771703 0.09646,-0.231511 0.250804,-0.405144 0.15434,-0.173634 0.173633,-0.501607 -0.09646,-0.173634 -0.135048,-0.289389 -0.01929,-0.115756 -0.01929,-0.347267 -0.501607,-0.694532 -0.868166,-1.504821 -0.366559,-0.82958 -0.848873,-1.562698 -0.03858,0.09646 -0.154341,0.192925 -0.115755,0.09646 -0.250803,-0.03858 -0.05788,0.192926 -0.173633,0.270096 -0.115756,0.05788 -0.270097,0.05788 -0.135048,0 -0.289388,-0.05788 -0.135048,-0.05788 -0.250804,-0.15434 -0.67524,0.540192 -1.35048,1.041799 -0.655948,0.501607 -1.19614,1.176847 -0.09646,0.05788 -0.115755,0.03858 -0.01929,-0.01929 -0.135049,0.01929 z"
         style="font-family:'Permanent Marker';-inkscape-font-specification:'Permanent Marker, Normal';fill:#5f9363;fill-opacity:1"
         id="path48668" />
      <path
         d="m 115.57416,99.794269 q 0.46302,0.231511 0.46302,0.578781 0.0193,0.34726 -0.21222,0.65594 -0.21222,0.28939 -0.57878,0.44373 -0.34726,0.15434 -0.63665,-0.0193 -0.0386,0.15434 -0.17364,0.21222 -0.11575,0.0386 -0.15434,0.17363 -1.87138,0.28939 -3.81993,0.71383 -1.94855,0.42443 -3.8971,0.63665 -1.50482,-0.0579 -2.50803,-0.44373 -0.40515,-0.34726 -0.61736,-0.86816 -0.19293,-0.5209 -0.23152,-1.09968 -0.0386,-0.57878 0.0386,-1.118969 0.0772,-0.559485 0.23151,-0.964629 1.00321,-1.27331 2.0836,-2.430864 1.09968,-1.176848 2.48874,-2.083599 0.40515,-0.501607 0.94534,-0.848873 0.54019,-0.366559 0.98392,-0.810289 -0.57878,-0.212218 -1.21543,-0.212218 -0.63666,0 -1.25402,0.115755 -0.61736,0.09646 -1.15756,0.250804 -0.54019,0.154341 -0.94533,0.231511 -0.30868,-0.154341 -0.73312,-0.173633 -0.40514,-0.01929 -0.81029,-0.154341 -0.23151,-0.192926 -0.32797,-0.501607 -0.0772,-0.308681 -0.0965,-0.636655 -0.0193,-0.327974 -0.0193,-0.617363 0,-0.308681 -0.0772,-0.501607 0.15434,-0.250803 0.2701,-0.501607 0.13505,-0.250803 0.30868,-0.463021 0.90675,-0.250804 2.00643,-0.405145 1.09967,-0.173633 2.21864,-0.15434 1.11897,0.01929 2.16077,0.289388 1.0418,0.250804 1.85209,0.848874 0.0965,0.540192 0.40514,0.868166 0.30869,0.308681 0.75242,0.482314 0.21221,0.385852 0.36655,0.790996 0.15434,0.385852 0.21222,0.829581 -0.38585,1.022507 -1.09967,1.736332 -0.69454,0.694533 -1.40836,1.27331 -0.38585,0.327974 -0.82958,0.559485 -0.44373,0.231511 -0.77171,0.540192 -0.0772,0.07717 -0.0965,0.212218 -0.0193,0.115756 -0.0965,0.173634 -0.34727,0.308681 -0.77171,0.559484 -0.42443,0.231511 -0.7717,0.540193 -0.2508,0.212218 -0.42444,0.463021 -0.15434,0.250804 -0.42443,0.44373 0.34726,0.115755 0.67524,0.09646 0.34726,-0.01929 0.69453,-0.07717 0.36656,-0.05788 0.73312,-0.115755 0.38585,-0.05788 0.79099,-0.03858 0.55949,-0.192926 1.23473,-0.327974 0.67524,-0.154341 1.35048,-0.115756 0.57878,-0.231511 1.09968,-0.327973 0.54019,-0.115756 1.0225,-0.05788 0.25081,0.09646 0.36656,0.347266 0.13505,0.250804 0.40515,0.347267 -0.0579,0.212218 -0.0386,0.308681 0.0386,0.09646 0.0386,0.347266 z"
         style="font-family:'Permanent Marker';-inkscape-font-specification:'Permanent Marker, Normal';baseline-shift:sub;fill:#5f9363;fill-opacity:1"
         id="path48670" />
      <path
         d="m 132.70597,91.290101 q 0.27009,0.03858 0.36655,0.135048 0.0965,0.09646 0.0965,0.231511 0,0.135048 -0.0579,0.308681 -0.0579,0.154341 -0.11576,0.327974 -0.55948,0.308681 -1.44694,0.443729 -0.86816,0.115756 -1.79421,0.173634 -0.92604,0.03858 -1.79421,0.03858 -0.84887,-0.01929 -1.36977,0.03858 -1.0418,0.115755 -1.63987,0.231511 -0.59807,0.09646 -0.84887,0.192926 -0.34727,-0.01929 -0.5402,-0.135048 -0.17363,-0.115756 -0.27009,-0.270097 -0.0772,-0.173633 -0.11576,-0.366559 -0.0193,-0.212218 -0.0965,-0.443729 0.13505,-0.15434 0.17363,-0.424437 0.0386,-0.270096 -0.0965,-0.405144 0.15434,-0.03858 0.2701,-0.212218 0.13504,-0.192926 0.0965,-0.289389 0.34727,-0.07717 0.69453,-0.09646 0.36656,-0.03858 0.71383,-0.05788 0.34726,-0.01929 0.65594,-0.05788 0.32798,-0.03858 0.59807,-0.154341 0.94534,-0.03858 1.98714,-0.05788 1.0418,-0.03859 1.94855,-0.07717 0.28939,0.09646 0.71383,0.115756 0.44373,0 0.84887,0.05788 0.40514,0.03859 0.69453,0.192926 0.30868,0.154341 0.32798,0.559485 z m -1.11897,3.723468 q 0.34726,0.07717 0.40514,0.23151 0.0579,0.154341 -0.0386,0.347267 -0.0965,0.173633 -0.30869,0.366559 -0.19292,0.192926 -0.36655,0.347266 -0.17364,-0.03859 -0.36656,0.07717 -0.19293,0.09646 -0.34727,0.212218 -0.54019,-0.05788 -1.11897,0 -0.55948,0.03858 -1.0418,0.07717 -0.0965,0 -0.11575,0.07717 0,0.07717 -0.0579,0.09646 -0.55949,-0.173633 -1.19614,-0.135048 -0.63666,0.03859 -1.33119,0.154341 -0.69453,0.115756 -1.40836,0.250804 -0.71382,0.115755 -1.42765,0.135048 -0.21222,-0.154341 -0.32797,-0.366559 -0.0965,-0.231511 -0.13505,-0.482315 -0.0386,-0.270096 -0.0386,-0.540192 0.0193,-0.270096 0.0193,-0.540192 0.0579,-0.212219 0.21222,-0.327974 0.15434,-0.115756 0.30868,-0.212218 0.48231,-0.01929 0.86816,-0.05788 0.38585,-0.03858 0.73312,-0.07717 0.36656,-0.03859 0.71383,-0.07717 0.36655,-0.03858 0.79099,-0.05788 0.2508,-0.05788 0.86817,-0.115756 0.5209,-0.03859 1.46623,-0.07717 0.96463,-0.03858 2.58521,-0.03858 -0.0193,0.173633 0.0965,0.250803 0.13505,0.07717 0.2701,0.135048 0.13505,0.03858 0.23151,0.115756 0.11575,0.05788 0.0579,0.231511 z"
         style="font-family:'Permanent Marker';-inkscape-font-specification:'Permanent Marker, Normal';fill:#5f9363;fill-opacity:1"
         id="path48672" />
      <path
         d="m 154.64162,95.843149 q 0.46303,0.231511 0.46303,0.578778 0.0193,0.347266 -0.21222,0.655947 -0.21222,0.289389 -0.57878,0.44373 -0.34727,0.15434 -0.63666,-0.01929 -0.0386,0.154341 -0.17363,0.212218 -0.11575,0.03859 -0.15434,0.173634 -1.87138,0.289388 -3.81993,0.713825 -1.94855,0.424437 -3.8971,0.636655 -1.50482,-0.05788 -2.50804,-0.443729 -0.40514,-0.347267 -0.61736,-0.868166 -0.19292,-0.5209 -0.23151,-1.099677 -0.0386,-0.578777 0.0386,-1.11897 0.0772,-0.559484 0.23151,-0.964629 1.00321,-1.27331 2.0836,-2.430864 1.09967,-1.176848 2.48874,-2.083599 0.40514,-0.501607 0.94533,-0.848873 0.5402,-0.366559 0.98393,-0.810289 -0.57878,-0.212218 -1.21544,-0.212218 -0.63665,0 -1.25401,0.115756 -0.61737,0.09646 -1.15756,0.250803 -0.54019,0.154341 -0.94533,0.231511 -0.30869,-0.154341 -0.73312,-0.173633 -0.40515,-0.01929 -0.81029,-0.154341 -0.23151,-0.192926 -0.32797,-0.501607 -0.0772,-0.308681 -0.0965,-0.636655 -0.0193,-0.327974 -0.0193,-0.617362 0,-0.308682 -0.0772,-0.501607 0.15434,-0.250804 0.2701,-0.501607 0.13504,-0.250804 0.30868,-0.463022 0.90675,-0.250804 2.00642,-0.405144 1.09968,-0.173634 2.21865,-0.154341 1.11897,0.01929 2.16077,0.289389 1.0418,0.250803 1.85209,0.848873 0.0965,0.540192 0.40514,0.868166 0.30868,0.308681 0.75241,0.482314 0.21222,0.385852 0.36656,0.790996 0.15434,0.385852 0.21222,0.829581 -0.38585,1.022507 -1.09968,1.736332 -0.69453,0.694533 -1.40836,1.27331 -0.38585,0.327974 -0.82958,0.559485 -0.44373,0.231511 -0.7717,0.540192 -0.0772,0.07717 -0.0965,0.212219 -0.0193,0.115755 -0.0965,0.173633 -0.34726,0.308681 -0.7717,0.559484 -0.42444,0.231511 -0.7717,0.540193 -0.25081,0.212218 -0.42444,0.463022 -0.15434,0.250803 -0.42444,0.443729 0.34727,0.115755 0.67525,0.09646 0.34726,-0.01929 0.69453,-0.07717 0.36656,-0.05788 0.73312,-0.115755 0.38585,-0.05788 0.79099,-0.03858 0.55949,-0.192926 1.23473,-0.327974 0.67524,-0.154341 1.35048,-0.115756 0.57877,-0.23151 1.09967,-0.327973 0.5402,-0.115756 1.02251,-0.05788 0.2508,0.09646 0.36656,0.347266 0.13505,0.250804 0.40514,0.347267 -0.0579,0.212218 -0.0386,0.308681 0.0386,0.09646 0.0386,0.347266 z"
         style="font-family:'Permanent Marker';-inkscape-font-specification:'Permanent Marker, Normal';fill:#5f9363;fill-opacity:1"
         id="path48674" />
      <path
         d="m 154.21718,98.54411 q -0.0579,0.01929 -0.0772,-0.03858 -0.0193,-0.05788 -0.0193,-0.115755 0.0193,-0.05788 0.0579,-0.09646 0.0579,-0.03858 0.13505,0 -0.25081,-0.308681 -0.32798,-0.559485 -0.0579,-0.250803 -0.2508,-0.617362 0.0579,-0.05788 0.0772,-0.154341 0.0193,-0.115756 0.0579,-0.212218 0.0193,-0.09646 0.0579,-0.135048 0.0579,-0.05788 0.13504,0.01929 -0.0386,-0.212218 0,-0.347266 0.0386,-0.135048 0.0772,-0.250804 0.0579,-0.115755 0.0772,-0.231511 0.0193,-0.115755 -0.0579,-0.270096 0.36656,-0.501607 0.48231,-1.080384 0.11576,-0.59807 0.13505,-1.080385 0.17363,-0.173633 0.28939,-0.463021 0.13505,-0.289389 0.19292,-0.59807 0.0579,-0.308682 0.0579,-0.59807 0,-0.308682 -0.0772,-0.482315 0.0193,-0.07717 0.0772,-0.07717 0.0772,-0.01929 0.17363,0 0.13505,-0.771703 0.17364,-1.71704 0.0579,-0.945336 0.19292,-1.813502 0.15434,-0.887458 0.48232,-1.543406 0.32797,-0.67524 1.0418,-0.868166 0.13504,0.482314 0.34726,0.848873 0.23151,0.366559 0.48232,0.713826 0.27009,0.347266 0.54019,0.694532 0.2701,0.347267 0.50161,0.771704 -0.0193,0.443729 -0.0965,1.022506 -0.0579,0.578778 -0.17363,1.176848 -0.0965,0.598069 -0.21222,1.157554 -0.0965,0.559485 -0.19292,0.945337 0.0193,0.09646 0.13504,0.135048 0.11576,0.01929 0.0386,0.212218 0.55948,-0.135048 1.15755,-0.250804 0.61737,-0.135048 1.19614,-0.250803 0.59807,-0.135048 1.15756,-0.308681 0.57878,-0.173634 1.08038,-0.424437 0.11576,-0.926044 0.28939,-1.832795 0.17364,-0.906751 0.0386,-1.832795 0.11575,-0.09646 0.19292,-0.231511 0.0772,-0.135048 0.23151,-0.173633 -0.11575,-0.443729 -0.0965,-0.926044 0.0193,-0.501607 0.15434,-0.926044 0.15434,-0.424436 0.44373,-0.733117 0.28939,-0.327974 0.71383,-0.424437 0.2508,0.366559 0.44373,0.790995 0.19292,0.424437 0.38585,0.868166 0.19292,0.424437 0.40514,0.810289 0.23151,0.385851 0.57878,0.655947 0.0579,0.675241 0.0965,1.389066 0.0386,0.694533 0.0579,1.446943 -0.17363,0.868166 -0.40514,1.697747 -0.21222,0.810289 -0.30869,1.736332 -0.15434,0.173634 -0.2508,0.424437 -0.0965,0.231511 -0.19293,0.482314 -0.0772,0.231511 -0.19292,0.463022 -0.11576,0.231511 -0.28939,0.385852 0.0772,0.270096 0.0193,0.5209 -0.0386,0.23151 0.13505,0.559484 0.0386,0.59807 -0.15434,1.003214 -0.17363,0.385852 -0.50161,0.675241 -0.30868,0.270096 -0.73311,0.443729 -0.40515,0.154341 -0.81029,0.289389 -0.19293,-0.115756 -0.36656,-0.231511 -0.15434,-0.135048 -0.38585,-0.192926 l 0.0965,-0.173633 q -0.38585,-0.385852 -0.67524,-0.810289 -0.2701,-0.443729 -0.2508,-1.003214 0,-0.01929 0.0386,-0.250803 0.0386,-0.250804 0.0772,-0.5209 0.0579,-0.270096 0.0965,-0.501607 0.0579,-0.250803 0.0579,-0.270096 -0.54019,0.05788 -1.11897,0.250804 -0.57878,0.192925 -1.13826,0.443729 -0.54019,0.231511 -1.02251,0.501607 -0.46302,0.250803 -0.75241,0.424437 0,0.05788 -0.0965,0.327973 -0.0965,0.270097 -0.23151,0.578778 -0.13505,0.289388 -0.30868,0.520899 -0.15434,0.231511 -0.32798,0.212219 0.0386,0.09646 0.0772,0.15434 0.0386,0.03859 0,0.173634 -0.32797,0.09646 -0.59807,0.250803 -0.2508,0.154341 -0.5209,0.250804 -0.27009,0.115755 -0.59807,0.09646 -0.30868,0 -0.75241,-0.23151 0,-0.135048 -0.11575,-0.231511 -0.11576,-0.115756 -0.2508,-0.192926 -0.11576,-0.07717 -0.21222,-0.135048 -0.0965,-0.05788 -0.0965,-0.115756 z"
         style="font-family:'Permanent Marker';-inkscape-font-specification:'Permanent Marker, Normal';fill:#5f9363;fill-opacity:1"
         id="path48676" />
      <path
         d="m 181.22681,99.794269 q 0.46302,0.231511 0.46302,0.578781 0.0193,0.34726 -0.21222,0.65594 -0.21222,0.28939 -0.57878,0.44373 -0.34726,0.15434 -0.63665,-0.0193 -0.0386,0.15434 -0.17364,0.21222 -0.11575,0.0386 -0.15434,0.17363 -1.87138,0.28939 -3.81993,0.71383 -1.94855,0.42443 -3.8971,0.63665 -1.50482,-0.0579 -2.50803,-0.44373 -0.40515,-0.34726 -0.61737,-0.86816 -0.19292,-0.5209 -0.23151,-1.09968 -0.0386,-0.57878 0.0386,-1.118969 0.0772,-0.559485 0.23151,-0.964629 1.00321,-1.27331 2.0836,-2.430864 1.09967,-1.176848 2.48874,-2.083599 0.40514,-0.501607 0.94534,-0.848873 0.54019,-0.366559 0.98392,-0.810289 -0.57878,-0.212218 -1.21543,-0.212218 -0.63666,0 -1.25402,0.115755 -0.61736,0.09646 -1.15756,0.250804 -0.54019,0.154341 -0.94533,0.231511 -0.30868,-0.154341 -0.73312,-0.173633 -0.40514,-0.01929 -0.81029,-0.154341 -0.23151,-0.192926 -0.32797,-0.501607 -0.0772,-0.308681 -0.0965,-0.636655 -0.0193,-0.327974 -0.0193,-0.617363 0,-0.308681 -0.0772,-0.501607 0.15434,-0.250803 0.2701,-0.501607 0.13505,-0.250803 0.30868,-0.463021 0.90675,-0.250804 2.00643,-0.405145 1.09967,-0.173633 2.21864,-0.15434 1.11897,0.01929 2.16077,0.289388 1.0418,0.250804 1.85209,0.848874 0.0965,0.540192 0.40514,0.868166 0.30869,0.308681 0.75241,0.482314 0.21222,0.385852 0.36656,0.790996 0.15434,0.385852 0.21222,0.829581 -0.38585,1.022507 -1.09968,1.736332 -0.69453,0.694533 -1.40835,1.27331 -0.38586,0.327974 -0.82958,0.559485 -0.44373,0.231511 -0.77171,0.540192 -0.0772,0.07717 -0.0965,0.212218 -0.0193,0.115756 -0.0965,0.173634 -0.34727,0.308681 -0.77171,0.559484 -0.42443,0.231511 -0.7717,0.540193 -0.2508,0.212218 -0.42444,0.463021 -0.15434,0.250804 -0.42443,0.44373 0.34726,0.115755 0.67524,0.09646 0.34726,-0.01929 0.69453,-0.07717 0.36656,-0.05788 0.73312,-0.115755 0.38585,-0.05788 0.79099,-0.03858 0.55949,-0.192926 1.23473,-0.327974 0.67524,-0.154341 1.35048,-0.115756 0.57878,-0.231511 1.09968,-0.327973 0.54019,-0.115756 1.0225,-0.05788 0.25081,0.09646 0.36656,0.347266 0.13505,0.250804 0.40515,0.347267 -0.0579,0.212218 -0.0386,0.308681 0.0386,0.09646 0.0386,0.347266 z"
         style="font-family:'Permanent Marker';-inkscape-font-specification:'Permanent Marker, Normal';baseline-shift:sub;fill:#5f9363;fill-opacity:1"
         id="path48678" />
      <path
         d="m 184.83451,99.528032 q -0.75241,0.115755 -1.38907,-0.07717 -0.63665,-0.192925 -1.13826,-0.617362 -0.48231,-0.424437 -0.84887,-1.003214 -0.36656,-0.578777 -0.59807,-1.234725 -0.15434,-1.369773 0.0965,-2.488743 0.2508,-1.118969 0.71382,-2.064305 0.48232,-0.945337 1.08039,-1.755625 0.59807,-0.829581 1.15755,-1.581992 0.11576,0.05788 0.19293,0 0.0772,-0.07717 0.13505,-0.173633 0.0772,-0.09646 0.13505,-0.192925 0.0772,-0.09646 0.19292,-0.135049 0.0772,-0.173633 0.19293,-0.289388 0.11575,-0.135048 0.23151,-0.250804 0.13505,-0.115755 0.2508,-0.231511 0.11576,-0.115755 0.19293,-0.289388 0.17363,-0.03858 0.30868,-0.135048 0.13505,-0.115756 0.2508,-0.231511 0.11576,-0.115756 0.23151,-0.212219 0.13505,-0.115755 0.30868,-0.173633 v -0.250803 q 0.38586,-0.212219 0.55949,-0.44373 0.17363,-0.250803 0.42444,-0.617362 0.19292,-0.03858 0.30868,-0.01929 0.11575,0 0.32797,-0.03858 0.17363,-0.327974 0.30868,-0.501607 0.13505,-0.173633 0.40515,-0.385852 0.2508,0.154341 0.55948,0.212219 0.30868,0.03858 0.5209,0.289389 0.0193,0.250803 0.11576,0.385851 0.11575,0.135048 0.2508,0.250804 0.13505,0.09646 0.2508,0.231511 0.11576,0.115755 0.15434,0.327973 0.0772,0 0.0965,-0.03859 0.0386,-0.03858 0.11575,-0.01929 0.0386,0.173633 0.0772,0.270096 0.0386,0.09646 0.0772,0.192925 0.0386,0.07717 0.0772,0.173634 0.0579,0.07717 0.0965,0.231511 -0.0965,0.231511 -0.17364,0.501607 -0.0579,0.270096 -0.27009,0.366559 0,0.15434 0.0965,0.173633 0.11576,0.01929 0.13505,0.15434 0,0.192926 -0.0579,0.308682 0.50161,0.945336 0.88746,1.987135 0.40514,1.022507 0.90675,1.948551 -0.0386,0.289388 0.0193,0.559484 0.0772,0.270097 0.15434,0.540193 0.0965,0.250803 0.17364,0.501607 0.0965,0.250803 0.13504,0.520899 0.0386,0.347267 0,0.752411 -0.0193,0.385851 -0.13504,0.75241 -0.0965,0.366559 -0.2701,0.675241 -0.17363,0.308681 -0.40514,0.463021 -0.0386,-0.01929 -0.21222,0.115756 -0.17364,0.115755 -0.40515,0.308681 -0.21222,0.192926 -0.44373,0.424437 -0.23151,0.231511 -0.40514,0.405144 -0.23151,0.154341 -0.5209,0.231511 -0.2701,0.05788 -0.55948,0.135048 -0.23152,0.154341 -0.55949,0.327974 -0.30868,0.15434 -0.65595,0.270096 -0.32797,0.115755 -0.65594,0.173633 -0.32798,0.07717 -0.57878,0.03858 -0.63666,0.270096 -1.23473,0.347267 -0.57877,0.09646 -1.38906,-0.09646 z m 0.42443,-7.292595 q -0.15434,0.463022 -0.36655,0.829581 -0.21222,0.366559 -0.42444,0.752411 -0.19293,0.385851 -0.34727,0.829581 -0.13505,0.424436 -0.15434,1.003214 0.30868,0.327973 0.73312,0.405144 0.44373,0.07717 0.88746,0.01929 0.46302,-0.05788 0.90675,-0.15434 0.44373,-0.09646 0.81029,-0.115756 0,-0.173633 0.13505,-0.15434 0.63665,-0.07717 1.19614,-0.463022 0.57877,-0.405144 1.19614,-0.810289 0.0772,-0.250803 0.19292,-0.424436 0.13505,-0.173633 0.13505,-0.501607 -0.0772,-0.212219 -0.0965,-0.308682 -0.0193,-0.115755 -0.0193,-0.366559 -0.40514,-0.733117 -0.71382,-1.581991 -0.28939,-0.868166 -0.67524,-1.601284 -0.0386,0.09646 -0.13505,0.192926 -0.0965,0.09646 -0.21222,-0.03858 -0.0965,0.385851 -0.34726,0.347266 -0.23152,-0.03858 -0.44373,-0.231511 -0.5402,0.559485 -1.08039,1.099677 -0.54019,0.5209 -0.96463,1.215433 -0.0772,0.05788 -0.0965,0.03858 -0.0193,-0.03858 -0.11576,0.01929 z"
         style="font-family:'Permanent Marker';-inkscape-font-specification:'Permanent Marker, Normal';fill:#5f9363;fill-opacity:1"
         id="path48680" />
    </g>
  </g>
</svg>
