<?xml version="1.0" encoding="UTF-8" standalone="no"?>
<!-- Created with Inkscape (http://www.inkscape.org/) -->

<svg
   width="210mm"
   height="297mm"
   viewBox="0 0 210 297"
   version="1.1"
   id="svg100639"
   inkscape:version="1.1.2 (0a00cf5339, 2022-02-04)"
   sodipodi:docname="paper2.svg"
   xmlns:inkscape="http://www.inkscape.org/namespaces/inkscape"
   xmlns:sodipodi="http://sodipodi.sourceforge.net/DTD/sodipodi-0.dtd"
   xmlns="http://www.w3.org/2000/svg"
   xmlns:svg="http://www.w3.org/2000/svg">
  <sodipodi:namedview
     id="namedview100641"
     pagecolor="#505050"
     bordercolor="#ffffff"
     borderopacity="1"
     inkscape:pageshadow="0"
     inkscape:pageopacity="0"
     inkscape:pagecheckerboard="1"
     inkscape:document-units="mm"
     showgrid="false"
     inkscape:zoom="0.52347032"
     inkscape:cx="288.45953"
     inkscape:cy="678.16644"
     inkscape:window-width="1920"
     inkscape:window-height="1011"
     inkscape:window-x="0"
     inkscape:window-y="0"
     inkscape:window-maximized="1"
     inkscape:current-layer="layer1" />
  <defs
     id="defs100636">
    <rect
       x="122.42376"
       y="176.84246"
       width="615.94762"
       height="92.614846"
       id="rect11990" />
  </defs>
  <g
     inkscape:label="Слой 1"
     inkscape:groupmode="layer"
     id="layer1">
    <rect
       style="fill:#fcfcfc;fill-rule:evenodd;stroke-width:3;stroke-linecap:square;fill-opacity:1;stroke:#000000;stroke-opacity:1;stroke-miterlimit:4;stroke-dasharray:none"
       id="rect100665"
       width="208.87262"
       height="297.04294"
       x="0.88503796"
       y="-0.1470046" />
    <g
       aria-label="2H2 + O2 = 2H2O"
       transform="matrix(0.26458333,0,0,0.26458333,-4.188521,36.437961)"
       id="text11988"
       style="font-size:74.6667px;line-height:1.25;white-space:pre;shape-inside:url(#rect11990);fill:#5f9363">
      <path
         d="m 159.17385,242.97725 q -0.91146,0 -2.58855,-0.54688 -1.64062,-0.58333 -2.51562,-0.58333 -1.85938,0 -5.57813,0.21875 -3.71875,0.21875 -5.61459,0.21875 -1.42187,0 -4.22917,0.36458 -2.77083,0.36458 -4.19271,0.36458 -0.40104,0 -1.16666,-0.14583 -0.76563,-0.14583 -1.16667,-0.14583 -2.51563,0 -3.28125,-2.44271 -0.4375,-1.27605 -0.4375,-4.375 0,-8.4948 4.63021,-13.67189 2.11458,-2.36979 11.41146,-8.75 5.21355,-3.57292 6.96355,-5.57813 3.13542,-3.5 3.13542,-8.20313 0,-2.33333 -3.02605,-4.15625 -2.66146,-1.64062 -5.21354,-1.64062 -3.35417,0 -6.38021,1.93229 l -5.21355,4.08333 q -1.56771,1.23959 -2.51562,1.23959 -3.75521,0 -3.75521,-2.98959 0,-1.71354 1.38541,-2.95312 4.26563,-4.01042 7.40105,-5.79688 4.41146,-2.51563 9.07813,-2.51563 5.90625,0 10.53646,3.20834 5.17709,3.60937 5.17709,9.26042 0,3.71875 -1.0573,6.85417 -1.05729,3.13542 -3.20833,5.72396 -2.73438,3.28125 -9.26042,7.32813 -6.85417,4.30208 -9.00521,6.52604 -4.04688,4.19271 -3.97396,10.17188 l 7.51042,-0.69271 q 7.72917,-0.4375 11.04688,-0.4375 2.77083,0 5.25,0.94792 3.28125,1.27604 3.28125,3.53646 0,1.42188 -0.98437,2.55208 -0.98438,1.09376 -2.44271,1.09376 z"
         style="font-family:'Comic Sans MS';-inkscape-font-specification:'Comic Sans MS'"
         id="path78300" />
      <path
         d="m 221.08012,191.53451 q -0.54687,1.53125 -0.54687,4.48438 0,1.09375 0.0729,3.24479 0.0729,2.15105 0.0729,3.2448 0,3.64583 -0.65625,10.86458 -0.61979,7.21876 -0.61979,10.86459 0,2.77084 0.40104,8.31251 0.40104,5.54167 0.40104,8.34896 0,1.49479 -1.02083,2.51563 -0.98438,1.02083 -2.47917,1.02083 -1.45833,0 -2.47917,-1.02083 -1.02083,-1.02084 -1.02083,-2.51563 0,-2.80729 -0.40104,-8.34896 -0.40104,-5.54167 -0.40104,-8.31251 0,-2.66146 0.18229,-5.39583 -6.23438,0.10937 -15.42188,1.85937 l -15.31251,2.98959 q 0,3.28125 -0.65625,9.33334 -0.65625,6.01562 -0.65625,9.33333 0,1.4948 -1.02084,2.51563 -0.98437,1.05729 -2.47916,1.05729 -1.4948,0 -2.51563,-1.05729 -0.98438,-1.02083 -0.98438,-2.51563 0,-3.86458 0.6198,-11.52084 0.65625,-7.69271 0.65625,-11.55729 0,-2.00521 -0.14584,-6.05209 -0.14583,-4.04688 -0.14583,-6.08854 0,-2.88021 0.36458,-8.64063 0.36459,-5.79688 0.36459,-8.67709 0,-1.53125 0.98437,-2.55208 1.02084,-1.02084 2.51563,-1.02084 1.49479,0 2.47917,1.02084 1.02083,1.02083 1.02083,2.55208 0,2.91667 -0.40104,8.75 -0.36459,5.79688 -0.36459,8.71355 l 0.21876,9.22396 15.64063,-2.95312 q 9.36979,-1.75 15.78646,-1.82292 0.40105,-5.21355 0.40105,-15.71355 0,-2.77084 0.91145,-5.61459 1.20313,-3.90104 3.39063,-3.90104 1.38542,0 2.47917,1.02083 1.09375,0.98438 1.09375,2.51563 0,0.54688 -0.32813,1.49479 z"
         style="font-family:'Comic Sans MS';-inkscape-font-specification:'Comic Sans MS'"
         id="path78302" />
      <path
         d="m 249.23326,257.88506 q -0.59245,0 -1.68255,-0.35546 -1.06641,-0.37917 -1.63516,-0.37917 -1.20859,0 -3.62578,0.14219 -2.41719,0.14218 -3.64948,0.14218 -0.92422,0 -2.74896,0.23698 -1.80105,0.23698 -2.72526,0.23698 -0.26068,0 -0.75834,-0.0948 -0.49766,-0.0948 -0.75833,-0.0948 -1.63516,0 -2.13282,-1.58776 -0.28437,-0.82943 -0.28437,-2.84375 0,-5.52162 3.00964,-8.88673 1.37448,-1.54036 7.41745,-5.6875 3.3888,-2.3224 4.5263,-3.62578 2.03802,-2.275 2.03802,-5.33204 0,-1.51666 -1.96692,-2.70156 -1.72995,-1.06641 -3.38881,-1.06641 -2.18021,0 -4.14714,1.25599 l -3.3888,2.65417 q -1.01901,0.80573 -1.63516,0.80573 -2.44088,0 -2.44088,-1.94323 0,-1.1138 0.90052,-1.91953 2.77266,-2.60677 4.81068,-3.76797 2.86745,-1.63516 5.90078,-1.63516 3.83907,0 6.8487,2.08542 3.36511,2.34609 3.36511,6.01927 0,2.41719 -0.68724,4.45521 -0.68724,2.03803 -2.08542,3.72058 -1.77734,2.13281 -6.01927,4.76328 -4.45521,2.79636 -5.85339,4.24193 -2.63047,2.72526 -2.58308,6.61172 l 4.88178,-0.45026 q 5.02396,-0.28437 7.18047,-0.28437 1.80104,0 3.4125,0.61614 2.13282,0.82943 2.13282,2.2987 0,0.92422 -0.63985,1.65886 -0.63984,0.71093 -1.58776,0.71093 z"
         style="font-size:65%;baseline-shift:sub"
         id="path78304" />
      <path
         d="m 310.56714,219.46161 q 0,1.34896 -0.91145,2.36979 -0.875,0.98438 -2.22396,0.98438 -0.4375,0 -1.3125,-0.14584 -0.875,-0.14583 -1.34896,-0.14583 l -3.64584,0.0729 q -2.22396,0.0729 -3.64583,0 v 8.56771 q 0,3.28125 -3.2448,3.28125 -1.60416,0 -2.44271,-0.80208 -0.80208,-0.83854 -0.80208,-2.47917 l -0.0365,-4.19271 -0.0365,-4.22917 q -4.41146,0.25521 -6.23437,0.25521 -5.65105,0 -5.65105,-3.35417 0,-2.36979 2.00521,-2.95313 0.69271,-0.18229 3.64584,-0.18229 1.82291,0 6.23437,-0.25521 l -0.0365,-4.26562 q 0,-3.31771 0.32813,-4.59376 0.36458,-1.3125 1.13021,-1.96875 0.76562,-0.65625 1.96875,-0.65625 1.38542,0 2.33333,0.91146 0.98438,0.875 0.98438,2.26042 0,0.61979 -0.14583,1.96875 -0.10938,1.34896 -0.10938,2.04167 l 0.0365,4.15625 2.73438,0.10938 q 0.72916,0 2.22396,-0.0729 1.49479,-0.10938 2.22395,-0.10938 5.97917,0 5.97917,3.42709 z"
         style="font-family:'Comic Sans MS';-inkscape-font-specification:'Comic Sans MS'"
         id="path78306" />
      <path
         d="m 364.7078,245.12829 q -10.28126,0 -17.42709,-6.16146 -7.58334,-6.56251 -7.58334,-16.91668 0,-12.61459 7.47396,-22.9323 8.34896,-11.44792 20.81772,-11.44792 11.9948,0 17.82813,5.39583 6.08855,5.61459 6.08855,17.71876 0,12.61459 -6.85417,22.75001 -7.87501,11.59376 -20.34376,11.59376 z m 3.28125,-49.9844 q -8.9323,0 -15.13022,8.89584 -5.72396,8.16667 -5.72396,18.01042 0,7.03646 5.21355,11.44792 4.99479,4.15626 12.35938,4.15626 8.85938,0 14.6198,-8.9323 5.14062,-7.98438 5.14062,-17.93751 0,-8.71354 -3.90104,-12.25 -3.71875,-3.39063 -12.57813,-3.39063 z"
         style="font-family:'Comic Sans MS';-inkscape-font-specification:'Comic Sans MS'"
         id="path78308" />
      <path
         d="m 418.96512,257.88506 q -0.59245,0 -1.68256,-0.35546 -1.0664,-0.37917 -1.63515,-0.37917 -1.2086,0 -3.62579,0.14219 -2.41718,0.14218 -3.64948,0.14218 -0.92422,0 -2.74896,0.23698 -1.80104,0.23698 -2.72526,0.23698 -0.26067,0 -0.75833,-0.0948 -0.49766,-0.0948 -0.75834,-0.0948 -1.63515,0 -2.13281,-1.58776 -0.28437,-0.82943 -0.28437,-2.84375 0,-5.52162 3.00963,-8.88673 1.37448,-1.54036 7.41745,-5.6875 3.38881,-2.3224 4.52631,-3.62578 2.03802,-2.275 2.03802,-5.33204 0,-1.51666 -1.96693,-2.70156 -1.72995,-1.06641 -3.3888,-1.06641 -2.18021,0 -4.14714,1.25599 l -3.3888,2.65417 q -1.01901,0.80573 -1.63516,0.80573 -2.44089,0 -2.44089,-1.94323 0,-1.1138 0.90053,-1.91953 2.77265,-2.60677 4.81067,-3.76797 2.86745,-1.63516 5.90079,-1.63516 3.83906,0 6.8487,2.08542 3.36511,2.34609 3.36511,6.01927 0,2.41719 -0.68724,4.45521 -0.68724,2.03803 -2.08542,3.72058 -1.77735,2.13281 -6.01928,4.76328 -4.45521,2.79636 -5.85338,4.24193 -2.63047,2.72526 -2.58308,6.61172 l 4.88178,-0.45026 q 5.02396,-0.28437 7.18047,-0.28437 1.80104,0 3.4125,0.61614 2.13281,0.82943 2.13281,2.2987 0,0.92422 -0.63984,1.65886 -0.63985,0.71093 -1.58776,0.71093 z"
         style="font-size:65%;baseline-shift:sub"
         id="path78310" />
      <path
         d="m 458.82502,206.48244 17.02605,0.0365 q 3.24479,0 3.24479,3.2448 0,3.24479 -3.24479,3.24479 l -17.06251,-0.0365 q -0.83854,0 -2.51563,0.10938 -1.64062,0.0729 -2.44271,0.0729 -1.42187,0 -2.33333,-0.94791 -0.875,-0.94792 -0.875,-2.33334 0,-2.625 3.0625,-3.20833 0.80208,-0.18229 5.14063,-0.18229 z m 2.07812,19.57813 q 2.40625,0 7.21876,0.10938 4.8125,0.10937 7.21875,0.10937 3.24479,0 3.24479,3.24479 0,3.2448 -3.24479,3.2448 -2.40625,0 -7.21875,-0.10938 -4.81251,-0.10937 -7.21876,-0.10937 -1.09375,0 -3.28125,0.14583 -2.1875,0.14583 -3.24479,0.14583 -3.35417,0 -3.35417,-3.24479 0,-2.98958 3.13542,-3.24479 4.04688,-0.29167 6.74479,-0.29167 z"
         style="font-family:'Comic Sans MS';-inkscape-font-specification:'Comic Sans MS'"
         id="path78312" />
      <path
         d="m 544.17403,242.97725 q -0.91146,0 -2.58854,-0.54688 -1.64063,-0.58333 -2.51563,-0.58333 -1.85938,0 -5.57813,0.21875 -3.71875,0.21875 -5.61458,0.21875 -1.42188,0 -4.22917,0.36458 -2.77084,0.36458 -4.19271,0.36458 -0.40104,0 -1.16667,-0.14583 -0.76563,-0.14583 -1.16667,-0.14583 -2.51562,0 -3.28125,-2.44271 -0.4375,-1.27605 -0.4375,-4.375 0,-8.4948 4.63021,-13.67189 2.11459,-2.36979 11.41147,-8.75 5.21354,-3.57292 6.96354,-5.57813 3.13542,-3.5 3.13542,-8.20313 0,-2.33333 -3.02604,-4.15625 -2.66146,-1.64062 -5.21355,-1.64062 -3.35417,0 -6.38021,1.93229 l -5.21354,4.08333 q -1.56771,1.23959 -2.51563,1.23959 -3.75521,0 -3.75521,-2.98959 0,-1.71354 1.38542,-2.95312 4.26562,-4.01042 7.40104,-5.79688 4.41146,-2.51563 9.07813,-2.51563 5.90625,0 10.53646,3.20834 5.17709,3.60937 5.17709,9.26042 0,3.71875 -1.05729,6.85417 -1.05729,3.13542 -3.20834,5.72396 -2.73437,3.28125 -9.26042,7.32813 -6.85417,4.30208 -9.00521,6.52604 -4.04688,4.19271 -3.97396,10.17188 l 7.51042,-0.69271 q 7.72917,-0.4375 11.04688,-0.4375 2.77083,0 5.25,0.94792 3.28125,1.27604 3.28125,3.53646 0,1.42188 -0.98437,2.55208 -0.98438,1.09376 -2.44271,1.09376 z"
         style="font-family:'Comic Sans MS';-inkscape-font-specification:'Comic Sans MS'"
         id="path78314" />
      <path
         d="m 606.08031,191.53451 q -0.54688,1.53125 -0.54688,4.48438 0,1.09375 0.0729,3.24479 0.0729,2.15105 0.0729,3.2448 0,3.64583 -0.65626,10.86458 -0.61979,7.21876 -0.61979,10.86459 0,2.77084 0.40104,8.31251 0.40105,5.54167 0.40105,8.34896 0,1.49479 -1.02084,2.51563 -0.98437,1.02083 -2.47917,1.02083 -1.45833,0 -2.47916,-1.02083 -1.02084,-1.02084 -1.02084,-2.51563 0,-2.80729 -0.40104,-8.34896 -0.40104,-5.54167 -0.40104,-8.31251 0,-2.66146 0.18229,-5.39583 -6.23438,0.10937 -15.42188,1.85937 l -15.31251,2.98959 q 0,3.28125 -0.65625,9.33334 -0.65625,6.01562 -0.65625,9.33333 0,1.4948 -1.02083,2.51563 -0.98438,1.05729 -2.47917,1.05729 -1.49479,0 -2.51563,-1.05729 -0.98437,-1.02083 -0.98437,-2.51563 0,-3.86458 0.61979,-11.52084 0.65625,-7.69271 0.65625,-11.55729 0,-2.00521 -0.14583,-6.05209 -0.14584,-4.04688 -0.14584,-6.08854 0,-2.88021 0.36459,-8.64063 0.36458,-5.79688 0.36458,-8.67709 0,-1.53125 0.98438,-2.55208 1.02083,-1.02084 2.51562,-1.02084 1.49479,0 2.47917,1.02084 1.02083,1.02083 1.02083,2.55208 0,2.91667 -0.40104,8.75 -0.36458,5.79688 -0.36458,8.71355 l 0.21875,9.22396 15.64063,-2.95312 q 9.3698,-1.75 15.78647,-1.82292 0.40104,-5.21355 0.40104,-15.71355 0,-2.77084 0.91146,-5.61459 1.20312,-3.90104 3.39062,-3.90104 1.38542,0 2.47917,1.02083 1.09375,0.98438 1.09375,2.51563 0,0.54688 -0.32812,1.49479 z"
         style="font-family:'Comic Sans MS';-inkscape-font-specification:'Comic Sans MS'"
         id="path78316" />
      <path
         d="m 634.23346,257.88506 q -0.59245,0 -1.68255,-0.35546 -1.06641,-0.37917 -1.63516,-0.37917 -1.2086,0 -3.62578,0.14219 -2.41719,0.14218 -3.64949,0.14218 -0.92421,0 -2.74895,0.23698 -1.80105,0.23698 -2.72527,0.23698 -0.26067,0 -0.75833,-0.0948 -0.49766,-0.0948 -0.75833,-0.0948 -1.63516,0 -2.13282,-1.58776 -0.28437,-0.82943 -0.28437,-2.84375 0,-5.52162 3.00963,-8.88673 1.37448,-1.54036 7.41746,-5.6875 3.3888,-2.3224 4.5263,-3.62578 2.03802,-2.275 2.03802,-5.33204 0,-1.51666 -1.96693,-2.70156 -1.72995,-1.06641 -3.3888,-1.06641 -2.18021,0 -4.14714,1.25599 l -3.3888,2.65417 q -1.01901,0.80573 -1.63516,0.80573 -2.44088,0 -2.44088,-1.94323 0,-1.1138 0.90052,-1.91953 2.77265,-2.60677 4.81068,-3.76797 2.86745,-1.63516 5.90078,-1.63516 3.83906,0 6.8487,2.08542 3.36511,2.34609 3.36511,6.01927 0,2.41719 -0.68724,4.45521 -0.68724,2.03803 -2.08542,3.72058 -1.77735,2.13281 -6.01927,4.76328 -4.45521,2.79636 -5.85339,4.24193 -2.63047,2.72526 -2.58308,6.61172 l 4.88178,-0.45026 q 5.02396,-0.28437 7.18047,-0.28437 1.80104,0 3.4125,0.61614 2.13281,0.82943 2.13281,2.2987 0,0.92422 -0.63984,1.65886 -0.63984,0.71093 -1.58776,0.71093 z"
         style="font-size:65%;baseline-shift:sub"
         id="path78318" />
      <path
         d="m 669.20792,245.12829 q -10.28125,0 -17.42709,-6.16146 -7.58334,-6.56251 -7.58334,-16.91668 0,-12.61459 7.47396,-22.9323 8.34897,-11.44792 20.81772,-11.44792 11.9948,0 17.82814,5.39583 6.08854,5.61459 6.08854,17.71876 0,12.61459 -6.85417,22.75001 -7.875,11.59376 -20.34376,11.59376 z m 3.28125,-49.9844 q -8.93229,0 -15.13021,8.89584 -5.72397,8.16667 -5.72397,18.01042 0,7.03646 5.21355,11.44792 4.99479,4.15626 12.35938,4.15626 8.85938,0 14.6198,-8.9323 5.14063,-7.98438 5.14063,-17.93751 0,-8.71354 -3.90105,-12.25 -3.71875,-3.39063 -12.57813,-3.39063 z"
         style="font-family:'Comic Sans MS';-inkscape-font-specification:'Comic Sans MS'"
         id="path78320" />
    </g>
    <path
       style="fill:none;stroke:#5f9363;stroke-width:3;stroke-linecap:butt;stroke-linejoin:miter;stroke-opacity:1;stroke-miterlimit:4;stroke-dasharray:none"
       d="m 30.524541,151.16895 c 4.226002,-3.07149 8.438298,-7.14017 13.766789,-8.22318 1.225254,-0.24903 2.789616,0 4.043527,0 1.387501,0 3.222357,-0.33165 4.548968,0 0.914818,-0.30464 0.940033,0.81879 1.516324,1.01088 2.715734,0.90525 5.336241,2.61909 8.115128,3.55643 0.311346,0.10502 0.692436,-0.14811 0.98574,0 0.88923,0.44905 1.583843,1.68694 2.515018,1.99733 3.245027,1.08168 9.450329,-1.22805 12.663849,-2.03143 1.4756,-0.3689 5.531628,-0.51408 7.076173,0 1.121897,0.3734 1.968754,1.66002 3.017777,2.0097 0.752485,0.25083 3.443039,0.43742 4.052998,0.51491 2.391053,0.30377 4.855282,-0.0641 7.076176,-0.51479 1.678352,-0.34062 3.942882,0.54211 5.569202,0 3.29893,-1.09964 7.10942,-1.65914 10.64208,-2.55505 2.16868,-0.54999 5.00039,0.15948 7.07617,0.50545 2.33945,0.3899 17.18502,0.40435 19.20676,0 1.736,-0.3472 4.57628,-0.85176 6.13008,-1.52534 2.35286,-1.01997 4.56429,-2.9825 6.83255,-4.12197 1.79425,-0.90135 2.28865,4.11654 3.80703,4.87121 0.28853,0.14339 0.70046,0.18161 0.96659,0 1.39169,-0.94974 2.71597,-2.03788 4.07601,-3.04561 1.07722,-0.79818 2.90361,-1.29961 3.53651,-1.89947 0.96511,-0.91474 4.96733,4.35356 5.96028,4.35356"
       id="path78377" />
    <path
       style="fill:none;stroke:#5f9363;stroke-width:3;stroke-linecap:butt;stroke-linejoin:miter;stroke-opacity:1;stroke-miterlimit:4;stroke-dasharray:none"
       d="m 40.700121,189.63697 c 0.817628,4.98553 1.213755,10.03289 2.042832,15.01574 1.605224,9.64757 3.180077,16.20369 3.180077,25.61892 0,1.38986 0.270015,3.18983 0,4.54897 -0.237662,1.19628 -1.182597,2.53475 -1.525886,3.56462 -0.404493,1.21348 0.40223,2.8292 0,4.04352 -1.876711,5.66576 -1.019334,12.60788 -1.019334,18.7028"
       id="path78379" />
    <path
       style="fill:none;stroke:#5f9363;stroke-width:3;stroke-linecap:butt;stroke-linejoin:miter;stroke-opacity:1;stroke-miterlimit:4;stroke-dasharray:none"
       d="m 40.700121,189.63697 c 3.467081,0.10343 6.935266,0.17483 10.401241,0.31029 5.908186,0.23091 11.824079,0.24858 17.730322,0.52472 7.300095,0.34132 14.852544,2.06615 22.239401,1.01088 3.413596,-0.48765 6.750272,-0.84214 10.118235,-1.52573 0.66045,-0.13405 1.38242,0.21311 2.02176,0 1.07333,-0.35777 1.763,-0.94668 2.72362,-0.94668 -0.0382,9.74507 -0.0224,19.49031 -0.0224,29.23546 0,1.96909 -0.39208,4.62005 0,6.58045 1.14809,5.74047 1.02013,11.83679 1.02013,17.75466 0,2.60579 -0.68023,15.14429 0,17.18499 0.62062,1.86184 0.50544,-0.5813 0.50544,0.99407 -12.432938,1.06094 -24.927709,1.00934 -37.407182,1.00934 -3.236768,0 -7.17617,0.54596 -10.391648,0 -3.941845,-0.66928 1.730833,-0.51491 -2.031235,-0.51491 -0.897247,0 -11.998554,-0.94553 -12.062374,-1.01841 -0.109333,-0.12484 0.115663,-0.37885 0,-0.49785 -0.55477,-0.57079 -2.984306,0.39232 -2.956416,0.47743 0.12547,0.38287 0.525863,0.61057 0.788795,0.91586"
       id="path78381" />
    <path
       style="fill:none;stroke:#5f9363;stroke-width:3;stroke-linecap:butt;stroke-linejoin:miter;stroke-opacity:1;stroke-miterlimit:4;stroke-dasharray:none"
       d="m 132.11601,208.52521 c 3.2894,-2.41761 4.45099,-3.76125 8.9564,-4.5114 1.24395,-0.20711 11.06491,2.50851 13.69426,3.04274 2.73157,0.55499 5.51223,-0.50544 8.08706,-0.50544 2.32639,0 7.55525,0.69566 9.60337,0 1.13309,-0.38487 2.42788,-1.5229 3.51597,-1.5229"
       id="path78383" />
    <path
       style="fill:none;stroke:#5f9363;stroke-width:3;stroke-linecap:butt;stroke-linejoin:miter;stroke-opacity:1;stroke-miterlimit:4;stroke-dasharray:none"
       d="m 132.56389,231.96472 c 1.51106,0.47412 2.95261,1.3228 4.53317,1.42236 3.03502,0.19117 6.06589,-0.47721 9.10571,-0.56326 3.59642,-0.10179 7.19863,-0.14444 10.79359,0 2.59402,0.10423 3.38698,2.31582 5.59773,3.05135 3.23523,1.07637 6.77169,-0.0469 10.08563,0.50544 0.52553,0.0876 0.98883,0.43051 1.51632,0.50544 0.92978,0.13206 3.63071,-0.48003 4.56933,0 0.52135,0.26663 2.19268,1.00764 2.36722,1.00764"
       id="path78385" />
  </g>
</svg>
