<?xml version="1.0" encoding="UTF-8" standalone="no"?>
<!-- Created with Inkscape (http://www.inkscape.org/) -->

<svg
   width="1920"
   height="1080"
   version="1.1"
   viewBox="0 0 508 285.75"
   id="svg8850"
   sodipodi:docname="table.svg"
   inkscape:version="1.1.2 (0a00cf5339, 2022-02-04)"
   xmlns:inkscape="http://www.inkscape.org/namespaces/inkscape"
   xmlns:sodipodi="http://sodipodi.sourceforge.net/DTD/sodipodi-0.dtd"
   xmlns:xlink="http://www.w3.org/1999/xlink"
   xmlns="http://www.w3.org/2000/svg"
   xmlns:svg="http://www.w3.org/2000/svg">
  <sodipodi:namedview
     id="namedview8852"
     pagecolor="#505050"
     bordercolor="#ffffff"
     borderopacity="1"
     inkscape:pageshadow="0"
     inkscape:pageopacity="0"
     inkscape:pagecheckerboard="1"
     showgrid="false"
     inkscape:zoom="0.3359375"
     inkscape:cx="1102.8837"
     inkscape:cy="708.46511"
     inkscape:window-width="1920"
     inkscape:window-height="1011"
     inkscape:window-x="0"
     inkscape:window-y="0"
     inkscape:window-maximized="1"
     inkscape:current-layer="g8848"
     inkscape:snap-object-midpoints="true"
     inkscape:snap-center="true" />
  <defs
     id="defs8842">
    <radialGradient
       id="radialGradient3107"
       cx="254"
       cy="142.88"
       r="254"
       gradientTransform="matrix(1 0 0 .5625 0 62.508)"
       gradientUnits="userSpaceOnUse">
      <stop
         stop-color="#cdac80"
         offset="0"
         id="stop3103"
         style="stop-color:#c29f5b;stop-opacity:1" />
      <stop
         stop-color="#957538"
         offset="1"
         id="stop3105"
         style="stop-color:#a07e3c;stop-opacity:1" />
    </radialGradient>
    <radialGradient
       id="radialGradient2993"
       cx="254"
       cy="142.88"
       r="254"
       gradientTransform="matrix(1 0 0 .5625 0 62.508)"
       gradientUnits="userSpaceOnUse">
      <stop
         stop-color="#cdac80"
         offset="0"
         id="stop2989"
         style="stop-color:#cccb81;stop-opacity:1" />
      <stop
         stop-color="#957538"
         offset="1"
         id="stop2991"
         style="stop-color:#a5a316;stop-opacity:1" />
    </radialGradient>
    <radialGradient
       id="radialGradient2937"
       cx="254"
       cy="142.88"
       r="254"
       gradientTransform="matrix(1 0 0 .5625 0 62.508)"
       gradientUnits="userSpaceOnUse">
      <stop
         stop-color="#cdac80"
         offset="0"
         id="stop2933"
         style="stop-color:#d4d380;stop-opacity:1" />
      <stop
         stop-color="#957538"
         offset="1"
         id="stop2935"
         style="stop-color:#99a52c;stop-opacity:1" />
    </radialGradient>
    <radialGradient
       id="radialGradient2790"
       cx="254"
       cy="142.88"
       r="254"
       gradientTransform="matrix(1 0 0 .5625 0 62.508)"
       gradientUnits="userSpaceOnUse">
      <stop
         stop-color="#cdac80"
         offset="0"
         id="stop2786"
         style="stop-color:#a4d282;stop-opacity:1" />
      <stop
         stop-color="#957538"
         offset="1"
         id="stop2788"
         style="stop-color:#4ba52c;stop-opacity:1" />
    </radialGradient>
    <radialGradient
       id="radialGradient5399"
       cx="254"
       cy="142.88"
       r="254"
       gradientTransform="matrix(1 0 0 .5625 0 62.508)"
       gradientUnits="userSpaceOnUse">
      <stop
         stop-color="#cdac80"
         offset="0"
         id="stop2754" />
      <stop
         stop-color="#957538"
         offset="1"
         id="stop2756" />
    </radialGradient>
    <pattern
       id="pattern4922"
       patternTransform="matrix(6.0529 1.0561 -3.4912 20.01 0 0)"
       xlink:href="#Wavywhite" />
    <pattern
       id="Wavywhite"
       width="30.066020"
       height="5.1805778"
       patternUnits="userSpaceOnUse">
      <path
         d="m7.597 0.061c-2.518-0.248-4.941 0.241-7.607 1.727v1.273c2.783-1.63 5.183-2.009 7.482-1.781 2.298 0.228 4.497 1.081 6.781 1.938 4.567 1.713 9.551 3.458 15.813-0.157l-4e-3 -1.273c-6.44 3.709-10.816 1.982-15.371 0.273-2.278-0.854-4.576-1.75-7.094-2z"
         fill="#fff"
         id="path8834" />
    </pattern>
    <radialGradient
       id="radialGradient5399-3"
       cx="254"
       cy="142.88"
       r="254"
       gradientTransform="matrix(1 0 0 .5625 0 62.508)"
       gradientUnits="userSpaceOnUse">
      <stop
         stop-color="#cdac80"
         offset="0"
         id="stop8837" />
      <stop
         stop-color="#957538"
         offset="1"
         id="stop8839" />
    </radialGradient>
    <radialGradient
       inkscape:collect="always"
       xlink:href="#radialGradient5399-3"
       id="radialGradient2778"
       cx="264.70969"
       cy="103.00612"
       fx="264.70969"
       fy="103.00612"
       r="275.28058"
       gradientTransform="matrix(1,0,0,0.33613984,0,68.381662)"
       gradientUnits="userSpaceOnUse" />
    <radialGradient
       inkscape:collect="always"
       xlink:href="#radialGradient5399-3"
       id="radialGradient2780"
       cx="264.70969"
       cy="103.00612"
       fx="264.70969"
       fy="103.00612"
       r="275.28058"
       gradientTransform="matrix(1,0,0,0.33613984,0,68.381662)"
       gradientUnits="userSpaceOnUse" />
    <radialGradient
       inkscape:collect="always"
       xlink:href="#radialGradient2993"
       id="radialGradient2782"
       cx="264.70969"
       cy="103.00612"
       fx="264.70969"
       fy="103.00612"
       r="275.28058"
       gradientTransform="matrix(1,0,0,0.33613984,0,68.381662)"
       gradientUnits="userSpaceOnUse" />
    <radialGradient
       inkscape:collect="always"
       xlink:href="#radialGradient5399-3"
       id="radialGradient2784"
       cx="264.70969"
       cy="103.00612"
       fx="264.70969"
       fy="103.00612"
       r="275.28058"
       gradientTransform="matrix(1,0,0,0.33613984,0,68.381662)"
       gradientUnits="userSpaceOnUse" />
    <radialGradient
       inkscape:collect="always"
       xlink:href="#radialGradient2993"
       id="radialGradient2792"
       gradientUnits="userSpaceOnUse"
       gradientTransform="matrix(1,0,0,0.33613984,0,68.381662)"
       cx="264.70969"
       cy="103.00612"
       fx="264.70969"
       fy="103.00612"
       r="275.28058" />
    <radialGradient
       inkscape:collect="always"
       xlink:href="#radialGradient2993"
       id="radialGradient2794"
       gradientUnits="userSpaceOnUse"
       gradientTransform="matrix(1,0,0,0.33613984,0,68.381662)"
       cx="264.70969"
       cy="103.00612"
       fx="264.70969"
       fy="103.00612"
       r="275.28058" />
    <radialGradient
       inkscape:collect="always"
       xlink:href="#radialGradient2993"
       id="radialGradient2796"
       gradientUnits="userSpaceOnUse"
       gradientTransform="matrix(1,0,0,0.33613984,0,68.381662)"
       cx="264.70969"
       cy="103.00612"
       fx="264.70969"
       fy="103.00612"
       r="275.28058" />
    <radialGradient
       inkscape:collect="always"
       xlink:href="#radialGradient2993"
       id="radialGradient2798"
       gradientUnits="userSpaceOnUse"
       gradientTransform="matrix(1,0,0,0.33613984,0,68.381662)"
       cx="264.70969"
       cy="103.00612"
       fx="264.70969"
       fy="103.00612"
       r="275.28058" />
    <radialGradient
       inkscape:collect="always"
       xlink:href="#radialGradient2993"
       id="radialGradient2800"
       gradientUnits="userSpaceOnUse"
       gradientTransform="matrix(1,0,0,0.33613984,0,68.381662)"
       cx="264.70969"
       cy="103.00612"
       fx="264.70969"
       fy="103.00612"
       r="275.28058" />
    <radialGradient
       inkscape:collect="always"
       xlink:href="#radialGradient2993"
       id="radialGradient2802"
       gradientUnits="userSpaceOnUse"
       gradientTransform="matrix(1,0,0,0.33613984,0,68.381662)"
       cx="264.70969"
       cy="103.00612"
       fx="264.70969"
       fy="103.00612"
       r="275.28058" />
    <radialGradient
       inkscape:collect="always"
       xlink:href="#radialGradient2993"
       id="radialGradient2804"
       gradientUnits="userSpaceOnUse"
       gradientTransform="matrix(1,0,0,0.33613984,0,68.381662)"
       cx="264.70969"
       cy="103.00612"
       fx="264.70969"
       fy="103.00612"
       r="275.28058" />
    <radialGradient
       inkscape:collect="always"
       xlink:href="#radialGradient2993"
       id="radialGradient2806"
       gradientUnits="userSpaceOnUse"
       gradientTransform="matrix(1,0,0,0.33613984,0,68.381662)"
       cx="264.70969"
       cy="103.00612"
       fx="264.70969"
       fy="103.00612"
       r="275.28058" />
    <radialGradient
       inkscape:collect="always"
       xlink:href="#radialGradient2993"
       id="radialGradient2808"
       gradientUnits="userSpaceOnUse"
       gradientTransform="matrix(1,0,0,0.33613984,0,68.381662)"
       cx="264.70969"
       cy="103.00612"
       fx="264.70969"
       fy="103.00612"
       r="275.28058" />
    <radialGradient
       inkscape:collect="always"
       xlink:href="#radialGradient2993"
       id="radialGradient2995"
       gradientUnits="userSpaceOnUse"
       gradientTransform="matrix(1,0,0,0.33613984,0,68.381662)"
       cx="264.70969"
       cy="103.00612"
       fx="264.70969"
       fy="103.00612"
       r="275.28058" />
    <radialGradient
       inkscape:collect="always"
       xlink:href="#radialGradient2993"
       id="radialGradient2997"
       gradientUnits="userSpaceOnUse"
       gradientTransform="matrix(1,0,0,0.33613984,0,68.381662)"
       cx="264.70969"
       cy="103.00612"
       fx="264.70969"
       fy="103.00612"
       r="275.28058" />
    <radialGradient
       inkscape:collect="always"
       xlink:href="#radialGradient2993"
       id="radialGradient2999"
       gradientUnits="userSpaceOnUse"
       gradientTransform="matrix(1,0,0,0.33613984,0,68.381662)"
       cx="264.70969"
       cy="103.00612"
       fx="264.70969"
       fy="103.00612"
       r="275.28058" />
    <radialGradient
       inkscape:collect="always"
       xlink:href="#radialGradient3107"
       id="radialGradient3101"
       cx="254"
       cy="142.875"
       fx="254"
       fy="142.875"
       r="254"
       gradientTransform="matrix(1,0,0,0.5625,0,62.507812)"
       gradientUnits="userSpaceOnUse" />
  </defs>
  <g
     fill-rule="evenodd"
     id="g8848">
    <rect
       width="508"
       height="285.75"
       rx="2.6458001"
       ry="2.6458001"
       fill="url(#radialGradient5399)"
       id="rect8844"
       x="0"
       y="0"
       style="fill:url(#radialGradient3101);fill-opacity:1" />
    <rect
       width="508"
       height="285.75"
       rx="2.6458001"
       ry="2.6458001"
       fill="url(#pattern4922)"
       style="mix-blend-mode:overlay;fill:none"
       id="rect2016"
       x="0"
       y="0" />
    <g
       id="g2504"
       style="mix-blend-mode:normal;fill:url(#radialGradient2782);fill-opacity:1;stroke:none">
      <path
         d="M 45.947129,13.33052 C 31.571745,5.70878 15.198371,12.93474 -6.1265832,39.854037 l -4.4442978,25.47273 C 11.964995,35.649593 27.81512,30.600443 40.934744,37.590697 c 13.11357,6.989198 23.445904,26.380092 34.278769,45.940794 21.663169,39.100339 45.738677,79.281389 96.262627,13.55854 l 4.42008,-25.476955 C 123.96669,139.02888 103.5085,99.850119 81.904002,60.842493 71.09698,41.348157 60.315531,20.992279 45.947129,13.33052 Z"
         fill="#ffffff"
         id="path2152"
         style="fill:url(#radialGradient2999);fill-opacity:1;stroke:none;stroke-width:11.1716" />
      <path
         d="m 227.99415,45.093784 c -14.37538,-7.62174 -30.74876,-0.39578 -52.07371,26.523517 l -4.4443,25.47273 c 22.53588,-29.677174 38.386,-34.726324 51.50562,-27.73607 13.11357,6.989198 23.44591,26.380092 34.27877,45.940789 21.66317,39.10034 45.73868,79.28139 96.26263,13.55854 l 4.42008,-25.47695 C 306.01371,170.79214 285.55552,131.61338 263.95102,92.605757 253.144,73.111421 242.36255,52.755543 227.99415,45.093784 Z"
         fill="#ffffff"
         id="path2497"
         style="fill:url(#radialGradient2997);fill-opacity:1;stroke:none;stroke-width:11.1716" />
      <path
         d="m 410.04117,76.857043 c -14.37538,-7.62174 -30.74876,-0.39578 -52.07371,26.523517 l -4.4443,25.47273 c 22.53588,-29.677174 38.386,-34.726324 51.50562,-27.73607 13.11357,6.9892 23.44591,26.38009 34.27877,45.94079 21.66317,39.10034 45.73868,79.28139 96.26263,13.55854 l 4.42008,-25.47695 c -51.92953,67.4158 -72.38772,28.23704 -93.99222,-10.77058 -10.80702,-19.49434 -21.58847,-39.850218 -35.95687,-47.511977 z"
         fill="#ffffff"
         id="path2499"
         style="fill:url(#radialGradient2995);fill-opacity:1;stroke:none;stroke-width:11.1716" />
    </g>
    <g
       id="g2512"
       transform="translate(-27.57018,125.13345)"
       style="mix-blend-mode:normal;fill:url(#radialGradient2780);fill-opacity:1;stroke:none">
      <path
         d="M 45.947129,13.33052 C 31.571745,5.70878 15.198371,12.93474 -6.1265832,39.854037 l -4.4442978,25.47273 C 11.964995,35.649593 27.81512,30.600443 40.934744,37.590697 c 13.11357,6.989198 23.445904,26.380092 34.278769,45.940794 21.663169,39.100339 45.738677,79.281389 96.262627,13.55854 l 4.42008,-25.476955 C 123.96669,139.02888 103.5085,99.850119 81.904002,60.842493 71.09698,41.348157 60.315531,20.992279 45.947129,13.33052 Z"
         fill="#ffffff"
         id="path2506"
         style="fill:url(#radialGradient2792);fill-opacity:1.0;stroke:none;stroke-width:11.1716" />
      <path
         d="m 227.99415,45.093784 c -14.37538,-7.62174 -30.74876,-0.39578 -52.07371,26.523517 l -4.4443,25.47273 c 22.53588,-29.677174 38.386,-34.726324 51.50562,-27.73607 13.11357,6.989198 23.44591,26.380092 34.27877,45.940789 21.66317,39.10034 45.73868,79.28139 96.26263,13.55854 l 4.42008,-25.47695 C 306.01371,170.79214 285.55552,131.61338 263.95102,92.605757 253.144,73.111421 242.36255,52.755543 227.99415,45.093784 Z"
         fill="#ffffff"
         id="path2508"
         style="fill:url(#radialGradient2794);fill-opacity:1.0;stroke:none;stroke-width:11.1716" />
      <path
         d="m 410.04117,76.857043 c -14.37538,-7.62174 -30.74876,-0.39578 -52.07371,26.523517 l -4.4443,25.47273 c 22.53588,-29.677174 38.386,-34.726324 51.50562,-27.73607 13.11357,6.9892 23.44591,26.38009 34.27877,45.94079 21.66317,39.10034 45.73868,79.28139 96.26263,13.55854 l 4.42008,-25.47695 c -51.92953,67.4158 -72.38772,28.23704 -93.99222,-10.77058 -10.80702,-19.49434 -21.58847,-39.850218 -35.95687,-47.511977 z"
         fill="#ffffff"
         id="path2510"
         style="fill:url(#radialGradient2796);fill-opacity:1.0;stroke:none;stroke-width:11.1716" />
    </g>
    <g
       id="g2520"
       transform="translate(19.554304,-128.93693)"
       style="mix-blend-mode:normal;fill:url(#radialGradient2784);fill-opacity:1;stroke:none">
      <path
         d="M 45.947129,13.33052 C 31.571745,5.70878 15.198371,12.93474 -6.1265832,39.854037 l -4.4442978,25.47273 C 11.964995,35.649593 27.81512,30.600443 40.934744,37.590697 c 13.11357,6.989198 23.445904,26.380092 34.278769,45.940794 21.663169,39.100339 45.738677,79.281389 96.262627,13.55854 l 4.42008,-25.476955 C 123.96669,139.02888 103.5085,99.850119 81.904002,60.842493 71.09698,41.348157 60.315531,20.992279 45.947129,13.33052 Z"
         fill="#ffffff"
         id="path2514"
         style="fill:url(#radialGradient2802);fill-opacity:1.0;stroke:none;stroke-width:11.1716" />
      <path
         d="m 227.99415,45.093784 c -14.37538,-7.62174 -30.74876,-0.39578 -52.07371,26.523517 l -4.4443,25.47273 c 22.53588,-29.677174 38.386,-34.726324 51.50562,-27.73607 13.11357,6.989198 23.44591,26.380092 34.27877,45.940789 21.66317,39.10034 45.73868,79.28139 96.26263,13.55854 l 4.42008,-25.47695 C 306.01371,170.79214 285.55552,131.61338 263.95102,92.605757 253.144,73.111421 242.36255,52.755543 227.99415,45.093784 Z"
         fill="#ffffff"
         id="path2516"
         style="fill:url(#radialGradient2800);fill-opacity:1.0;stroke:none;stroke-width:11.1716" />
      <path
         d="m 410.04117,76.857043 c -14.37538,-7.62174 -30.74876,-0.39578 -52.07371,26.523517 l -4.4443,25.47273 c 22.53588,-29.677174 38.386,-34.726324 51.50562,-27.73607 13.11357,6.9892 23.44591,26.38009 34.27877,45.94079 21.66317,39.10034 45.73868,79.28139 96.26263,13.55854 l 4.42008,-25.47695 c -51.92953,67.4158 -72.38772,28.23704 -93.99222,-10.77058 -10.80702,-19.49434 -21.58847,-39.850218 -35.95687,-47.511977 z"
         fill="#ffffff"
         id="path2518"
         style="fill:url(#radialGradient2798);fill-opacity:1.0;stroke:none;stroke-width:11.1716" />
    </g>
    <g
       id="g2528"
       transform="translate(-48.969703,251.76398)"
       style="mix-blend-mode:normal;fill:url(#radialGradient2778);fill-opacity:1;stroke:none">
      <path
         d="M 45.947129,13.33052 C 31.571745,5.70878 15.198371,12.93474 -6.1265832,39.854037 l -4.4442978,25.47273 C 11.964995,35.649593 27.81512,30.600443 40.934744,37.590697 c 13.11357,6.989198 23.445904,26.380092 34.278769,45.940794 21.663169,39.100339 45.738677,79.281389 96.262627,13.55854 l 4.42008,-25.476955 C 123.96669,139.02888 103.5085,99.850119 81.904002,60.842493 71.09698,41.348157 60.315531,20.992279 45.947129,13.33052 Z"
         fill="#ffffff"
         id="path2522"
         style="fill:url(#radialGradient2808);fill-opacity:1.0;stroke:none;stroke-width:11.1716" />
      <path
         d="m 227.99415,45.093784 c -14.37538,-7.62174 -30.74876,-0.39578 -52.07371,26.523517 l -4.4443,25.47273 c 22.53588,-29.677174 38.386,-34.726324 51.50562,-27.73607 13.11357,6.989198 23.44591,26.380092 34.27877,45.940789 21.66317,39.10034 45.73868,79.28139 96.26263,13.55854 l 4.42008,-25.47695 C 306.01371,170.79214 285.55552,131.61338 263.95102,92.605757 253.144,73.111421 242.36255,52.755543 227.99415,45.093784 Z"
         fill="#ffffff"
         id="path2524"
         style="fill:url(#radialGradient2806);fill-opacity:1.0;stroke:none;stroke-width:11.1716" />
      <path
         d="m 410.04117,76.857043 c -14.37538,-7.62174 -30.74876,-0.39578 -52.07371,26.523517 l -4.4443,25.47273 c 22.53588,-29.677174 38.386,-34.726324 51.50562,-27.73607 13.11357,6.9892 23.44591,26.38009 34.27877,45.94079 21.66317,39.10034 45.73868,79.28139 96.26263,13.55854 l 4.42008,-25.47695 c -51.92953,67.4158 -72.38772,28.23704 -93.99222,-10.77058 -10.80702,-19.49434 -21.58847,-39.850218 -35.95687,-47.511977 z"
         fill="#ffffff"
         id="path2526"
         style="fill:url(#radialGradient2804);fill-opacity:1.0;stroke:none;stroke-width:11.1716" />
    </g>
  </g>
</svg>
